<svg width="2414" height="1599" xmlns="http://www.w3.org/2000/svg" xmlns:xlink="http://www.w3.org/1999/xlink"><defs><path d="M203.8 1293.7h2106.1a1093 1093 0 00101-408.6c6-127.8 11-239-58.9-294.8-90.4-72.3-77.5-303.5-240.1-316-313.5-24-501.8-234-829.8-269.5-311.7-33.7-915.3 163-985.7 412.8C288.6 445.3 561.6 729 510 764.4c-97.7 66.7-206.2-42-335.6 7C80 807-7 919.4 1.6 1045.2 9 1156 89.2 1254.7 203.8 1293.7z" id="a"/><path id="c" d="M165.7 0l-63.2 99.7L0 164.3l23.2 41.4 106-69.5 63.2-118z"/><path d="M157.7 59.2c-1 5-15.6 87.1 6.1 184.1 0 0-82.4-26.9-163.8-4.7 0 0 42.1-51.4 31.8-87S-43 37.4 70.2 10.3L144.7 0l13 59.2z" id="e"/><path d="M333.2 21s-83.8 101.2-88.9 104.4c-5.1 3.3-86.6 41.2-86.6 41.2v.3c-1 5-15.6 87.1 6.1 184.1 0 0-82.4-26.9-163.8-4.7 0 0 42.1-51.4 31.8-87S-43 145 70.2 117.9l74.5-10.2 84.2-24.4L314.5 0l18.7 21z" id="g"/></defs><g fill="none" fill-rule="evenodd"><path d="M202.8 1415.4h2106.1a1093 1093 0 00101-408.6c6-127.8 11-239-58.9-294.8-90.4-72.3-212.3 75.6-374.9 63.2-313.5-24.1-367-613.3-695-648.7-311.7-33.7-628.9 386.3-699.2 636-7.8 27.8-21.3 88.2-73 123.6-97.7 66.7-206.2-42-335.6 7C79 928.7-8 1041.1.6 1166.9c7.5 110.8 87.6 209.5 202.2 248.5z" fill="#E3EEFF"/><g transform="translate(-1 121.7)"><mask id="b" fill="#fff"><use xlink:href="#a"/></mask><g mask="url(#b)"><g fill="#AACEF2"><path d="M715.5 1286.7c9.2-3.4-12.1-181.5-141.6-342.1-41.3-51.4-120.7-149.8-213.4-140.2-24.8 2.5-64.8 14.4-73.7 41.5-10.2 31.4 24.3 73.7 58.3 94.4 43.3 26.5 68.8 7.5 93.9 33 28.5 29 1.2 59.4 31.5 107.7 24.6 39 66.8 57.7 82.8 64.8 26.4 11.6 35.5 9.1 55 16.2 77.5 28 100.2 127.3 107.2 124.7z"/><path d="M712.5 1289.5c7.1-11.5-141.4-159.3-355.6-196.1-132-22.7-195.4 12.8-217.9 27.7-9 6-60.6 40.1-54 69.7 6.7 30.5 74.3 53 122.5 33.6 44-17.6 43.8-58.6 76.8-62.6 37.9-4.6 49.3 48 109.4 72.4 50.4 20.6 72.5-4 146.9 0 106.7 5.8 167.4 62.5 172 55.3z"/><path d="M723 1290c16.8 1.7 101.5-246.9 24.9-508.3-47.2-161-122.1-212.8-151.3-230-11.6-6.8-78.5-46-108.3-22.3-30.6 24.3-18.6 112.8 29.8 156.4 44 39.8 90 17 112.7 52 26.1 40-26.7 81.9-21.2 163 4.7 68 44.6 79.4 81 165.3 52.2 123.4 21.8 223 32.4 224z"/></g><path d="M1831 1313.4c-12.4-19.2 18.4-69.2 57.7-95.5 37.3-25 59.3-13.2 102.5-33.7 47.6-22.6 72.4-61.5 96.8-99.7 56.6-88.5 30.8-123.7 75.9-164.3 44.6-40.1 126.3-56.4 175.5-18.2 25.3 19.7 48.3 58.8 37.9 98.3-9.8 36.8-62.2 20.1-118 70.2a181.8 181.8 0 00-53.3 77.2c-16 47.6 3.8 66.7-11.3 92.6-19.4 33.5-66.6 26.7-158.6 39.4-136 18.6-191 55-205 33.7zM1984.1 844.4c-19.3 102.9 21.7 142.2 4.2 213.4-17.9 73-109.5 65.8-133.3 148.9-5 17.4-5.4 30.4-16.9 49.1-20.7 33.6-56 50.6-86 59.8a14.6 14.6 0 01-11-1c-3-1.6-5.4-4.1-6.8-7.3-8.4-19.9-15-45.6-8.5-72.6 9-36.9 35.1-45.7 59-78.6 12.4-17.2 22.7-39 30.8-186.7 7.2-130.3.2-131.6 11.3-165.7 22.2-68.6 49.1-59.4 85.6-140.4 37.2-82.7 19-113.7 63.2-177 15-21.4 52-74.1 89.9-67.3l.9.1 1 .3c31.8 7.4 54 55 57 95 4.8 61.3-36.3 84.2-92.6 203.6-26.6 56.5-40 84.8-47.8 126.4z" fill="#FD9ECC"/><path d="M2067.5 419.4a504 504 0 01-8.2 87.5 437.5 437.5 0 01-44.2 128.2l-4 7.5-4.5 7.3-4.4 7.3-4.8 7c-1.6 2.4-3.1 4.8-4.8 7l-5 7c-3.3 4.6-6.9 9-10.3 13.5-14 17.8-28.7 35.2-40.2 54.8a231.8 231.8 0 00-24.9 63 241 241 0 00-3.3 101c2 11.2 4.5 22.3 7.3 33.3 2.8 11 5.7 22 8 33a185 185 0 014.2 33.9 124 124 0 01-4 33.8 151 151 0 01-43.1 72.2 295 295 0 01-12.8 11.3c-8.7 7.2-17.7 14.2-26.3 21.5-8.7 7.3-17 15-24.7 23.3a271.4 271.4 0 00-39.1 55.5 465.5 465.5 0 00-46.8 127.2h-.4a466.7 466.7 0 0145.2-128.3 272.3 272.3 0 0139-56.2c7.8-8.5 16-16.4 24.8-23.8 8.7-7.5 17.6-14.5 26.2-21.7a175.3 175.3 0 0034-36.6 156 156 0 0020.4-45.4c2.8-10.7 4-21.7 3.8-32.8-.4-11-1.8-22.2-4.2-33-2.3-11-5.3-22-8-33-2.9-11-5.6-22.1-7.6-33.4a255 255 0 01-3.8-34.3c-1-23 1.9-46.2 7.3-68.5a235.6 235.6 0 0125.5-64c11.8-19.8 26.6-37.4 40.6-55 14-17.8 27-36.2 37.8-56l4.1-7.3 3.7-7.6 3.7-7.6c.6-1.3 1.3-2.5 1.8-3.8l1.7-3.9 6.6-15.6 5.8-15.9a500.3 500.3 0 0026.8-152.7l1.1.3z" fill="#FFF"/><path d="M1742.6 1195.4c-4 54.3 22.6 90.6 2.8 108.1a30 30 0 01-17.4 7h-1.4c-10.5.8-22-2-30.3-5.6-60.6-26.1-62.8-142.1-63.2-162.8-1.5-78.7 24-86.2 25.3-165.7 1.3-75.1-21.2-84.2-28-162.9-8.5-96.1 13.5-212.3 48.1-227.4l1.3-.5c1.3-.4 2.5-.8 3.9-1 32-4.3 80.7 76 91.2 153 10.7 77.8-25.3 94.1-14 178.4 9.8 73.2 40.6 87.4 39.3 146-1.3 63-52.6 67.2-57.6 133.4z" fill="#AACEF2"/><path d="M1754 1341.3l-.3.3a219.7 219.7 0 01-33.7-40.6 221.7 221.7 0 01-35.7-99.2 102.5 102.5 0 017.3-53c6.6-16.6 15.5-31.8 21.4-48 6-16.2 9.2-33.2 9.3-50.5a130.3 130.3 0 00-8.5-50.4c-3-8.2-6.3-16.4-9.2-24.8-2.8-8.5-5.2-17.1-7.1-25.9-.9-4.3-1.8-8.7-2.4-13.1l-1-6.6-.8-6.6-.8-6.7-.5-6.6-.4-6.7c-.2-2.2-.1-4.5-.2-6.7-.4-17.8 1.1-35.6 4.5-53.2 3.2-17.4 7.5-34.5 10.6-51.6a314.7 314.7 0 002.1-104 354.7 354.7 0 00-11.5-51.2 446 446 0 00-18.2-49.2l-.4-.9 1.3-.5.4.8c7.3 16 13.6 32.4 19 49.2 5.3 16.8 9.4 34 12.2 51.3A317.3 317.3 0 011710 792c-3 17.3-7.3 34.4-10.4 51.7a252.4 252.4 0 00-4.3 52.4c0 2.2 0 4.4.2 6.6l.5 6.6c.2 2.2.2 4.3.5 6.5l.8 6.6.8 6.5 1 6.5c.6 4.4 1.6 8.6 2.4 13a244 244 0 007 25.3c2.7 8.4 6 16.5 9 24.8a133.4 133.4 0 018.5 51.9 150 150 0 01-9.7 51.7 266 266 0 01-10.7 24.1c-3.8 8-7.8 15.8-11.1 23.9a99.4 99.4 0 00-7.6 51.5 228.3 228.3 0 0049.4 120.2c5.5 6.8 11.4 13.3 17.6 19.5zM1864.6 1323c18-23.5 39.8-43.7 64.6-59.9a212 212 0 01105-33c7.4-.5 14.8-.7 22-1.2 7.3-.3 14.4-1.2 21.5-2.5a71.1 71.1 0 0029-12c1.3-1.1 2.8-2 4-3.2l2-1.7 1.9-1.8c5-4.9 9-10.6 12-16.9 6-12.6 8.2-27 9.9-41.5 1.7-14.4 3-29.2 5.4-43.8a182.8 182.8 0 0133.4-82.3l6.9-8.9 1.7-2.2 1.8-2 3.8-4.2 3.7-4.2 4-3.9 4-3.9 2-2 2.1-1.7 8.5-7.3c2.8-2.4 5.8-4.6 8.8-6.9l4.4-3.3c1.4-1.2 3-2.1 4.5-3.2l9.2-6.2c1.5-1.1 3.1-2 4.7-3l4.8-2.8 4.7-2.9c1.6-1 3.2-2 4.8-2.8l9.8-5.2 4.8-2.6 5-2.4a508 508 0 0140.7-17.4l10.3-3.8 10.4-3.6 21-6.6.2.4c-28 9-55.4 19.7-81.6 33-1.6.8-3.3 1.5-4.9 2.4l-4.8 2.7-9.6 5.3c-1.7.8-3.2 1.8-4.8 2.8l-4.7 2.9-4.6 2.9c-1.6 1-3.2 1.9-4.7 3l-9 6.3-4.5 3.1-4.3 3.4c-2.9 2.3-5.8 4.5-8.6 6.9l-8.2 7.3a224.6 224.6 0 00-29.3 32.7 179.1 179.1 0 00-32.4 80.8c-2.4 14.5-3.5 29.2-5.2 43.8a227 227 0 01-3.5 21.7 94.4 94.4 0 01-7 21 62.2 62.2 0 01-12.8 17.9l-2 1.9-2.2 1.8c-1.3 1.2-2.9 2.2-4.4 3.3a74.9 74.9 0 01-30.4 12.6 163 163 0 01-22 2.5c-14.6.7-29.3 1-43.8 3a209.5 209.5 0 00-82.2 29.4 243.1 243.1 0 00-35.2 26.4c-10.9 9.9-21 20.6-30.2 32l-.4-.3z" fill="#FFF"/></g></g><path fill="#404884" d="M1312 1364.9V1157h-207.8v207.8l-105.3 42h418.4z"/><path d="M700.8 391.8H1742c13 0 23.5 10.6 23.5 23.5v759c0 13-10.5 23.5-23.5 23.5H700.8c-13 0-23.5-10.5-23.5-23.5v-759c0-13 10.6-23.5 23.5-23.5z" fill="#404884"/><path d="M718.7 414.3h1005.5a24.9 24.9 0 0124.8 24.9V1128a24.9 24.9 0 01-24.8 24.9H718.7a24.9 24.9 0 01-24.9-25V439.3a24.9 24.9 0 0124.9-24.9z" fill="#FFF"/><path d="M1653.1 413s3.8-81.5-52.8-81.5h-452.6s46.5 32.3 37.7 81.4H1653z" fill="#353B6E"/><path d="M1088.7 330c57.6 0 412.8-2.7 467.6-1.3h2c17.1.5 28.9 0 27.5 2.8-11.3 22.6-31.1 92-32.3 160-2.3 130.8 2.9 324.4 4.9 390.9a22.7 22.7 0 01-22.7 23.3h-459.8a22.7 22.7 0 01-22.7-22.2c-1.6-86.7-6.8-399.4.4-453.7 8.5-63.2 16.9-99.7 35.1-99.7z" fill="#AC7DFD"/><path d="M994.7 824.3s-4 81.4 56.7 81.4H1538s-50-32.3-40.5-81.4H994.7z" fill="#D9C7FF"/><g fill="#FFF"><path d="M1122.4 396.8h353.8v4.2h-353.8zM1122.4 450.8h353.8v4.2h-353.8zM1122.4 504.9h353.8v4.2h-353.8zM1122.4 559h353.8v4.1h-353.8zM1122.4 613h353.8v4.2h-353.8zM1122.4 667h353.8v4.2h-353.8zM1122.4 721.1h353.8v4.2h-353.8zM1122.4 775.2h353.8v4.2h-353.8z"/></g><path fill="#AC7DFD" d="M1116.8 394.6H1312v226.1h-195.2z"/><path fill="#FFF" d="M1133.8 414.3H1295V601h-161.2z"/><path d="M1136.3 422.7l3.2-2.8 143.2 165.8-3.2 2.8z" fill="#9082B5"/><path d="M1136.3 585.6l143.3-165.8 3.2 2.8-143.3 165.8z" fill="#9082B5"/><g><path d="M1660 509.8s-29.5-29.5-2.8-31c26.7-1.3 73-7 68.8 19.8-4.2 26.6-5.6 37.4-15.5 38.3-9.8 1-50.5-27.1-50.5-27.1z" fill="#423565"/><g fill="#FFD5C0"><path d="M1661.8 493.3s-24 61.1 13.9 60c23.4-.8 33-17.9 33-17.9s8 3 10-13.5c1.2-9.8-10.9-15.9-12.4-.4 0 0-9 2.2-10-11.1-.8-13.3-7.7-13.1-15.3-11.3-7.6 1.8-18.3-1.7-19.2-5.8z"/><path d="M1711.5 533.6s2.8 26.7 10.3 39.4c0 0 8.7 9.1 16.2 11.8 9 3.2-36.6 75-49.8 51.2-13.2-23.8-10-35-10-35s11.3-15.2 10.9-17.5c-.5-2.3-9.5-33.6-9.5-33.6s1.5-29.8 31.9-16.3z"/></g><path d="M1928.2 1339.6l-53.7 21.8c-3.2-6.3-112.6-223.6-121.2-243.3-42.9-98-38.8-261.5-38.8-261.5h109.8c28.3 72.7-4.2 226-4.2 226 53.3 25.3 108 257 108 257z" fill="#353B6E"/><path d="M1748.4 1374.7c.2.9-20.7-.5-20.6.4 1.4 10.9 3.7 21.7 6.7 32.3h-101l54.9-31.7v-.6c-.2-20-8.5-235.8-16.5-270.7-8.1-35.3 12-248.4 12-248.4l120.7-.8c12.3 70.2-60.4 235.9-60.4 235.9 38 67.4 1.5 262.7 4.2 283.6z" fill="#404884"/><path d="M1633.5 1407.4l54.9-31.7v-.6h39.4c1.4 10.9 3.7 21.7 6.7 32.3h-101z" fill="#353B6E"/><path d="M1669 615.6l53-42.6s53.3-9.4 68.8 89.4a6657.6 6657.6 0 0033.7 194.2H1684s12.6-75.8 0-102.5c-12.7-26.7-42.6-129.6-15-138.5z" fill="#808BD1"/><path d="M1593.8 635l-85.2-57.8c-9.2-7.3-20.3-16.5-22.7-19.7-4.2-5.6-15.5-26.7-19.7-21-4.2 5.6-16.8 28-9.8 35s19.7 8.5 19.7 8.5l11.1 11.8 74.3 85.3c9.9 8.9 27.3-19 34.7-31.9 2-3.5 1-8-2.4-10.2z" fill="#FFD5C0"/><path d="M1745.8 606.7c1.4 15.4-6.5 50-33.7 60.3-39.2 15-63.6 27.5-92.4 35.4-16.5 4.6-45.5-13.8-58.2-25.3l38.1-38.1s83-41.4 98.3-46.3c15.4-5 45.8-10 48 14z" fill="#404884"/><path d="M1838.2 1409l36.3-47.5 36.5-15 .3.6 21.8 36.6-95 25.3z" fill="#353B6E"/><path d="M1584.4 627.7s7 0 8.4 5.6c0 0 5.6-1.4 7 5.7l-36.5 40.7s-11.2-1.4-8.4-7c0 0-9.8-2.9-7-8.5l36.5-36.5z" fill="#808BD1"/></g><g><path d="M1099.6 541.6l-32-33.2-21 21 34.8 38.6a58.2 58.2 0 0018.4 21.5l23.2 17.1 9.2-12.4-22.6-17s39.2-6 53.3-25l9.1-12.5s-31 20.8-72.4 2zM849.5 612l7.6-25-32.3-2.8-7 28a58.5 58.5 0 00-6.8 28.1v28.9h15.4l.2-28.3s28.1 28.1 52 28.1h15.3s-38.8-20.9-44.4-57z" fill="#353B6E"/><path d="M952.5 339.9C939.2 409.2 864.8 560.5 851 612l-40-12.2s16.7-58.3 21.7-91c5-32.8 24.4-108.8 37.7-136.5 0 0-195.8 72.7-169.2-73.2 0 0 264.8-28.7 251.4 40.7z" fill="#353B6E"/><path d="M697 306.2s-12.5 82.8 23 86.7c35.5 4 133.1-7.2 147 6.7 13.9 13.9 66 68.8 116 99.8 49.9 31.1 77 57.2 77 57.2l33.9-26S986.3 398.4 964.6 374c-21.6-24.4-41.7-64.3-79.5-66.5-37.7-2.2-181-1.4-188.1-1.4z" fill="#808BD1"/><path d="M767.2.1c18-1.7 32.6 12.4 34.5 14.4 15.5 15.4 14 38 11.3 53.5-3.5 20.8 14.9 24.6 23 41.5 7.6 16-1.4 40.8-18.2 51.3-23 14.4-55-2.1-71-17.2-34.4-32.2-23-83.2-21.4-90.1 1.8-7.2 12-50.5 41.8-53.4z" fill="#353B6E"/><path d="M795.7 24.8s22.5 63.2-10 58.8c-19-2.6-28.3-20-28.3-20s-9 1.6-11-9.2c-1.4-7.3 8.2-14 11.6-.8 0 0 3.8 0 7.1-8.6 2.1-5.4 2.8-12.4 10.4-10.7 7.5 1.7 19.4-5.4 20.2-9.5z" fill="#FFD5C0"/><path d="M791.2 80.7s-17.4 25-14 39.4c3.4 14.4-54 20.2-41.5-6.3 12.4-26.5 21.6-32.6 32.5-57.6 11-25 23 24.5 23 24.5zM802.3 104c-10.8 2.7-17 10.8-14.5 21.7 10.2 45 36 152.1 49.7 152.2 17.3 0 81.4 3 81.4 3l9.8-30.9-77.2 2.8-25.3-116.5c-1.7-9.7-2.3-20.3-10.1-26.3-7.7-6-13.8-6-13.8-6z" fill="#FFD5C0"/><path d="M801.9 104c11-1.7 21.4 5.7 23.4 16.6 8.3 45.5 53 105.8 40.3 111.2-16 6.8-64.6-1.4-64.6-1.4l-16-102.6a20.5 20.5 0 0116.9-23.7z" fill="#FF78BA"/><path d="M827.6 185.4c-29.5 60.4 7 120.8 7 120.8H697s38-60.4 21-88.5c-16.8-28-37.8-82.8-32.2-98.2 4.1-11.4 31-15.2 45-16.4l8.3-.5 48-1 9.6 1c8.4 1.4 11.8 2.4 15 8.5 11.7 22.8 28.4 48.7 15.9 74.3z" fill="#FD9ECC"/><path d="M951.1 245.8s19.7-11.2 21.1-15.4c1.4-4.2 8.4 1.4 1.4 8.4a55 55 0 01-12.6 9.8l-9.9-2.8z" fill="#FFD5C0"/><path fill="#AFAFAF" d="M749.3 321H905l65.1-46.4-153.5 2.2z"/><path fill="#DDD" d="M970.1 274.6L905 320.9V177l62.5-56.7 2.6 154.4"/><path d="M758.8 273.9s26.7 7 30.9 5.6c4.2-1.4 18.2-9.8 28-5.6 7 3 16.8 9.5 22 13a2.7 2.7 0 01-.9 5c-2.7.6-5.6.7-8.4.3-11-1.4-22 0-32.3 4.2-7.3 3-49.1-5.7-49.1-5.7l9.8-16.8z" fill="#FFD5C0"/><path d="M704.6 108.3a20.5 20.5 0 00-23.4 16.6c-8.3 45.4-22 146.4-9.5 151.8 16 6.9 89.9 16.9 89.9 16.9l7-18.3-67.6-24L721.5 132a20.5 20.5 0 00-16.9-23.7z" fill="#FFD5C0"/><path d="M704.6 108.3a20.5 20.5 0 00-23.4 16.6c-8.3 45.4-53 105.7-40.4 111 16 7 64.6-1.3 64.6-1.3L721.5 132a20.5 20.5 0 00-16.9-23.7z" fill="#FF78BA"/><path d="M958.6 247a5.5 5.5 0 015.2-4.4c5-.2 12.6.3 12.6 6 0 8.5-1.4 22.5-12.6 21-8.4-1-6.6-15.3-5.2-22.5zM782.7 150.3c-14.9-1.2-44.9-38.2-51.9-47.2l8.3-.5 48-1c12.4 24.4 11.7 50-4.4 48.7z" fill="#FFD5C0"/></g><g><path d="M642 635.4s19-15.7 19.1 6.6l-24 51.4-32.5 3.8 37.4-61.8z" fill="#FFD5C0"/><path fill="#3B427B" d="M624 657.2L560.8 757l-102.5 64.6 23.2 41.4 106-69.5 63.2-118z"/><g transform="translate(458.3 657.2)"><mask id="d" fill="#fff"><use xlink:href="#c"/></mask><g mask="url(#d)" fill="#808BD1" fill-rule="nonzero"><path d="M284.2 186.4L20.2-4.4l5.3-7.4 264 190.8-5.3 7.4zM264 214.3L0 23.5l-5.3 7.4 264 190.8 5.3-7.4zm-25.5 35.3l-264-190.9-5.3 7.4 264 190.9 5.3-7.4zM213 284.8L-51 94l-5.3 7.4 264 190.8 5.3-7.4zm110.6-133L59.6-38.8l-5.4 7.4 264 190.8 5.4-7.4z"/></g></g><path d="M774.2 761.1l-160-46.3v-221l160 46.3z" fill="#FD9ECC"/><path d="M527.9 687.8c15.6 1.8 25.4 16.3 26.7 18.3 10.4 15.9 5 34.7 0 47.4-6.7 17 8.2 23.6 12 39.3 3.7 15-8.4 34.4-24.4 40.2-22.1 8.1-46.2-11.6-57.2-27.2-23.4-33.4-4.7-74.6-2-80.2 2.7-5.8 19.2-40.6 44.9-37.8z" fill="#353B6E"/><path d="M540.2 703s22.5 63.2-10 58.8c-19-2.6-28.4-20-28.4-20s-8.9 1.6-11-9.3c-1.4-7.2 8.3-13.9 11.7-.8 0 0 3.8 0 7-8.5 2.2-5.4 2.9-12.4 10.4-10.7 7.6 1.6 19.5-5.5 20.3-9.5z" fill="#FFD5C0"/><path d="M535.7 758.9s-17.4 25-14 39.3c3.3 14.5-54 20.3-41.6-6.3 12.4-26.5 21.6-32.5 32.6-57.6 11-25 23 24.6 23 24.6zM750.4 661.4s22.4-10.3 16.8 11.3l-36.5 43.5-32.3-4.7 52-50z" fill="#FFD5C0"/><path d="M278.2 1474.8a41 41 0 0014.4 46c27.2 22 17.7 44.7 17.7 44.7l-91.5-47.4s11-50.3 28.3-60.6l.4-1.5c6.2-18.5 68.7-203.5 131.8-237 0 0-12.3-151.8 57.5-226.2l107.4 18.8s-79.4 200.4-102.8 238.8c-23.4 38.3-155.6 190.4-161.4 219.8-.7 1.5-1.3 3-1.8 4.6z" fill="#FF78BA"/><path d="M661.9 1598.4H557.1s-16.9-48.7-7.5-66.4l-.7-2.9c-5.7-25-46.3-209.4-10.6-269.5 0 0-47.7-41.2-91.7-261.2l121.7-.5s39.3 211.1 39.3 256c0 45-33.2 245-23 273.1l.4 2.1c1.5 8 8.8 36.3 38.5 40.3 34.7 4.7 38.4 29 38.4 29z" fill="#FD9ECC"/><path d="M745.2 700.3s-83.8 101-89 104.3c-5 3.3-86.5 41.2-86.5 41.2v.3c-1 5-15.7 87.1 6 184.1 0 0-82.3-26.9-163.7-4.7 0 0 42.1-51.4 31.8-87S369 824.3 482.2 797.2l74.5-10.3 84.1-24.4 85.7-83.3 18.7 21z" fill="#3B427B"/><g transform="translate(412 786.9)"><mask id="f" fill="#fff"><use xlink:href="#e"/></mask><g mask="url(#f)" fill="#808BD1"><path d="M131.4 22.7H-73.7v9h207.1l-.7-1.7c-1-2.3-1.3-4.8-1.3-7.3zM-73.7 66.2H252v9.1H-73.7zM-73.7 109.7H252v9.1H-73.7zM-73.7 153.2H252v9.1H-73.7zM-73.7 196.8H252v9.1H-73.7z"/></g></g><path d="M529.5 790.6S477 880 468.6 921.2c-8.4 41.2-45.4 102-45.4 102s7.5 17.8 18.3-1.9c0 0 34.2-58.9 41.2-98.3 3.8-21.7 26.8-85.2 61.4-134.3 0 0-4.8-7.5-14.6 1.9z" fill="#FF78BA"/><path d="M471.4 798.6s13.1 89.3 43.5 155.8c19.3 42.1 36 70.7 36 70.7s-5 10.7-15.4-2.8c-10.3-13.6-28-53-48.2-107.2-20-54.3-26.2-114.2-26.2-114.2s1.4-16.4 10.3-2.3z" fill="#FD9ECC"/><path d="M539.8 690.1c-8.4-13.2-51.4-10.8-74 12-16.6 16.7-9.3 23.7-27.1 48.5-19 26.4-45.5 23.6-57 44.2-13.6 24.7-12.8 62 17 84.3 34 25.5 101.6 22.6 109.6 2.1 6.9-17.8-23-34.3-16.2-63.6 4.2-18 18-22.9 17.5-39-.5-17.9-5.5-18.3-3.6-29 2.4-13.1 16.2-13.3 30-36.3 1-1.8 9-15.2 3.8-23.2z" fill="#423565"/><path d="M661.9 1598.4H557.1s-16.9-48.7-7.5-66.5l35.4-2.8c1.5 8 8.8 36.3 38.5 40.3 34.7 4.7 38.4 29 38.4 29zM310.3 1565.5l-91.5-47.4s11-50.3 28.3-60.6l31.1 17.3a41 41 0 0014.4 46c27.2 22 17.7 44.7 17.7 44.7z" fill="#353B6E"/><g transform="translate(412 679.2)"><mask id="h" fill="#fff"><use xlink:href="#g"/></mask><g mask="url(#h)" fill="#808BD1" fill-rule="nonzero"><path d="M361.7 195.2L181.6-76.2l7.6-5 180 271.4-7.5 5zm-28.7 19L153-57l-7.6 5 180.1 271.4 7.6-5zm-36.2 24.1L116.6-33l-7.6 5 180.2 271.5 7.6-5zm-36.3 24.1L80.4-9l-7.6 5 180.1 271.4 7.6-5zm150.2-85.6L230.6-94.8l-7.6 5 180.1 271.5 7.6-5z"/></g></g></g><g><path fill="#685696" d="M479 566.9h33.5v25.8H479z"/><path d="M531 521c0-21.6-18-39-39.4-36.5A36 36 0 00461 515a37.8 37.8 0 0010 32.3c5 5.1 7.9 12 8 19.2v.5h33.5v-.3c0-7.2 2.9-14.1 8-19.3 6.7-7 10.5-16.4 10.5-26.2z" fill="#AC7DFD"/><path d="M483.9 517.6c1.9 0 2.8 1.6 3.5 3 .8 1.4 1.4 2.3 2.4 2.3s1.6-.9 2.4-2.3c.8-1.4 1.7-3 3.5-3 1.9 0 2.8 1.6 3.6 3 .8 1.4 1.3 2.3 2.4 2.3 1 0 1.5-.9 2.3-2.3.8-1.4 1.7-3 3.6-3 1.8 0 2.7 1.6 3.5 3 .8 1.4 1.4 2.3 2.4 2.3a.7.7 0 110 1.3c-1.9 0-2.8-1.6-3.6-3-.8-1.4-1.3-2.2-2.3-2.2-1 0-1.6.8-2.4 2.3-.8 1.3-1.7 3-3.5 3-2 0-2.8-1.7-3.6-3-.8-1.5-1.3-2.3-2.4-2.3-1 0-1.5.8-2.3 2.3-.8 1.3-1.7 3-3.6 3-1.8 0-2.7-1.7-3.5-3-.8-1.5-1.4-2.3-2.4-2.3s-1.6.8-2.4 2.3c-.8 1.3-1.7 3-3.5 3a.7.7 0 010-1.4c1 0 1.6-.9 2.4-2.3.7-1.4 1.6-3 3.5-3zM497 544.4h-2.5c-2.2 0-4 1.5-4 3.3v19.2H501v-19.2c0-1.8-1.8-3.3-4-3.3z" fill="#FFF"/><path d="M492.5 547.7a.9.9 0 01-.8-.4L476.6 524a.9.9 0 111.4-1l15.2 23.3a.9.9 0 01-.7 1.4zM499 547.7a.9.9 0 01-.7-1.4l15.1-23.2a.9.9 0 111.5 1l-15.2 23.2c-.1.2-.4.4-.7.4z" fill="#FFF"/><g fill="#AC7DFD"><path d="M533 461a3 3 0 00-5.3-3l-8.3 14.3a3 3 0 001.2 4.1 3 3 0 004.1-1L533 461zM557.2 487.5a3 3 0 00-3-5.3l-14.3 8.3a3 3 0 00-1.1 4v.1a3 3 0 004.1 1.1l14.3-8.2zM565 516.4h-16.6a3 3 0 00-3 3v.1a3 3 0 003 3H565a3 3 0 100-6zM554.2 556.7a3 3 0 003-5.2l-14.3-8.3a3 3 0 00-4.1 1.1 3 3 0 001 4.2l14.4 8.2zM434.2 551.5a3 3 0 103 5.2l14.4-8.2a3 3 0 001.1-4.1 3 3 0 00-4.1-1.2l-14.4 8.3zM446 519.4a3 3 0 00-3-3h-16.5a3 3 0 000 6.1H443a3 3 0 003-3zM437.3 482.2a3 3 0 00-3 5.3l14.3 8.2a3 3 0 004-1l.1-.1a3 3 0 00-1.1-4.1l-14.3-8.3zM463.7 458a3 3 0 00-5.2 3l8.2 14.3a3 3 0 004.1 1.1 3 3 0 001.2-4.1l-8.3-14.3zM495.8 469.8a3 3 0 003-3v-16.6a3 3 0 10-6.1 0v16.6a3 3 0 003 3z"/></g></g><g><path fill="#FF73B7" d="M1147.2 18.3l-9.3-.6-3.7 9-6.9 2.3-8.5-4.6-6.9 6.1 3.7 9-3.2 6.5-9.3 2.7-.5 9.3 9 3.7 2.3 6.9-4.6 8.5 6.1 6.9 9-3.7 6.5 3.2 2.7 9.3 9.3.5 3.7-8.9 6.9-2.4 8.5 4.6 6.9-6.1-3.7-9 3.2-6.5 9.3-2.7.5-9.3-9-3.7-2.3-6.9 4.6-8.4-6.1-7-9 3.7-6.5-3.2z"/><path fill="#AACEF2" d="M1108 42l-3.5-10.1h-11.2l-5.6-6.3 1.2-11.1-9.6-4.7-7.9 7.9-8.4-.5-7-8.7-10 3.5v11.2l-6.4 5.5-11-1.2-4.7 9.6 7.9 8-.5 8.4-8.7 7 3.5 10h11.1l5.6 6.3-1.2 11.1 9.6 4.7 8-7.9 8.3.5 7 8.7 10-3.5.2-11.2 6.2-5.5 11.1 1.2 4.6-9.6-7.8-8 .5-8.4z"/><path d="M1042.3 49.9a23 23 0 1046 2.6 23 23 0 00-46-2.6zM1119.3 54.3a21.2 21.2 0 1042.2 2.4 21.2 21.2 0 00-42.2-2.4z" fill="#FFF"/><path d="M1048 50.2a17.4 17.4 0 1034.6 2 17.4 17.4 0 00-34.7-2zM1124.6 54.6a15.8 15.8 0 1031.6 1.8 15.8 15.8 0 00-31.6-1.8z" fill="#9082B5"/></g><g fill="#FD9ECC" fill-rule="nonzero"><path d="M1315.5 1046.1v-5.6l17.7-.3.2 5.6-18 .3zm-18 0l-18-.6.4-5.6 17.8.5-.2 5.6zm53.9-1l-.5-5.6 17.7-1.1.7 5.6-17.9 1.1zm-89.8-.5c-6-.3-12-.8-17.9-1.3l.9-5.6c5.8.5 11.7 1 17.6 1.3l-.6 5.6zm125.6-2.2l-1-5.6c5.9-.5 11.8-1.2 17.6-1.9l1.2 5.6-17.8 2zm-161.3-.8l-17.8-2.2 1.3-5.5a770 770 0 0017.5 2l-1 5.7zm196.8-3.5l-1.4-5.5 17.3-2.8 1.7 5.6c-5.8 1-11.8 1.9-17.6 2.7zm-232.2-1.2l-17.6-3 1.7-5.5 17.4 3-1.5 5.5zm267.3-4.7l-1.9-5.5 17.1-3.5 2.1 5.4c-5.7 1.3-11.6 2.5-17.3 3.6zm-302.3-1.6l-17.3-3.8 2.2-5.4a726 726 0 0017 3.7l-1.9 5.5zm336.8-6l-2.3-5.4c5.6-1.3 11.3-2.8 16.8-4.3l2.5 5.4c-5.6 1.5-11.3 3-17 4.3zm-371.2-2c-5.7-1.4-11.4-3-17-4.5l2.6-5.3a710 710 0 0016.8 4.5l-2.4 5.3zm405-7.1l-2.6-5.3a687 687 0 0016.4-5l3 5.1-16.7 5.2zm-438.8-2.4c-5.5-1.7-11.1-3.5-16.6-5.4l3-5.1 16.4 5.3-2.8 5.2zm471.9-8.3l-3.1-5.1 16-5.9 3.3 5-16.2 6zm-504.9-2.8c-5.4-2-10.8-4-16-6.1l3.4-5 15.9 6-3.3 5.1zm537-9.4l-3.6-5a666 666 0 0015.5-6.5l3.7 4.9-15.6 6.6zm-569-3.2a675 675 0 01-15.5-6.9l3.8-4.8 15.4 6.8-3.6 4.9zm-30.8-14c-5-2.5-10.1-5-15-7.6l4.2-4.7 14.8 7.5-4 4.7zm-29.7-15.5l-14.4-8.3 4.6-4.4c4.6 2.7 9.4 5.5 14.2 8.1l-4.4 4.6zM933.4 943l-13.7-8.9 5-4.2c4.3 3 8.9 5.9 13.4 8.7l-4.7 4.4zm-27-18l-13-9.6 5.3-4 12.8 9.4-5.1 4.1zm-25.5-19.4c-4-3.3-8.2-6.6-12.1-10l5.5-3.8 12 10-5.4 3.8zm-23.8-20.4c-3.9-3.5-7.7-7-11.4-10.6l5.9-3.5 11.2 10.5-5.7 3.6zm-22.2-21.5c-3.6-3.6-7-7.3-10.5-11l6.2-3.3c3.3 3.7 6.8 7.4 10.3 11l-6 3.3zm-20.4-22.4c-3.3-3.8-6.5-7.7-9.5-11.6l6.3-3c3 4 6.2 7.7 9.4 11.5l-6.2 3zM795.9 818c-2.9-4-5.8-8-8.5-12l6.6-2.6c2.7 4 5.5 8 8.4 11.9L796 818zm1070.5-68.5l-7-1.9c2-4.2 3.8-8.5 5.6-12.8l7.1 1.8c-1.8 4.3-3.7 8.7-5.7 13zm11-26l-7.2-1.6 4.6-13 7.2 1.4c-1.5 4.4-3 8.8-4.7 13.2zm8.7-26.5l-7.3-1.2 3.6-13.2 7.3 1c-1.1 4.5-2.3 9-3.6 13.4zm6.6-26.9l-7.3-.8c.9-4.4 1.7-9 2.4-13.4l7.4.7c-.7 4.5-1.6 9-2.5 13.5zm4.4-27l-7.4-.6 1.4-13.4 7.4.3c-.4 4.5-.8 9.1-1.4 13.6zm2.2-27.3l-7.4-.2c.2-4.5.2-9 .2-13.5h7.5l-.3 13.7zm-7.2-14.4c0-4.5 0-9-.3-13.5l7.5-.2c.2 4.5.3 9.1.3 13.7h-7.5zm-1.1-27c-.4-4.5-.8-9-1.4-13.4l7.4-.6c.6 4.5 1 9.1 1.4 13.7l-7.4.3zm-3.3-26.8c-.7-4.5-1.6-9-2.5-13.4l7.4-.9 2.5 13.6-7.4.7zm-5.5-26.7a361 361 0 00-3.6-13.2l7.3-1.2c1.3 4.4 2.5 9 3.6 13.4l-7.3 1zm-7.7-26.3c-1.4-4.4-3-8.7-4.6-13l7.1-1.6c1.7 4.3 3.3 8.8 4.7 13.2l-7.2 1.4zm-9.8-26c-1.8-4.2-3.7-8.5-5.7-12.7l7-1.9c2 4.3 4 8.6 5.8 13l-7 1.7zm-11.9-25.3c-2.1-4.2-4.4-8.3-6.7-12.5l6.8-2.2c2.4 4.2 4.7 8.4 6.8 12.6l-6.9 2zm-14-24.7l-7.6-12.1 6.6-2.6c2.7 4 5.3 8.2 7.8 12.3l-6.7 2.4zm-15.8-24c-2.8-4-5.8-8-8.7-11.8l6.4-2.8 8.8 11.8-6.5 2.7zm-17.9-23.3c-3.1-3.8-6.3-7.6-9.6-11.3l6.2-3.2a454 454 0 019.7 11.5l-6.3 3zm-19.7-22.4c-3.4-3.7-7-7.3-10.5-10.9l5.9-3.4 10.7 11-6.1 3.3zm-21.5-21.4c-3.7-3.5-7.5-7-11.4-10.4l5.7-3.7c3.9 3.4 7.7 7 11.5 10.5l-5.8 3.6zm-23.2-20.5l-12.2-9.8 5.3-4 12.4 10-5.5 3.8zm-24.8-19.3a584 584 0 00-13-9.2l5-4.2c4.5 3 9 6.2 13.2 9.4l-5.2 4zm-26.3-18.1c-4.5-3-9-5.8-13.7-8.6l4.7-4.4 13.9 8.7-4.9 4.3zm-27.7-16.9l-14.3-8 4.3-4.6 14.5 8.1-4.5 4.5zm-29-15.6l-15-7.2 4-4.9 15.1 7.4-4.1 4.7zm-30.2-14.2l-15.6-6.6 3.6-5a668 668 0 0115.7 6.7l-3.7 5zm-561.7-9.3l-3.5-5 16-6.1 3.3 5.1-15.8 6zm530.3-3.5c-5.3-2-10.7-4-16-5.8l3.1-5.2 16.3 6-3.4 5zM1073 202l-3-5.1a706 706 0 0116.4-5.4l2.8 5.3c-5.4 1.6-10.9 3.4-16.2 5.2zm466.1-3l-16.5-5.2 2.7-5.2a693 693 0 0116.7 5.1l-2.9 5.2zm-433.3-7.2l-2.6-5.3a719 719 0 0116.9-4.5l2.4 5.3-16.7 4.5zm400.1-2.7a696 696 0 00-16.9-4.3l2.3-5.4 17.1 4.4-2.5 5.3zm-366.5-6l-2.2-5.3a752 752 0 0117.3-3.8l2 5.4a727 727 0 00-17.1 3.8zm332.7-2.2l-17.2-3.5 1.8-5.5c5.8 1.1 11.7 2.3 17.4 3.6l-2 5.4zm-298.5-4.8l-1.7-5.5 17.5-3 1.6 5.5a753 753 0 00-17.4 3zm264-1.8c-5.7-1-11.6-1.9-17.3-2.7l1.3-5.6 17.6 2.8-1.6 5.5zm-229.2-3.7l-1.3-5.6 17.7-2.1 1.1 5.6c-5.8.6-11.7 1.3-17.5 2.1zm194.4-1.3l-17.6-2 1-5.5c5.8.5 11.8 1.2 17.7 1.9l-1.1 5.6zm-159.3-2.6l-.8-5.6c5.9-.5 11.9-1 17.9-1.3l.6 5.6-17.7 1.3zm124-.8l-17.6-1.1.4-5.7 18 1.1-.7 5.7zm-88.6-1.4l-.4-5.7 18-.5.1 5.6-17.7.6zm53.2-.4l-17.7-.3v-5.6c6 0 12 0 18 .3l-.3 5.6z"/></g><g fill="#CDE2FF"><path d="M1756.7 129.3h-294.1s23.4-167.6 86.7-59.8c0 0 53.9-147.6 110.1 8.2 0 0 97.3-32.8 97.3 51.6z"/></g><g fill="#CDE2FF"><path d="M2342.2 407.3h-294.1s23.4-167.6 86.7-59.8c0 0 53.9-147.6 110.1 8.2 0 0 97.3-32.8 97.3 51.6z"/></g><g fill="#CDE2FF"><path d="M359.7 716.2H65.5s23.5-167.6 86.7-59.8c0 0 54-147.6 110.2 8.2 0 0 97.3-32.8 97.3 51.6z"/></g></g></svg>