<?xml version="1.0" encoding="UTF-8"?>
<svg width="2414px" height="1599px" viewBox="0 0 2414 1599" version="1.1" xmlns="http://www.w3.org/2000/svg" xmlns:xlink="http://www.w3.org/1999/xlink">
    <!-- Generator: Sketch 52.6 (67491) - http://www.bohemiancoding.com/sketch -->
    <title>Business</title>
    <desc>Created with Sketch.</desc>
    <defs>
        <path d="M203.768,1293.709 L2309.896,1293.709 C2351.715,1203.268 2402.808,1062.471 2410.973,885.123 C2416.857,757.313 2421.973,646.154 2352.002,590.267 C2261.56,518.032 2274.529,286.841 2111.902,274.35 C1798.352,250.267 1610.058,40.224 1282.094,4.768 C970.394,-28.932 366.76,167.801 296.434,417.568 C288.616,445.332 561.603,729.041 509.853,764.374 C412.177,831.065 303.676,722.457 174.279,771.394 C80.012,807.045 -6.971,919.362 1.579,1045.188 C9.115,1156.024 89.231,1254.689 203.768,1293.709 Z" id="path-1"></path>
        <polygon id="path-3" points="165.681 0 102.501 99.689 0.001 164.276 23.168 205.696 129.176 136.196 192.359 18.254"></polygon>
        <path d="M157.664,59.18 C156.723,64.249 142.051,146.331 163.814,243.338 C163.814,243.338 81.437,216.422 0.001,238.648 C0.001,238.648 42.123,187.175 31.831,151.596 C21.539,116.017 -43.063,37.405 70.201,10.264 L144.701,0 C144.701,0 157.701,59.013 157.664,59.18 Z" id="path-5"></path>
        <path d="M333.229,21.061 C333.229,21.061 249.448,122.154 244.309,125.426 C239.17,128.698 157.72,166.607 157.72,166.607 C157.72,166.607 157.706,166.691 157.664,166.86 C156.723,171.929 142.051,254.011 163.814,351.018 C163.814,351.018 81.437,324.102 0.001,346.328 C0.001,346.328 42.123,294.855 31.831,259.276 C21.539,223.697 -43.062,145.083 70.204,117.942 L144.704,107.678 L228.864,83.303 L314.512,0.003 L333.229,21.061 Z" id="path-7"></path>
    </defs>
    <g id="ðŸž-Scenes" stroke="none" stroke-width="1" fill="none" fill-rule="evenodd">
        <g id="Business" transform="translate(-794.000000, -401.000000)">
            <g transform="translate(792.000000, 400.000000)" id="Teamwork">
                <g transform="translate(0.516000, 0.515000)">
                    <g id="Background-4" transform="translate(1.000000, 125.000000)" fill="#E3EEFF">
                        <path d="M203.253,1290.897 L2309.381,1290.897 C2351.2,1200.456 2402.293,1059.659 2410.458,882.311 C2416.342,754.501 2421.458,643.342 2351.487,587.455 C2261.045,515.22 2139.223,663.129 1976.599,650.638 C1663.049,626.555 1609.546,37.411 1281.582,1.956 C969.882,-31.744 652.682,388.236 582.353,638.002 C574.535,665.766 561.091,726.227 509.341,761.561 C411.665,828.252 303.164,719.644 173.767,768.581 C79.5,804.232 -7.483,916.549 1.067,1042.375 C8.6,1153.209 88.716,1251.878 203.253,1290.897 Z" id="Path_1119"></path>
                    </g>
                    <g id="Plants" transform="translate(0.484000, 122.189000)">
                        <g id="Group_611-Clipped">
                            <mask id="mask-2" fill="white">
                                <use xlink:href="#path-1"></use>
                            </mask>
                            <g id="Path_1129"></g>
                            <g id="Group_611" mask="url(#mask-2)">
                                <g transform="translate(83.000000, 417.000000)">
                                    <g id="Plant-5" stroke-width="1" fill="none" transform="translate(0.410000, 103.835000)">
                                        <path d="M632.108,765.837 C641.308,762.424 619.988,584.358 490.524,423.726 C449.166,372.411 369.824,273.968 277.13,283.542 C252.257,286.111 212.286,297.918 203.413,325.055 C193.146,356.455 227.664,398.776 261.65,419.51 C304.957,445.929 330.503,426.985 355.578,452.462 C384.12,481.462 356.823,511.906 387.087,560.119 C411.654,599.258 453.936,617.895 469.873,624.919 C496.273,636.556 505.355,634.089 524.824,641.119 C602.355,669.103 625.105,768.435 632.108,765.837 Z" id="Path_1120" fill="#AACEF2"></path>
                                        <path d="M629.11,768.639 C636.194,757.184 487.703,609.339 273.488,572.539 C141.551,549.872 78.088,585.375 55.588,600.269 C46.602,606.219 -4.985,640.379 1.569,670.011 C8.314,700.511 75.913,722.931 124.139,703.599 C168.058,685.999 167.87,644.999 200.9,640.969 C238.782,636.344 250.235,688.899 310.328,713.39 C360.702,733.92 382.837,709.29 457.142,713.363 C563.91,719.212 624.635,775.876 629.11,768.639 Z" id="Path_1121" fill="#AACEF2"></path>
                                        <path d="M639.637,769.245 C656.437,770.909 741.045,522.309 664.454,260.903 C617.28,99.903 542.354,48.022 513.193,30.903 C501.545,24.067 434.672,-15.182 404.928,8.522 C374.318,32.915 386.32,121.36 434.648,164.996 C478.66,204.734 524.701,181.939 547.437,216.896 C573.512,256.99 520.666,298.835 526.205,379.971 C530.847,447.984 570.763,459.333 607.118,545.218 C659.35,668.615 629.021,768.193 639.637,769.245 Z" id="Path_1122" fill="#AACEF2"></path>
                                    </g>
                                    <g id="Plant-6" stroke-width="1" fill="none" transform="translate(1545.501000, 0.373000)">
                                        <path d="M202.589,895.993 C190.122,876.812 220.898,826.81 260.156,800.516 C297.468,775.525 319.456,787.342 362.656,766.816 C410.292,744.182 435.144,705.296 459.537,667.127 C516.079,578.653 490.295,543.417 535.357,502.85 C579.972,462.688 661.725,446.384 710.866,484.597 C736.236,504.324 759.18,543.453 748.776,582.882 C739.043,619.77 686.591,603.072 630.834,653.082 C619.186,663.531 591.184,689.234 577.479,730.306 C561.585,777.939 581.343,797.026 566.246,822.975 C546.811,856.381 499.572,849.652 407.586,862.289 C271.665,880.966 216.506,917.407 202.589,895.993 Z" id="Path_1123" fill="#FD9ECC"></path>
                                        <path d="M355.633,427.033 C336.327,529.909 377.312,569.223 359.845,640.452 C341.945,713.452 250.327,706.261 226.458,789.284 C221.445,806.708 221.108,819.738 209.609,838.427 C188.927,872.069 153.642,889.058 123.581,898.212 C120.262228,899.221137 116.69217,899.011905 113.514,897.622 C113.211164,897.49877 112.915675,897.358204 112.629,897.201 C109.587614,895.650742 107.187279,893.081583 105.847,889.942 C97.352,870.042 90.781,844.281 97.282,817.365 C106.212,780.424 132.426,771.677 156.253,738.737 C168.707,721.509 178.999,699.788 187.143,551.995 C194.318,421.725 187.343,420.433 198.376,386.314 C220.576,317.725 247.505,326.964 284.025,245.907 C321.247,163.277 302.925,132.207 347.208,68.994 C362.246,47.54 399.173,-5.183 437.069,1.594 C437.364,1.65 437.669,1.706 437.969,1.777 C438.32,1.833 438.669,1.917 439.022,2.002 C470.81,9.415 492.922,56.943 496.042,97.072 C500.816,158.372 459.662,181.232 403.373,300.663 C376.75,357.138 363.453,385.388 355.633,427.033 Z" id="Path_1124" fill="#FD9ECC"></path>
                                        <path d="M439.021,2.005 C438.845273,31.3543815 436.106197,60.6323216 430.835,89.505 C422.635,134.127 408.145,177.751 386.607,217.767 L382.549,225.251 C381.103,227.694 379.601,230.095 378.126,232.524 L373.689,239.797 L368.929,246.86 C367.314,249.191 365.784,251.592 364.113,253.88 L359.087,260.746 C355.787,265.379 352.207,269.788 348.753,274.295 C334.726,292.113 320.124,309.565 308.61,329.124 C297.027,348.624 289.178,370.124 283.744,392.097 C278.409,414.113 275.685,436.817 276.695,459.464 C277.166396,470.780877 278.400194,482.053101 280.388,493.204 C282.34,504.366 284.937,515.417 287.703,526.41 C290.469,537.403 293.403,548.384 295.692,559.504 C298.137289,570.616701 299.551953,581.931332 299.918,593.304 C300.156037,604.693047 298.823845,616.060588 295.959,627.086 C293.048681,638.090485 288.903697,648.730706 283.603,658.804 C280.972926,663.845095 278.076499,668.742684 274.926,673.476 C271.738527,678.186448 268.283521,682.710209 264.578,687.025 C260.857333,691.321667 256.930667,695.426333 252.798,699.339 C248.656,703.228 244.373,706.963 240.021,710.6 C231.288,717.859 222.288,724.781 213.653,732.11 C204.95165,739.382177 196.707944,747.185044 188.969,755.474 C173.524,772.084 160.719,790.997 149.894,810.893 C134.870694,838.500803 122.681844,867.559049 113.514,897.623 C109.442,910.975667 105.975333,924.487667 103.114,938.159 L102.693,938.075 C105.389,924.315 108.702667,910.690667 112.634,897.202 C121.421307,866.964337 133.248316,837.694331 147.934,809.84 C158.647,789.72 171.452,770.512 186.953,753.593 C194.702946,745.163692 202.965291,737.220286 211.693,729.808 C220.356,722.352 229.314,715.346 237.921,708.087 C242.221,704.436 246.416,700.73 250.46,696.868 C254.475333,692.992667 258.289667,688.944333 261.903,684.723 C265.486822,680.489811 268.83745,676.064592 271.94,671.467 C275.005967,666.837195 277.82264,662.047049 280.378,657.117 C285.510191,647.27652 289.522921,636.891657 292.341,626.157 C295.080723,615.450917 296.342098,604.420201 296.09,593.372 C295.687297,582.243819 294.268057,571.175756 291.85,560.306 C289.55,549.34 286.599,538.417 283.805,527.395 C281.011,516.373 278.343,505.225 276.335,493.922 C274.279864,482.592987 272.994588,471.13776 272.488,459.635 C271.519,436.566 274.388,413.455 279.845,391.158 C285.405,368.903 293.465,347.014 305.315,327.188 C317.081,307.32 331.894,289.741 345.893,272.036 C359.892,254.331 372.922,235.936 383.747,216.21 L387.833,208.825 C389.125,206.325 390.304,203.77 391.54,201.243 L395.233,193.643 C395.833,192.365 396.497,191.116 397.045,189.824 L398.688,185.935 L405.259,170.35 L411.128,154.47 C418.550295,133.132478 424.411413,111.283549 428.665,89.096 C434.321243,60.3187617 437.436238,31.0999149 437.974,1.777 C438.319,1.836 438.67,1.92 439.021,2.005 Z" id="Path_1125" fill="#FFFFFF"></path>
                                        <path d="M114.132,778.051 C110.06,832.332 136.667,868.6 116.94,886.165 C112.25,890.365 106.086,892.441 99.473,893.087 C98.996,893.129 98.532,893.171 98.073,893.199 C87.573,893.915 76.155,891.177 67.801,887.569 C7.187,861.411 5.011,745.407 4.618,724.696 C3.144,645.983 28.557,638.486 29.891,559.015 C31.155,483.897 8.717,474.869 1.809,396.142 C-6.644,300.019 15.429,183.818 50.009,168.752 C50.444,168.552 50.865,168.387 51.301,168.232 C52.5528515,167.785438 53.8463194,167.465505 55.162,167.277 C87.175,162.882 135.854,243.195 146.427,320.321 C157.084,398.036 121.055,414.352 132.386,498.638 C142.229,571.832 172.964,585.999 171.7,644.662 C170.351,707.669 119.102,711.807 114.132,778.051 Z" id="Path_1126" fill="#AACEF2"></path>
                                        <path d="M125.505,923.92 L125.224,924.229 C115.219752,914.759663 106.128069,904.370603 98.069,893.199 C95.794,890.068 93.604,886.853 91.498,883.599 C81.7703211,868.780162 73.7842218,852.888831 67.698,836.24 C61.6520694,819.515007 57.6402437,802.123378 55.749,784.44 C54.6140266,775.491046 54.6658076,766.431395 55.903,757.496 C57.2412635,748.56978 59.6405806,739.835285 63.05,731.478 C69.691,714.812 78.593,699.648 84.518,683.431 C90.5530456,667.276826 93.6901454,650.184422 93.785,632.94 C93.8919657,624.348224 93.3191795,615.761447 92.072,607.26 C90.6461088,598.802265 88.3884874,590.506009 85.332,582.492 C82.341,574.362 78.986,566.149 76.121,557.692 C73.2691987,549.223061 70.8878967,540.602901 68.988,531.871 C68.146,527.49 67.205,523.124 66.588,518.715 L65.563,512.115 L64.791,505.488 L64.033,498.861 C63.752,496.661 63.696,494.424 63.513,492.206 L63.078,485.537 C62.91,483.305 62.966,481.072 62.896,478.837 C62.540424,461.004978 64.0462417,443.184515 67.389,425.665 C70.576,408.198 74.929,391.153 78.004,373.995 C81.1966482,356.86869 83.0230654,339.51572 83.466,322.1 C83.8080265,304.660521 82.6995419,287.222794 80.152,269.967 C77.5553729,252.673413 73.6834821,235.595514 68.568,218.873 C63.4806325,202.102324 57.4091022,185.646116 50.385,169.59 L50.006,168.747 C50.441,168.547 50.862,168.382 51.298,168.227 L51.663,169.013 C58.9647709,185.023715 65.3128624,201.45242 70.674,218.213 C76.012335,234.991829 80.0903388,252.145852 82.874,269.532 C85.6142211,286.931843 86.9009991,304.529626 86.721,322.143 C86.4926164,339.751367 84.7734738,357.308766 81.582,374.627 C78.535,391.967 74.253,409.041 71.15,426.339 C67.9157933,443.615079 66.4947517,461.181701 66.91,478.753 C66.98,480.943 66.938,483.134 67.11,485.324 L67.573,491.895 C67.755,494.085 67.826,496.276 68.107,498.466 L68.879,504.995 L69.665,511.538 L70.704,518.038 C71.322,522.391 72.263,526.673 73.104,530.984 C74.9529157,539.564375 77.2636101,548.038702 80.026,556.37 C82.806,564.696 86.12,572.854 89.126,581.124 C92.2391991,589.381261 94.5250722,597.927157 95.95,606.636 C97.2148774,615.361429 97.7736904,624.174689 97.621,632.99 C97.4646601,650.663596 94.1848487,668.170368 87.933,684.702 C84.872,692.958 81.109,700.933 77.248,708.838 C73.387,716.743 69.399,724.578 66.086,732.707 C62.6956776,740.801819 60.2823203,749.271901 58.897,757.938 C57.6081464,766.624935 57.4759965,775.444349 58.504,784.166 C60.2091128,801.666558 64.0027608,818.900127 69.804,835.499 C75.5789479,852.108955 83.2538467,867.995982 92.676,882.844 C94.838,886.326 97.1046667,889.738 99.476,893.08 C102.176,896.913 104.994,900.648 107.914,904.327 C113.384077,911.200943 119.258113,917.743492 125.505,923.92 Z" id="Path_1127" fill="#FFFFFF"></path>
                                    </g>
                                    <path d="M1781.625,906.06 C1799.54992,882.530857 1821.38949,862.261184 1846.188,846.138 C1871.244,830.389 1899.605,819.459 1929.132,815.33 C1936.494,814.259 1943.896,813.558 1951.272,813.07 C1958.648,812.582 1966.001,812.356 1973.265,811.912 C1980.45069,811.571337 1987.60505,810.744445 1994.679,809.437 C1998.14672,808.773478 2001.56657,807.880515 2004.916,806.764 C2011.57588,804.562548 2017.8734,801.38784 2023.604,797.343 C2024.99,796.287 2026.47,795.343 2027.75,794.166 L2029.732,792.478 C2030.399,791.922 2030.975,791.272 2031.602,790.678 C2036.55484,785.808391 2040.59711,780.092452 2043.538,773.8 C2049.584,761.17 2051.763,746.755 2053.475,732.347 C2055.233,717.889 2056.452,703.147 2058.907,688.482 C2061.21218,673.704842 2065.12231,659.223204 2070.568,645.294 C2076.1832,631.407116 2083.4843,618.263203 2092.307,606.158 C2094.507,603.142 2096.877,600.258 2099.155,597.301 L2100.885,595.101 L2102.743,593.013 L2106.479,588.853 C2107.735,587.478 2108.958,586.072 2110.245,584.726 L2114.24,580.826 L2118.233,576.926 L2120.233,574.979 L2122.339,573.155 L2130.772,565.876 C2133.611,563.488 2136.633,561.33 2139.553,559.048 L2143.969,555.67 C2145.433,554.536 2147.013,553.563 2148.529,552.503 L2157.715,546.265 C2159.22,545.188 2160.843,544.297 2162.415,543.324 L2167.162,540.46 L2171.908,537.597 C2173.491,536.644 2175.059,535.665 2176.708,534.827 L2186.469,529.597 L2191.348,526.982 C2192.97,526.103 2194.667,525.373 2196.331,524.582 C2209.622,518.182 2223.201,512.438 2236.964,507.23 L2247.33,503.448 C2250.793,502.211 2254.212,500.855 2257.737,499.803 L2278.772,493.203 L2278.901,493.603 C2250.988,502.682 2223.54,513.33 2197.333,526.565 C2195.696,527.391 2194.018,528.139 2192.415,529.028 L2187.595,531.684 L2177.956,536.994 C2176.329,537.846 2174.784,538.835 2173.226,539.801 L2168.546,542.701 L2163.869,545.601 C2162.32,546.584 2160.72,547.486 2159.241,548.573 L2150.21,554.859 C2148.72,555.927 2147.166,556.909 2145.73,558.049 L2141.401,561.441 C2138.538,563.732 2135.574,565.9 2132.801,568.291 L2124.558,575.574 C2113.75351,585.497168 2103.94703,596.45482 2095.279,608.29 C2086.68483,620.185385 2079.58496,633.091768 2074.139,646.719 C2068.85829,660.405721 2065.08566,674.627429 2062.888,689.132 C2060.524,703.611 2059.374,718.257 2057.666,732.852 C2056.791,740.146 2055.749,747.436 2054.166,754.631 C2052.66069,761.856714 2050.31333,768.881004 2047.172,775.56 C2044.0033,782.252446 2039.66562,788.325662 2034.363,793.494 C2033.692,794.127 2033.07,794.815 2032.363,795.405 L2030.248,797.192 C2028.875,798.433 2027.313,799.429 2025.839,800.538 C2019.78356,804.772866 2013.13446,808.087811 2006.108,810.375 C2002.60569,811.525459 1999.03125,812.443455 1995.408,813.123 C1988.16518,814.430923 1980.84209,815.24679 1973.489,815.565 C1958.819,816.341 1944.122,816.594 1929.581,818.594 C1900.463,822.316 1872.381,832.77 1847.37,848.05 C1834.88126,855.762323 1823.11656,864.589701 1812.22,874.424 C1801.34843,884.288062 1791.23486,894.95654 1781.965,906.339 L1781.625,906.06 Z" id="Path_1128" fill="#FFFFFF"></path>
                                </g>
                            </g>
                        </g>
                    </g>
                    <g id="Computer" transform="translate(678.000000, 392.000000)">
                        <polygon id="Path_1134" fill="#404884" points="635.472 973.35 635.472 765.55 427.664 765.55 427.664 973.35 322.364 1015.472 740.778 1015.472"></polygon>
                        <path d="M24.331,0.327 L1065.488,0.327 C1078.46669,0.327 1088.988,10.8483084 1088.988,23.827 L1088.988,782.766 C1088.988,795.744692 1078.46669,806.266 1065.488,806.266 L24.331,806.266 C11.3523084,806.266 0.831,795.744692 0.831,782.766 L0.831,23.827 C0.831,10.8483084 11.3523084,0.327 24.331,0.327 Z" id="Path_1647" fill="#404884"></path>
                        <path d="M42.147,22.792 L1047.672,22.792 C1061.4018,22.792 1072.532,33.9222011 1072.532,47.652 L1072.532,736.475 C1072.532,750.204799 1061.4018,761.335 1047.672,761.335 L42.147,761.335 C28.4172011,761.335 17.287,750.204799 17.287,736.475 L17.287,47.652 C17.287,33.9222011 28.4172011,22.792 42.147,22.792 Z" id="Path_1648" fill="#FFFFFF"></path>
                    </g>
                    <g id="Note" transform="translate(996.000000, 328.000000)">
                        <path d="M658.609,85.392 C658.609,85.392 662.382,3.956 605.799,3.956 L153.137,3.956 C153.137,3.956 199.66,36.25 190.859,85.392 L658.609,85.392 Z" id="Path_1135" fill="#353B6E"></path>
                        <path d="M94.224,2.547 C151.791,2.547 507.024,-0.261 561.781,1.147 L563.845,1.202 C580.888,1.661 592.671,1.147 591.267,3.955 C579.967,26.555 560.167,95.992 558.973,164.019 C556.679,294.819 561.885,488.435 563.865,554.863 C564.047281,560.995083 561.738081,566.939529 557.464089,571.340513 C553.190097,575.741496 547.315791,578.223709 541.181,578.221 L81.381,578.221 C69.0125718,578.22422 58.9205089,568.320299 58.691,555.954 C57.091,469.281 51.876,156.559 59.118,102.24 C67.546,39.053 75.971,2.547 94.224,2.547 Z" id="Path_1136" fill="#AC7DFD"></path>
                        <path d="M0.149,496.782 C0.149,496.782 -3.906,578.222 56.92,578.222 L543.527,578.222 C543.527,578.222 493.515,545.928 502.977,496.786 L0.149,496.782 Z" id="Path_1137" fill="#D9C7FF"></path>
                        <g id="Group_623" transform="translate(127.922000, 69.241000)" fill="#FFFFFF">
                            <g id="Group_615">
                                <rect id="Rectangle_265" x="0" y="0" width="353.827" height="4.212"></rect>
                            </g>
                            <g id="Group_616" transform="translate(0.000000, 54.057000)">
                                <rect id="Rectangle_266" x="0" y="0" width="353.827" height="4.212"></rect>
                            </g>
                            <g id="Group_617" transform="translate(0.000000, 108.114000)">
                                <rect id="Rectangle_267" x="0" y="0" width="353.827" height="4.212"></rect>
                            </g>
                            <g id="Group_618" transform="translate(0.000000, 162.171000)">
                                <rect id="Rectangle_268" x="0" y="0" width="353.827" height="4.212"></rect>
                            </g>
                            <g id="Group_619" transform="translate(0.000000, 216.227000)">
                                <rect id="Rectangle_269" x="0" y="0" width="353.827" height="4.212"></rect>
                            </g>
                            <g id="Group_620" transform="translate(0.000000, 270.284000)">
                                <rect id="Rectangle_270" x="0" y="0" width="353.827" height="4.212"></rect>
                            </g>
                            <g id="Group_621" transform="translate(0.000000, 324.341000)">
                                <rect id="Rectangle_271" x="0" y="0" width="353.827" height="4.212"></rect>
                            </g>
                            <g id="Group_622" transform="translate(0.000000, 378.398000)">
                                <rect id="Rectangle_272" x="0" y="0" width="353.827" height="4.212"></rect>
                            </g>
                        </g>
                        <rect id="Rectangle_278" fill="#AC7DFD" x="122.306" y="67.135" width="195.166" height="226.056"></rect>
                        <rect id="Rectangle_279" fill="#FFFFFF" x="139.277" y="86.792" width="161.224" height="186.742"></rect>
                        <g id="Group_636" transform="translate(141.774000, 92.435000)" fill="#9082B5">
                            <rect id="Rectangle_280" transform="translate(73.207242, 84.269176) rotate(-40.824935) translate(-73.207242, -84.269176) " x="71.1004366" y="-25.2726997" width="4.21361078" height="219.083751"></rect>
                        </g>
                        <g id="Group_637" transform="translate(141.771000, 91.437000)" fill="#9082B5">
                            <rect id="Rectangle_281" transform="translate(73.207242, 85.162824) rotate(-49.175065) translate(-73.207242, -85.162824) " x="-36.3346337" y="83.0560186" width="219.083751" height="4.21361078"></rect>
                        </g>
                    </g>
                    <g id="Person-7" transform="translate(1455.800000, 476.921000)">
                        <g id="Group_625" transform="translate(191.695000, 0.000000)">
                            <path d="M13.978,33.348 C13.978,33.348 -15.508,3.863 11.17,2.458 C37.848,1.053 84.182,-4.562 79.97,22.115 C75.758,48.792 74.354,59.557 64.525,60.493 C54.696,61.429 13.978,33.348 13.978,33.348 Z" id="Path_1142" fill="#423565"></path>
                            <g id="Group_624" transform="translate(7.295000, 16.910000)" fill="#FFD5C0">
                                <path d="M8.475,0 C8.475,0 -15.481,61.073 22.375,59.888 C45.837,59.155 55.348,42.059 55.348,42.059 C55.348,42.059 63.348,45.13 65.359,28.587 C66.552,18.757 54.541,12.703 53.031,28.128 C53.031,28.128 43.992,30.31 43.072,17.037 C42.152,3.764 35.247,3.92 27.665,5.76 C20.083,7.6 9.378,4.077 8.475,0 Z" id="Path_1143"></path>
                                <path d="M58.191,40.221 C58.191,40.221 61.04,66.96 68.462,79.621 C68.462,79.621 77.236,88.756 84.697,91.421 C93.773,94.669 48.097,166.462 34.889,142.675 C21.681,118.888 24.936,107.698 24.936,107.698 C24.936,107.698 36.207,92.472 35.773,90.147 C35.339,87.822 26.315,56.531 26.315,56.531 C26.315,56.531 27.831,26.745 58.191,40.221 Z" id="Path_1144"></path>
                            </g>
                        </g>
                        <path d="M473.851,863.156 L420.159,884.989 C420.141956,884.967634 420.127832,884.944093 420.117,884.919 C416.944,878.619 307.609,661.319 299.002,641.691 C256.094,543.743 260.137,380.154 260.137,380.154 L369.95,380.154 C398.27,452.829 365.738,606.21 365.738,606.21 C419.092,631.483 473.851,863.156 473.851,863.156 Z" id="Path_1145" fill="#353B6E"></path>
                        <path d="M294.13,898.258 C294.252,899.166 273.343,897.752 273.463,898.631 C274.909618,909.551394 277.150899,920.351719 280.169,930.946 L179.187,930.946 L234.051,899.308 C234.051,899.116 234.051,898.894 234.04,898.631 C233.84,878.577 225.54,662.901 217.56,628.001 C209.481,592.658 229.677,379.587 229.677,379.587 L350.293,378.749 C362.573,448.932 289.918,614.635 289.918,614.635 C327.828,682.031 291.434,877.39 294.13,898.258 Z" id="Path_1146" fill="#404884"></path>
                        <path d="M179.187,930.946 L234.051,899.308 C234.051,899.116 234.051,898.894 234.04,898.631 L273.464,898.631 C274.910618,909.551394 277.151899,920.351719 280.17,930.946 L179.187,930.946 Z" id="Path_1147" fill="#353B6E"></path>
                        <path d="M214.775,139.121 L267.661,96.531 C267.661,96.531 321.016,87.17 336.461,185.924 C351.906,284.678 370.161,380.154 370.161,380.154 L229.751,380.154 C229.751,380.154 242.388,304.334 229.751,277.654 C217.114,250.974 187.161,148.015 214.775,139.121 Z" id="Path_1148" fill="#808BD1"></path>
                        <path d="M139.496,158.586 L54.242,100.744 L54.206,100.755 C45.113,93.482 33.977,84.299 31.568,81.087 C27.356,75.471 16.123,54.41 11.911,60.026 C7.699,65.642 -4.938,88.107 2.082,95.126 C9.102,102.145 21.739,103.55 21.739,103.55 L32.92,115.319 L107.171,200.633 C117.04,209.543 134.525,181.726 141.883,168.777 C143.86567,165.27716 142.826678,160.841314 139.496,158.586 Z" id="Path_1149" fill="#FFD5C0"></path>
                        <path d="M291.531,130.229 C292.931,145.674 285.003,180.301 257.831,190.604 C218.631,205.47 194.197,218.026 165.38,225.977 C148.849,230.539 119.899,212.126 107.17,200.636 L145.296,162.522 C145.296,162.522 228.19,121.21 243.588,116.222 C258.986,111.234 289.359,106.336 291.531,130.229 Z" id="Path_1150" fill="#404884"></path>
                        <path d="M383.836,932.517 L420.188,885.059 C420.173545,885.038056 420.163976,885.014135 420.16,884.989 L456.638,870.078 L456.989,870.668 L478.752,907.268 L383.836,932.517 Z" id="Path_1151" fill="#353B6E"></path>
                        <path d="M130.062,151.29 C130.062,151.29 137.082,151.29 138.486,156.906 C138.486,156.906 144.102,155.506 145.506,162.522 L109,203.24 C109,203.24 97.767,201.84 100.576,196.22 C100.576,196.22 90.748,193.412 93.556,187.796 L130.062,151.29 Z" id="Path_1152" fill="#808BD1"></path>
                    </g>
                    <g id="Person-8" transform="translate(640.000000, 0.000000)">
                        <path d="M461.131,542.115 L461.086,542.177 L429.163,508.865 L408.103,529.926 L442.914,568.468 C444.746,572.145 450.784,583.002 461.299,590.004 L484.525,607.09 L493.639,594.703 L471.039,577.778 C471.039,577.778 510.31,571.771 524.408,552.609 L533.522,540.221 C533.522,540.221 502.539,560.98 461.131,542.115 Z" id="Path_1138" fill="#353B6E"></path>
                        <path d="M211.018,612.545 L218.551,587.493 L186.257,584.685 L179.27,612.632 C177.77,615.437 171.87,627.378 172.5,640.815 L172.5,669.649 L187.877,669.649 L188.117,641.416 C188.117,641.416 216.228,669.489 240.017,669.489 L255.394,669.489 C255.394,669.489 216.605,648.597 211.018,612.545 Z" id="Path_1139" fill="#353B6E"></path>
                        <path d="M314.029,340.376 C300.715,409.722 226.257,560.951 212.39,612.543 L172.447,600.343 C172.447,600.343 189.091,542.094 194.084,509.362 C199.077,476.63 218.492,400.629 231.807,372.89 C231.807,372.89 35.976,445.565 62.607,299.662 C62.605,299.658 327.343,271.03 314.029,340.376 Z" id="Path_1140" fill="#353B6E"></path>
                        <path d="M58.487,306.676 C58.487,306.676 45.963,389.528 81.467,393.41 C116.971,397.292 214.61,386.199 228.478,400.068 C242.346,413.937 294.495,468.858 344.424,499.924 C394.353,530.99 421.536,557.066 421.536,557.066 L455.377,530.991 C455.377,530.991 347.753,398.959 326.117,374.551 C304.481,350.143 284.357,310.301 246.632,308.082 C208.907,305.863 65.507,306.676 58.487,306.676 Z" id="Path_1141" fill="#808BD1"></path>
                        <path d="M128.697,0.632 C146.703,-1.102 161.249,13.002 163.197,14.945 C178.687,30.391 177.11,52.927 174.48,68.506 C170.971,89.296 189.342,93.119 197.427,110.015 C205.068,125.981 196.062,150.83 179.3,161.276 C156.253,175.641 124.361,159.156 108.32,144.122 C73.927,111.887 85.258,60.879 86.908,53.978 C88.636,46.746 98.976,3.494 128.697,0.632 Z" id="Path_1153" fill="#353B6E"></path>
                        <path d="M157.188,25.289 C157.188,25.289 179.688,88.533 147.263,84.109 C128.258,81.515 118.858,64.032 118.858,64.032 C118.858,64.032 109.967,65.725 107.866,54.849 C106.466,47.607 116.105,40.949 119.49,54.042 C119.49,54.042 123.325,54.086 126.62,45.472 C128.683,40.082 129.406,33.123 136.969,34.79 C144.532,36.457 156.378,29.355 157.188,25.289 Z" id="Path_1154" fill="#FFD5C0"></path>
                        <path d="M152.711,81.175 C152.711,81.175 135.311,106.133 138.678,120.557 C142.045,134.981 84.757,140.777 97.16,114.257 C109.563,87.737 118.76,81.706 129.728,56.657 C140.696,31.608 152.711,81.175 152.711,81.175 Z" id="Path_1155" fill="#FFD5C0"></path>
                        <path d="M163.793,104.492 C152.952,107.17 146.819,115.292 149.293,126.184 C159.512,171.252 185.232,278.304 198.943,278.344 C216.31,278.393 280.336,281.406 280.336,281.406 L290.164,250.516 L212.94,253.324 L187.663,136.786 C185.963,127.098 185.363,116.447 177.569,110.444 C169.84,104.492 163.793,104.492 163.793,104.492 Z" id="Path_1156" fill="#FFD5C0"></path>
                        <path d="M163.349,104.566 C174.370518,102.779401 184.794933,110.141578 186.797,121.126 C195.059,166.592 239.709,226.852 227.109,232.262 C211.15,239.114 162.522,230.862 162.522,230.862 L146.422,128.286 C145.491957,122.892042 146.757625,117.35015 149.93709,112.89473 C153.116555,108.439309 157.945744,105.440407 163.349,104.566 Z" id="Path_1157" fill="#FF78BA"></path>
                        <path d="M189.066,185.928 C159.58,246.303 196.086,306.678 196.086,306.678 L58.489,306.678 C58.489,306.678 96.399,246.303 79.55,218.221 C62.701,190.139 41.64,135.381 47.256,119.936 C51.384,108.563 78.356,104.8 92.285,103.607 C97.285,103.186 100.611,103.087 100.611,103.087 L148.644,102.087 L158.178,103.087 C166.602,104.487 169.944,105.516 173.089,111.582 C184.924,134.385 201.614,160.241 189.066,185.928 Z" id="Path_1158" fill="#FD9ECC"></path>
                        <path d="M312.626,246.303 C312.626,246.303 332.283,235.07 333.687,230.858 C335.091,226.646 342.111,232.258 335.087,239.282 C328.063,246.306 322.45,249.111 322.45,249.111 L312.626,246.303 Z" id="Path_1160" fill="#FFD5C0"></path>
                        <g id="Laptop" transform="translate(110.000000, 120.000000)">
                            <polygon id="Path_1159" fill="#AFAFAF" points="0.788 201.418 156.447 201.418 221.581 155.052 68.131 157.26"></polygon>
                            <polyline id="Path_1161" fill="#DDDDDD" points="221.58 155.055 156.446 201.422 156.446 57.355 218.958 0.639 221.58 155.055"></polyline>
                        </g>
                        <path d="M120.267,274.388 C120.267,274.388 146.944,281.408 151.157,280.004 C155.37,278.6 169.41,270.176 179.238,274.388 C186.218,277.379 196.031,283.912 201.132,287.446 C202.004306,288.050546 202.449035,289.10447 202.273515,290.151172 C202.097994,291.197874 201.333796,292.049074 200.312,292.336 C197.552099,293.028504 194.677116,293.130732 191.875,292.636 C180.927263,291.254887 169.808258,292.705102 159.581,296.848 C152.281,299.976 110.438,291.232 110.438,291.232 L120.267,274.388 Z" id="Path_1162" fill="#FFD5C0"></path>
                        <path d="M66.084,108.779 C55.0619256,106.989065 44.6356665,114.352858 42.637,125.339 C34.374,170.806 20.616,271.784 33.214,277.194 C49.173,284.046 123.075,294.043 123.075,294.043 L130.095,275.79 L62.458,251.853 L83.009,132.495 C83.9379036,127.10195 82.671948,121.561366 79.4930094,117.106908 C76.3140707,112.652449 71.4860687,109.653931 66.084,108.779 Z" id="Path_1163" fill="#FFD5C0"></path>
                        <path d="M66.085,108.779 C55.0629256,106.989065 44.6366665,114.352858 42.638,125.339 C34.375,170.806 -10.273,231.066 2.326,236.476 C18.285,243.328 66.913,235.076 66.913,235.076 L83.013,132.5 C83.9433194,127.105741 82.6776553,121.563455 79.4979553,117.107781 C76.3182554,112.652106 71.4886449,109.653157 66.085,108.779 Z" id="Path_1164" fill="#FF78BA"></path>
                        <path d="M320.11,247.557 C320.591929,245.062745 322.712056,243.218206 325.249,243.086 C330.239,242.857 337.898,243.431 337.898,249.111 C337.898,257.535 336.498,271.576 325.261,270.172 C316.874,269.124 318.665,254.763 320.11,247.557 Z" id="Path_1165" fill="#FFD5C0"></path>
                        <path d="M144.135,150.826 C129.322,149.59 99.303,112.537 92.283,103.607 C97.283,103.186 100.609,103.087 100.609,103.087 L148.642,102.087 C160.956,126.466 160.268,152.174 144.135,150.826 Z" id="Path_1166" fill="#FFD5C0"></path>
                    </g>
                    <g id="Person-9" transform="translate(220.330000, 493.448000)">
                        <path d="M423.11,142.474 C423.11,142.474 442.168,126.741 442.283,148.99 L418.213,200.448 L385.804,204.239 L423.11,142.474 Z" id="Path_1130" fill="#FFD5C0"></path>
                        <polygon id="Path_1131" fill="#3B427B" points="405.146 164.249 341.966 263.938 239.466 328.525 262.633 369.945 368.641 300.445 431.824 182.503"></polygon>
                        <g id="Group_614" transform="translate(239.465000, 164.249000)">
                            <g id="Group_613-Clipped">
                                <mask id="mask-4" fill="white">
                                    <use xlink:href="#path-3"></use>
                                </mask>
                                <g id="Path_1133"></g>
                                <g id="Group_613" mask="url(#mask-4)" fill="#808BD1" fill-rule="nonzero">
                                    <g transform="translate(-57.000000, -39.000000)" id="Path_1132">
                                        <path d="M341.17,225.416 L77.17,34.593 L82.517,27.193 L346.517,218.015 L341.17,225.416 Z M321.019,253.295 L57.019,62.473 L51.672,69.873 L315.672,260.696 L321.019,253.295 Z M295.519,288.571 L31.519,97.749 L26.172,105.149 L290.172,295.973 L295.519,288.571 Z M270.019,323.847 L6.019,133.025 L0.672,140.425 L264.672,331.248 L270.019,323.847 Z M380.591,190.878 L116.591,0.055 L111.244,7.455 L375.244,198.279 L380.591,190.878 Z"></path>
                                    </g>
                                </g>
                            </g>
                        </g>
                        <g id="Object-5" transform="translate(394.670000, 0.552000)" fill="#FD9ECC">
                            <polygon id="Path_1167" points="160.712 267.598 0.648 221.264 0.648 0.222 160.712 46.556"></polygon>
                        </g>
                        <path d="M309.054,194.884 C324.625,196.625 334.44,211.174 335.745,213.168 C346.121,229.024 340.767,247.844 335.76,260.582 C329.078,277.582 343.968,284.095 347.81,299.858 C351.44,314.758 339.376,334.212 323.305,340.078 C301.205,348.146 277.114,328.486 266.197,312.878 C242.791,279.422 261.489,238.205 264.118,232.649 C266.873,226.831 283.346,192.01 309.054,194.884 Z" id="Path_1168" fill="#353B6E"></path>
                        <path d="M321.317,210.009 C321.317,210.009 343.817,273.253 311.392,268.829 C292.387,266.235 282.987,248.752 282.987,248.752 C282.987,248.752 274.096,250.445 271.994,239.569 C270.594,232.327 280.233,225.669 283.618,238.762 C283.618,238.762 287.453,238.805 290.748,230.192 C292.811,224.802 293.534,217.843 301.097,219.51 C308.66,221.177 320.507,214.075 321.317,210.009 Z" id="Path_1169" fill="#FFD5C0"></path>
                        <path d="M316.84,265.895 C316.84,265.895 299.44,290.853 302.807,305.277 C306.174,319.701 248.886,325.497 261.289,298.977 C273.692,272.457 282.889,266.426 293.857,241.377 C304.825,216.328 316.84,265.895 316.84,265.895 Z" id="Path_1170" fill="#FFD5C0"></path>
                        <path d="M531.512,168.461 C531.512,168.461 553.977,158.161 548.361,179.694 L511.855,223.22 L479.561,218.54 L531.512,168.461 Z" id="Path_1171" fill="#FFD5C0"></path>
                        <path d="M59.364,981.841 C56.542,990.799 53.312,1011.13 73.784,1027.754 C100.911,1049.784 91.433,1072.516 91.433,1072.516 L5.68434189e-14,1025.157 C5.68434189e-14,1025.157 10.966,974.821 28.208,964.515 C28.208,964.515 28.377,964.01 28.685,963.027 C34.821,944.535 97.4,759.506 160.457,726.118 C160.457,726.118 148.199,574.239 217.94,499.823 L325.394,518.623 C325.394,518.623 245.923,719.04 222.517,757.4 C199.111,795.76 66.974,947.876 61.151,977.207 C60.4392814,978.704373 59.8419087,980.253463 59.364,981.841 Z" id="Path_1172" fill="#FF78BA"></path>
                        <path d="M443.056,1105.445 L338.213,1105.445 C338.213,1105.445 321.364,1056.78 330.729,1038.99 C330.729,1038.99 330.49,1038.021 330.083,1036.182 C324.354,1011.203 283.749,826.764 319.496,766.6 C319.496,766.6 271.757,725.418 227.768,505.442 L349.445,504.978 C349.445,504.978 388.76,716.045 388.76,760.98 C388.76,805.915 355.54,1005.991 365.831,1034.072 C365.831,1034.072 365.915,1034.844 366.168,1036.178 C367.656,1044.178 375,1072.417 404.682,1076.433 C439.307,1081.109 443.056,1105.445 443.056,1105.445 Z" id="Path_1173" fill="#FD9ECC"></path>
                        <path d="M526.359,207.311 C526.359,207.311 442.578,308.404 437.439,311.676 C432.3,314.948 350.85,352.857 350.85,352.857 C350.85,352.857 350.836,352.941 350.794,353.11 C349.853,358.179 335.181,440.261 356.944,537.268 C356.944,537.268 274.567,510.352 193.131,532.578 C193.131,532.578 235.253,481.105 224.961,445.526 C214.669,409.947 150.068,331.333 263.334,304.192 L337.834,293.928 L421.994,269.553 L507.642,186.253 L526.359,207.311 Z" id="Path_1174" fill="#3B427B"></path>
                        <g id="Group_628" transform="translate(193.130000, 293.929000)">
                            <g id="Group_627-Clipped">
                                <mask id="mask-6" fill="white">
                                    <use xlink:href="#path-5"></use>
                                </mask>
                                <g id="Path_1176"></g>
                                <g id="Group_627" mask="url(#mask-6)" fill="#808BD1">
                                    <g transform="translate(-74.000000, 22.000000)">
                                        <path d="M205.4,0.662 L0.287,0.662 L0.287,9.788 L207.4,9.788 C207.159,9.207 206.911,8.634 206.685,8.033 C205.789724,5.68064899 205.353525,3.17852818 205.4,0.662 Z" id="Path_1175"></path>
                                        <rect id="Rectangle_273" x="0.287" y="44.188" width="325.745" height="9.126"></rect>
                                        <rect id="Rectangle_274" x="0.287" y="87.714" width="325.745" height="9.126"></rect>
                                        <rect id="Rectangle_275" x="0.287" y="131.241" width="325.745" height="9.126"></rect>
                                        <rect id="Rectangle_276" x="0.287" y="174.767" width="325.745" height="9.126"></rect>
                                    </g>
                                </g>
                            </g>
                        </g>
                        <path d="M310.605,297.636 C310.605,297.636 258.187,387.029 249.764,428.215 C241.341,469.401 204.364,530.245 204.364,530.245 C204.364,530.245 211.853,548.029 222.617,528.372 C222.617,528.372 256.841,469.46 263.804,430.087 C267.655,408.304 290.657,344.849 325.29,295.706 C325.289,295.705 320.434,288.275 310.605,297.636 Z" id="Path_1177" fill="#FF78BA"></path>
                        <path d="M252.574,305.593 C252.574,305.593 265.674,394.985 296.1,461.445 C315.385,503.577 332.137,532.116 332.137,532.116 C332.137,532.116 326.99,542.881 316.692,529.308 C306.394,515.735 288.611,476.421 268.486,422.131 C248.361,367.841 242.274,307.929 242.274,307.929 C242.274,307.929 243.674,291.552 252.574,305.593 Z" id="Path_1178" fill="#FD9ECC"></path>
                        <path d="M320.956,197.142 C312.537,183.983 269.582,186.293 246.943,209.152 C230.372,225.884 237.637,232.826 219.808,257.616 C200.793,284.056 174.355,281.248 162.943,301.844 C149.243,326.578 150.055,363.762 179.792,386.089 C213.856,411.663 281.475,408.689 289.408,388.239 C296.325,370.41 266.419,353.939 273.232,324.662 C277.408,306.715 291.238,301.762 290.784,285.654 C290.284,267.786 285.265,267.338 287.204,256.563 C289.556,243.501 303.333,243.321 317.16,220.318 C318.215,218.564 326.077,205.15 320.956,197.142 Z" id="Path_1179" fill="#423565"></path>
                        <path d="M443.055,1105.442 L338.215,1105.442 C338.215,1105.442 321.366,1056.777 330.731,1038.987 L366.17,1036.179 C367.658,1044.179 375.002,1072.418 404.684,1076.434 C439.307,1081.109 443.055,1105.442 443.055,1105.442 Z" id="Path_1180" fill="#353B6E"></path>
                        <path d="M91.433,1072.516 L0,1025.157 C0,1025.157 10.966,974.821 28.208,964.515 L59.364,981.841 C56.542,990.799 53.312,1011.13 73.784,1027.754 C100.911,1049.784 91.433,1072.516 91.433,1072.516 Z" id="Path_1181" fill="#353B6E"></path>
                        <g id="Group_630" transform="translate(193.130000, 186.250000)">
                            <g id="Group_629-Clipped">
                                <mask id="mask-8" fill="white">
                                    <use xlink:href="#path-7"></use>
                                </mask>
                                <g id="Path_1183"></g>
                                <g id="Group_629" mask="url(#mask-8)" fill="#808BD1" fill-rule="nonzero">
                                    <g transform="translate(72.000000, -95.000000)" id="Path_1182">
                                        <path d="M289.69,290.241 L109.561,18.829 L117.161,13.781 L297.29,285.191 L289.69,290.241 Z M261.029,309.262 L80.899,37.852 L73.299,42.9 L253.428,314.311 L261.029,309.262 Z M224.761,333.329 L44.632,61.922 L37.032,66.968 L217.161,338.378 L224.761,333.329 Z M188.495,357.398 L8.366,85.99 L0.766,91.036 L180.896,362.446 L188.495,357.398 Z M338.731,271.75 L158.602,0.342 L151.002,5.388 L331.132,276.798 L338.731,271.75 Z"></path>
                                    </g>
                                </g>
                            </g>
                        </g>
                    </g>
                    <g id="Light_bulb" transform="translate(424.934000, 446.681000)">
                        <g id="Group_632" transform="translate(36.022000, 38.105000)">
                            <rect id="Rectangle_277" fill="#685696" x="19.491" y="82.585" width="33.521" height="25.844"></rect>
                            <path d="M71.503,36.78 C71.503,15.059 53.456,-2.265 32.152,0.242 C16.741,2.056 3.964,14.642 1.48,30.618 C-0.466768496,42.3482706 3.22374262,54.3104764 11.441,62.905 C16.5163474,68.0091932 19.4041189,74.8894854 19.492,82.087 L19.492,82.587 L53.013,82.587 L53.013,82.261 C53.0419861,75.0635847 55.8856543,68.163122 60.936,63.035 C67.7565791,56.0021808 71.5500384,46.5768685 71.503,36.78 Z" id="Path_1184" fill="#AC7DFD"></path>
                            <path d="M24.427,33.34 C26.294,33.34 27.18,34.917 27.962,36.305 C28.762,37.733 29.328,38.599 30.353,38.599 C31.378,38.599 31.931,37.733 32.736,36.306 C33.517,34.916 34.403,33.339 36.266,33.339 C38.129,33.339 39.017,34.916 39.797,36.306 C40.597,37.733 41.16,38.599 42.18,38.599 C43.2,38.599 43.76,37.733 44.563,36.306 C45.344,34.916 46.23,33.339 48.093,33.339 C49.956,33.339 50.838,34.916 51.619,36.304 C52.419,37.732 52.981,38.598 54,38.598 C54.3628511,38.598 54.657,38.8921489 54.657,39.255 C54.657,39.6178511 54.3628511,39.912 54,39.912 C52.138,39.912 51.255,38.337 50.474,36.948 C49.674,35.52 49.112,34.654 48.093,34.654 C47.074,34.654 46.512,35.52 45.709,36.954 C44.928,38.343 44.042,39.917 42.181,39.917 C40.32,39.917 39.433,38.343 38.653,36.954 C37.853,35.525 37.29,34.654 36.268,34.654 C35.246,34.654 34.687,35.52 33.882,36.954 C33.103,38.343 32.217,39.917 30.355,39.917 C28.493,39.917 27.602,38.342 26.82,36.953 C26.02,35.525 25.454,34.659 24.429,34.659 C23.404,34.659 22.845,35.525 22.041,36.953 C21.257,38.342 20.373,39.917 18.506,39.917 C18.143149,39.9169998 17.8490003,39.622851 17.8490003,39.26 C17.8490003,38.897149 18.143149,38.6030002 18.506,38.603 C19.531,38.603 20.093,37.737 20.897,36.303 C21.676,34.915 22.562,33.34 24.427,33.34 Z" id="Path_1185" fill="#FFFFFF"></path>
                            <path d="M37.489,60.113 L35.025,60.113 C32.793,60.113 30.984,61.569 30.984,63.366 L30.984,82.589 L41.53,82.589 L41.53,63.366 C41.525,61.569 39.717,60.113 37.489,60.113 Z" id="Path_1186" fill="#FFFFFF"></path>
                            <path d="M32.979,63.351 C32.6862978,63.3504685 32.4134813,63.2027869 32.253,62.958 L17.12,39.732 C16.9504775,39.4726252 16.932207,39.1425138 17.0720709,38.8660156 C17.2119349,38.5895173 17.4886845,38.408639 17.7980709,38.3915156 C18.1074574,38.3743922 18.4024775,38.5236252 18.572,38.783 L33.705,62.008 C33.8806504,62.2745997 33.8955696,62.6161622 33.7438336,62.8970619 C33.5920976,63.1779616 33.2982615,63.3527411 32.979,63.352 L32.979,63.351 Z" id="Path_1187" fill="#FFFFFF"></path>
                            <path d="M39.523,63.35 C39.2037385,63.3507411 38.9099024,63.1759616 38.7581664,62.8950619 C38.6064304,62.6141622 38.6213496,62.2725997 38.797,62.006 L53.932,38.781 C54.1015225,38.5216251 54.3965426,38.372392 54.7059291,38.3895154 C55.0153156,38.4066388 55.2920652,38.5875172 55.4319292,38.8640155 C55.5717931,39.1405137 55.5535226,39.4706252 55.384,39.73 L40.249,62.957 C40.0890282,63.2023405 39.8158872,63.3501978 39.523,63.35 Z" id="Path_1188" fill="#FFFFFF"></path>
                        </g>
                        <g id="Group_633" fill="#AC7DFD">
                            <path d="M109.525,14.837 C110.350696,13.3838805 109.848965,11.5367551 108.401566,10.7010723 C106.954166,9.86538954 105.10363,10.3543896 104.258,11.796 L95.998,26.105 C95.5973895,26.7988773 95.4909854,27.6241736 95.7024997,28.3969711 C95.9140141,29.1697687 96.42587,29.8258475 97.124,30.219 L97.177,30.248 C98.6099034,31.0685809 100.436548,30.5769467 101.264,29.148 L109.525,14.837 Z" id="Path_1189"></path>
                            <path d="M133.753,41.291 C135.19461,40.4453702 135.68361,38.5948337 134.847928,37.1474344 C134.012245,35.7000351 132.16512,35.1983038 130.712,36.024 L116.405,44.286 C114.97665,45.1134222 114.485096,46.9393212 115.305,48.372 L115.334,48.425 C115.727152,49.12313 116.383231,49.6349859 117.156029,49.8465003 C117.928826,50.0580146 118.754123,49.9516105 119.448,49.551 L133.753,41.291 Z" id="Path_1190"></path>
                            <path d="M141.513,70.235 L124.913,70.235 C123.258099,70.2377582 121.917998,71.5800964 121.918,73.235 L121.918,73.312 C121.917998,74.9669036 123.258099,76.3092418 124.913,76.312 L141.513,76.312 C142.612409,76.3319391 143.636946,75.7568234 144.192487,74.8078914 C144.748028,73.8589594 144.748028,72.6840406 144.192487,71.7351086 C143.636946,70.7861766 142.612409,70.2110609 141.513,70.231 L141.513,70.235 Z" id="Path_1191"></path>
                            <path d="M130.712,110.527 C132.16512,111.352696 134.012245,110.850965 134.847928,109.403566 C135.68361,107.956166 135.19461,106.10563 133.753,105.26 L119.444,97 C118.750123,96.5993895 117.924826,96.4929854 117.152029,96.7044997 C116.379231,96.9160141 115.723152,97.42787 115.33,98.126 L115.301,98.179 C114.481096,99.6116788 114.97265,101.437578 116.401,102.265 L130.712,110.527 Z" id="Path_1192"></path>
                            <path d="M10.798,105.259 C9.85714091,105.802044 9.27746163,106.805779 9.27732175,107.892109 C9.27718187,108.978438 9.85660266,109.982323 10.7973219,110.525609 C11.7380411,111.068895 12.8971411,111.069044 13.838,110.526 L28.146,102.265 C29.5743498,101.437578 30.0659036,99.6116788 29.246,98.179 L29.217,98.126 C28.8238475,97.42787 28.1677687,96.9160141 27.3949711,96.7044997 C26.6221736,96.4929854 25.7968773,96.5993895 25.103,97 L10.798,105.259 Z" id="Path_1193"></path>
                            <path d="M22.641,73.241 C22.641,71.5841458 21.2978542,70.241 19.641,70.241 L3.041,70.241 C1.38327033,70.2710649 0.0551429959,71.6234977 0.0551429959,73.2815 C0.0551429959,74.9395023 1.38327033,76.2919351 3.041,76.322 L19.641,76.322 C21.2978542,76.322 22.641,74.9788542 22.641,73.322 L22.641,73.241 Z" id="Path_1194"></path>
                            <path d="M13.836,36.024 C12.3844107,35.2141057 10.5514867,35.7198143 9.72055225,37.1594629 C8.8896178,38.5991116 9.36859702,40.4392013 10.796,41.291 L25.104,49.551 C25.7978773,49.9516105 26.6231736,50.0580146 27.3959711,49.8465003 C28.1687687,49.6349859 28.8248475,49.12313 29.218,48.425 L29.247,48.372 C30.0669036,46.9393212 29.5753498,45.1134222 28.147,44.286 L13.836,36.024 Z" id="Path_1195"></path>
                            <path d="M40.291,11.796 C39.4453702,10.3543896 37.5948337,9.86538954 36.1474344,10.7010723 C34.7000351,11.5367551 34.1983038,13.3838805 35.024,14.837 L43.285,29.144 C44.1124222,30.5723498 45.9383212,31.0639036 47.371,30.244 L47.424,30.215 C48.1224705,29.8221868 48.6347532,29.1662575 48.8466515,28.39343 C49.0585498,27.6206025 48.9524487,26.7951211 48.552,26.101 L40.291,11.796 Z" id="Path_1196"></path>
                            <path d="M72.312,23.642 C73.9688542,23.642 75.312,22.2988542 75.312,20.642 L75.312,4.042 C75.3319391,2.94259093 74.7568234,1.91805389 73.8078914,1.36251281 C72.8589594,0.806971735 71.6840406,0.806971735 70.7351086,1.36251281 C69.7861766,1.91805389 69.2110609,2.94259093 69.231,4.042 L69.231,20.642 C69.231,22.2988542 70.5741458,23.642 72.231,23.642 L72.312,23.642 Z" id="Path_1197"></path>
                        </g>
                    </g>
                    <g id="Object-6" transform="translate(1023.087000, 8.997000)">
                        <polygon id="Path_1198" fill="#FF73B7" points="125.568 9.742 116.343 9.213 112.591 18.113 105.717 20.513 97.245 15.873 90.345 22.022 93.985 30.969 90.818 37.524 81.546 40.234 81.017 49.459 89.917 53.211 92.317 60.085 87.677 68.557 93.826 75.457 102.773 71.817 109.328 74.983 112.038 84.255 121.263 84.784 125.015 75.884 131.889 73.484 140.361 78.124 147.261 71.975 143.621 63.028 146.787 56.473 156.058 53.763 156.587 44.537 147.687 40.785 145.287 33.911 149.927 25.439 143.778 18.539 134.831 22.179 128.276 19.013"></polygon>
                        <polygon id="Path_1199" fill="#AACEF2" points="86.371 33.452 82.863 23.387 71.722 23.317 66.135 17.049 67.335 5.973 57.735 1.337 49.807 9.165 41.424 8.684 34.444 -5.68434189e-14 24.379 3.508 24.309 14.649 18.041 20.236 6.965 19.036 2.329 28.636 10.158 36.563 9.677 44.946 0.993 51.926 4.501 61.99 15.642 62.06 21.229 68.328 20.029 79.404 29.629 84.04 37.557 76.212 45.94 76.693 52.92 85.377 62.984 81.869 63.054 70.728 69.322 65.141 80.398 66.341 85.034 56.741 77.205 48.813 77.686 40.43"></polygon>
                        <path d="M20.695,41.366 C20.1614288,50.6651013 25.2820613,59.3699627 33.669139,63.4214946 C42.0562168,67.4730265 52.0580352,66.0733428 59.0107321,59.8751179 C65.9634289,53.6768931 68.4977785,43.9007712 65.43201,35.105372 C62.3662415,26.3099728 54.3041104,20.2274134 45.005,19.694 C38.9073546,19.3439626 32.9204182,21.4306534 28.36136,25.4949854 C23.8023018,29.5593173 21.0446112,35.2683301 20.695,41.366 Z" id="Path_1200" fill="#FFFFFF"></path>
                        <path d="M97.663,45.783 C97.1726391,54.3331815 101.881156,62.3368178 109.592912,66.0617172 C117.304668,69.7866167 126.50091,68.4991975 132.89332,62.7997987 C139.285731,57.1004 141.615388,48.1114612 138.795945,40.0246326 C135.976502,31.937804 128.563219,26.3457056 120.013,25.856 C108.338885,25.1879294 98.3330679,34.1089997 97.663,45.783 Z" id="Path_1201" fill="#FFFFFF"></path>
                        <path d="M26.335,41.689 C25.9319653,48.7066646 29.7960024,55.2760934 36.1252827,58.3339137 C42.454563,61.391734 50.0026136,60.3357463 55.2497234,55.6583652 C60.4968331,50.9809842 62.4096491,43.6033617 60.0962114,36.9657372 C57.7827736,30.3281126 51.6986848,25.7376833 44.681,25.335 C40.0794566,25.0706922 35.5613967,26.6452438 32.12082,29.7122443 C28.6802433,32.7792448 26.5990087,37.0874395 26.335,41.689 Z" id="Path_1202" fill="#9082B5"></path>
                        <path d="M103.033,46.091 C102.665189,52.4716487 106.177645,58.4454548 111.932198,61.2262986 C117.68675,64.0071424 124.549863,63.047252 129.320654,58.7943099 C134.091445,54.5413679 135.830161,47.833121 133.725883,41.7982241 C131.621606,35.7633273 126.088837,31.5905377 119.708,31.226 C110.999267,30.7284693 103.534999,37.3825232 103.033,46.091 Z" id="Path_1203" fill="#9082B5"></path>
                    </g>
                    <g id="Line" transform="translate(787.877000, 157.558000)" fill="#FD9ECC" fill-rule="nonzero">
                        <path d="M529.093,889.067 L529.034,883.41 C534.924,883.375 540.891,883.271 546.772,883.103 L547.051,888.756 C541.098,888.925 535.056,889.033 529.093,889.067 Z M511.118,888.973 C505.156,888.873 499.113,888.706 493.157,888.473 L493.542,882.824 C499.424,883.054 505.394,883.224 511.281,883.318 L511.118,888.973 Z M565.004,888.036 L564.504,882.392 C570.381,882.092 576.333,881.715 582.194,881.278 L582.921,886.907 C576.982,887.35 570.954,887.733 565.004,888.033 L565.004,888.036 Z M475.222,887.563 C469.277,887.192 463.256,886.749 457.331,886.243 L458.162,880.623 C464.011,881.123 469.956,881.56 475.829,881.923 L475.222,887.563 Z M600.777,885.369 L599.826,879.758 C605.666,879.188 611.577,878.539 617.394,877.834 L618.569,883.419 C612.677,884.133 606.691,884.79 600.777,885.369 Z M439.498,884.514 C433.59,883.872 427.617,883.152 421.745,882.375 L423.021,876.802 C428.821,877.569 434.721,878.279 440.554,878.914 L439.498,884.514 Z M636.275,881.061 L634.875,875.505 C640.661,874.664 646.509,873.746 652.256,872.773 L653.876,878.294 C648.059,879.279 642.137,880.21 636.275,881.061 Z M404.083,879.825 C398.236,878.911 392.331,877.917 386.533,876.868 L388.254,871.368 C393.98,872.403 399.81,873.384 405.583,874.287 L404.083,879.825 Z M671.367,875.118 L669.526,869.637 C675.238,868.53 681,867.337 686.654,866.104 L688.714,871.539 C682.988,872.794 677.151,873.997 671.367,875.119 L671.367,875.118 Z M369.106,873.505 C363.346,872.321 357.531,871.055 351.825,869.739 L353.986,864.325 C359.622,865.625 365.362,866.876 371.05,868.044 L369.106,873.505 Z M705.913,867.559 L703.636,862.173 C709.236,860.805 714.897,859.351 720.448,857.851 L722.943,863.181 C717.318,864.701 711.589,866.174 705.913,867.559 Z M334.704,865.574 C329.027,864.119 323.304,862.579 317.704,860.995 L320.299,855.695 C325.832,857.259 331.478,858.778 337.085,860.215 L334.704,865.574 Z M739.786,858.409 L737.079,853.14 C742.573,851.51 748.102,849.795 753.514,848.04 L756.435,853.24 C750.951,855.021 745.352,856.758 739.786,858.409 Z M300.901,856.025 C295.36,854.312 289.779,852.509 284.31,850.667 L287.329,845.496 C292.729,847.314 298.239,849.096 303.708,850.787 L300.901,856.025 Z M772.812,847.718 L769.687,842.585 C775.025,840.708 780.387,838.745 785.636,836.753 L788.966,841.812 C783.653,843.833 778.218,845.817 772.811,847.718 L772.812,847.718 Z M267.949,844.925 C262.557,842.956 257.135,840.898 251.829,838.808 L255.259,833.787 C260.495,835.852 265.85,837.887 271.174,839.827 L267.949,844.925 Z M804.879,835.532 L801.348,830.553 C806.512,828.438 811.714,826.231 816.811,823.991 L820.539,828.891 C815.378,831.156 810.109,833.393 804.879,835.533 L804.879,835.532 Z M235.967,832.321 C230.767,830.114 225.519,827.808 220.379,825.471 L224.204,820.617 C229.28,822.927 234.458,825.203 239.597,827.382 L235.967,832.321 Z M205.076,818.262 C200.048,815.812 194.999,813.269 190.076,810.704 L194.284,806.038 C199.149,808.571 204.133,811.081 209.098,813.501 L205.076,818.262 Z M175.376,802.803 C170.564,800.131 165.733,797.361 161.012,794.57 L165.586,790.106 C170.245,792.862 175.017,795.597 179.77,798.237 L175.376,802.803 Z M146.987,786.003 C142.387,783.103 137.787,780.12 133.313,777.122 L138.237,772.879 C142.656,775.839 147.198,778.789 151.737,781.649 L146.987,786.003 Z M120.008,767.933 C115.658,764.833 111.308,761.643 107.078,758.441 L112.329,754.432 C116.509,757.594 120.804,760.748 125.1,763.806 L120.008,767.933 Z M94.532,748.655 C90.442,745.365 86.356,741.977 82.388,738.585 L87.955,734.828 C91.871,738.178 95.906,741.523 99.944,744.772 L94.532,748.655 Z M70.66,728.241 C66.831,724.757 63.028,721.188 59.354,717.63 L65.212,714.138 C68.839,717.651 72.595,721.175 76.376,724.614 L70.66,728.241 Z M48.481,706.766 C44.953,703.125 41.445,699.388 38.053,695.656 L44.182,692.442 C47.529,696.128 50.993,699.818 54.475,703.412 L48.481,706.766 Z M28.081,684.309 C24.842,680.498 21.643,676.609 18.575,672.738 L24.949,669.817 C27.979,673.633 31.137,677.476 34.335,681.239 L28.081,684.309 Z M9.544,660.955 C6.621,657.001 3.744,652.967 0.999,648.968 L7.599,646.351 C10.31,650.299 13.149,654.281 16.035,658.185 L9.544,660.955 Z M1079.964,592.463 L1072.946,590.572 C1074.916,586.353 1076.828,582.039 1078.633,577.754 L1085.724,579.477 C1083.896,583.819 1081.959,588.188 1079.964,592.463 Z M1090.934,566.402 L1083.773,564.849 C1085.399,560.524 1086.949,556.144 1088.381,551.828 L1095.601,553.21 C1094.149,557.583 1092.578,562.022 1090.933,566.402 L1090.934,566.402 Z M1099.728,539.914 L1092.454,538.702 C1093.715,534.334 1094.903,529.887 1095.987,525.488 L1103.305,526.527 C1102.207,530.985 1101.004,535.489 1099.724,539.915 L1099.728,539.914 Z M1106.328,513.064 L1098.969,512.196 C1099.869,507.796 1100.689,503.307 1101.415,498.84 L1108.806,499.534 C1108.073,504.059 1107.239,508.611 1106.331,513.064 L1106.328,513.064 Z M1110.728,485.953 L1103.315,485.435 C1103.854,480.983 1104.309,476.459 1104.67,471.99 L1112.1,472.337 C1111.739,476.862 1111.279,481.443 1110.732,485.953 L1110.728,485.953 Z M1112.923,458.692 L1105.48,458.521 C1105.66,454.039 1105.751,449.503 1105.751,445.038 L1113.195,445.038 C1113.199,449.56 1113.108,454.154 1112.924,458.692 L1112.923,458.692 Z M1105.75,444.292 C1105.739,439.802 1105.639,435.265 1105.45,430.807 L1112.893,430.626 C1113.082,435.14 1113.185,439.734 1113.193,444.282 L1105.75,444.292 Z M1104.61,417.337 C1104.241,412.868 1103.773,408.345 1103.224,403.893 L1110.636,403.365 C1111.192,407.875 1111.665,412.455 1112.036,416.982 L1104.61,417.337 Z M1101.293,390.49 C1100.559,386.036 1099.728,381.545 1098.819,377.137 L1106.173,376.262 C1107.094,380.726 1107.937,385.276 1108.681,389.786 L1101.293,390.49 Z M1095.803,363.85 C1094.703,359.441 1093.503,354.997 1092.238,350.64 L1099.509,349.419 C1100.792,353.833 1102.009,358.335 1103.116,362.8 L1095.803,363.85 Z M1088.138,337.522 C1086.679,333.162 1085.118,328.783 1083.499,324.506 L1090.653,322.943 C1092.294,327.276 1093.875,331.711 1095.353,336.129 L1088.138,337.522 Z M1078.328,311.607 C1076.528,307.36 1074.614,303.063 1072.628,298.837 L1079.64,296.937 C1081.651,301.219 1083.591,305.572 1085.412,309.876 L1078.328,311.607 Z M1066.414,286.207 C1064.278,282.066 1062.02,277.881 1059.704,273.77 L1066.548,271.543 C1068.897,275.709 1071.184,279.943 1073.348,284.143 L1066.414,286.207 Z M1052.488,261.491 C1050.022,257.463 1047.426,253.391 1044.773,249.384 L1051.424,246.841 C1054.113,250.899 1056.741,255.025 1059.239,259.106 L1052.488,261.491 Z M1036.563,237.46 C1033.763,233.534 1030.836,229.587 1027.875,225.73 L1034.306,222.88 C1037.306,226.788 1040.268,230.78 1043.106,234.761 L1036.563,237.46 Z M1018.71,214.207 C1015.599,210.426 1012.359,206.622 1009.081,202.9 L1015.27,199.754 C1018.591,203.525 1021.87,207.378 1025.023,211.208 L1018.71,214.207 Z M999.001,191.819 C995.571,188.173 992.028,184.525 988.472,180.975 L994.396,177.548 C997.996,181.142 1001.585,184.838 1005.06,188.531 L999.001,191.819 Z M977.509,170.38 C973.8,166.905 969.968,163.427 966.123,160.04 L971.759,156.34 C975.659,159.769 979.535,163.292 983.291,166.812 L977.509,170.38 Z M954.325,149.969 C950.361,146.686 946.257,143.39 942.125,140.169 L947.456,136.219 C951.637,139.478 955.795,142.819 959.809,146.14 L954.325,149.969 Z M929.544,130.663 C925.311,127.563 920.944,124.463 916.577,121.445 L921.577,117.257 C926.004,120.309 930.423,123.45 934.709,126.591 L929.544,130.663 Z M903.244,112.531 C898.744,109.615 894.144,106.72 889.557,103.931 L894.217,99.52 C898.856,102.348 903.517,105.279 908.078,108.232 L903.244,112.531 Z M875.533,95.643 C870.824,92.943 865.992,90.27 861.178,87.685 L865.478,83.066 C870.356,85.683 875.248,88.394 880.017,91.125 L875.533,95.643 Z M846.507,80.062 C841.583,77.585 836.546,75.135 831.535,72.779 L835.452,67.97 C840.528,70.355 845.629,72.836 850.616,75.344 L846.507,80.062 Z M816.274,65.847 C811.153,63.6 805.926,61.389 800.736,59.272 L804.262,54.288 C809.516,56.434 814.811,58.674 819.996,60.949 L816.274,65.847 Z M254.592,56.547 L251.155,51.529 C256.417,49.448 261.81,47.395 267.184,45.429 L270.418,50.523 C265.113,52.466 259.789,54.494 254.593,56.548 L254.592,56.547 Z M784.942,53.057 C779.652,51.057 774.254,49.088 768.898,47.212 L772.015,42.074 C777.439,43.974 782.905,45.965 788.263,47.994 L784.942,53.057 Z M286.475,44.864 L283.448,39.697 C288.876,37.861 294.421,36.061 299.926,34.349 L302.748,39.585 C297.31,41.276 291.836,43.052 286.475,44.865 L286.475,44.864 Z M752.624,41.743 C747.187,39.991 741.64,38.278 736.133,36.653 L738.833,31.381 C744.41,33.025 750.033,34.761 755.533,36.535 L752.624,41.743 Z M319.279,34.668 L316.67,29.368 C322.262,27.78 327.96,26.235 333.603,24.781 L335.997,30.136 C330.424,31.577 324.798,33.1 319.277,34.668 L319.279,34.668 Z M719.437,31.95 C713.867,30.45 708.188,29.003 702.555,27.637 L704.82,22.248 C710.52,23.632 716.279,25.101 721.92,26.616 L719.437,31.95 Z M352.891,26.001 L350.715,20.591 C356.427,19.266 362.238,17.991 367.986,16.8 L369.943,22.258 C364.266,23.433 358.529,24.691 352.889,26.001 L352.891,26.001 Z M685.565,23.732 C679.906,22.502 674.14,21.323 668.427,20.223 L670.254,14.739 C676.041,15.852 681.881,17.047 687.612,18.293 L685.565,23.732 Z M387.137,18.91 L385.4,13.41 C391.2,12.353 397.1,11.349 402.943,10.426 L404.459,15.965 C398.691,16.876 392.865,17.867 387.136,18.91 L387.137,18.91 Z M651.153,17.11 C645.402,16.145 639.553,15.234 633.762,14.403 L635.146,8.846 C641.008,9.687 646.935,10.609 652.757,11.587 L651.153,17.11 Z M421.887,13.417 L420.595,7.847 C426.471,7.061 432.443,6.332 438.344,5.68 L439.414,11.28 C433.585,11.927 427.688,12.645 421.887,13.422 L421.887,13.417 Z M616.273,12.099 C610.456,11.399 604.543,10.764 598.7,10.199 L599.637,4.588 C605.554,5.157 611.537,5.804 617.437,6.51 L616.273,12.099 Z M457.019,9.545 L456.172,3.925 C462.092,3.411 468.111,2.959 474.06,2.58 L474.682,8.217 C468.805,8.595 462.863,9.042 457.018,9.549 L457.019,9.545 Z M581.061,8.708 C575.206,8.28 569.253,7.913 563.368,7.619 L563.857,1.975 C569.817,2.275 575.845,2.645 581.773,3.075 L581.061,8.708 Z M492.394,7.291 L491.994,1.644 C497.949,1.401 503.994,1.223 509.955,1.116 L510.133,6.772 C504.241,6.882 498.274,7.057 492.392,7.296 L492.394,7.291 Z M545.638,6.934 C539.756,6.774 533.785,6.679 527.89,6.652 L527.934,0.995 C533.904,1.023 539.949,1.119 545.905,1.281 L545.638,6.934 Z" id="Path_1204"></path>
                    </g>
                    <g id="Cloud-7" transform="translate(1464.000000, 6.000000)" fill="#CDE2FF">
                        <path d="M294.197,123.765 L0.06,123.765 C0.06,123.765 23.498,-43.811 86.778,64.001 C86.778,64.001 140.683,-83.654 196.932,72.201 C196.932,72.2 294.197,39.391 294.197,123.765 Z" id="Path_1205"></path>
                    </g>
                    <g id="Cloud-8" transform="translate(2049.000000, 284.000000)" fill="#CDE2FF">
                        <path d="M294.696,123.772 L0.559,123.772 C0.559,123.772 23.997,-43.804 87.277,64.008 C87.277,64.008 141.182,-83.647 197.431,72.208 C197.431,72.207 294.696,39.398 294.696,123.772 Z" id="Path_1206-4"></path>
                    </g>
                    <g id="Cloud-9" transform="translate(67.000000, 593.000000)" fill="#CDE2FF">
                        <path d="M294.143,123.668 L0.006,123.668 C0.006,123.668 23.444,-43.908 86.724,63.904 C86.724,63.904 140.629,-83.751 196.878,72.104 C196.878,72.103 294.143,39.294 294.143,123.668 Z" id="Path_1207"></path>
                    </g>
                </g>
            </g>
        </g>
    </g>
</svg>