<svg id="Layer_1" data-name="Layer 1" xmlns="http://www.w3.org/2000/svg" xmlns:xlink="http://www.w3.org/1999/xlink" viewBox="0 0 16 16"><defs><style>.cls-1{fill:#f3fbff;}.cls-2{fill:#f77ade;}.cls-3{fill:none;stroke-linecap:round;stroke-linejoin:round;stroke-width:0.25px;stroke:url(#New_Gradient_Swatch);}.cls-4{font-size:3px;fill:#5b39c9;font-family:PollyRounded-Regular, Polly Rounded;letter-spacing:-0.05em;}</style><linearGradient id="New_Gradient_Swatch" x1="5.92" y1="9.49" x2="10.21" y2="2.06" gradientUnits="userSpaceOnUse"><stop offset="0" stop-color="#5b39c9"/><stop offset="1" stop-color="#ffabee"/></linearGradient></defs><path class="cls-1" d="M12.5,6.26A4.4,4.4,0,0,1,11.92,8a4.65,4.65,0,0,1-1.63,1.6A5.14,5.14,0,0,0,9.6,7.09,6.37,6.37,0,0,0,8.63,6a2,2,0,0,0-.44-.34A2.11,2.11,0,0,0,7,5.42a4.66,4.66,0,0,0-.69.15c-.89.21-1,.28-1.19.25a2,2,0,0,1-.85-.4,3.93,3.93,0,0,1-.74-.65A2.22,2.22,0,0,0,4,4.43a3.09,3.09,0,0,0,.49-.55,9.24,9.24,0,0,0,.6-1,3,3,0,0,1,.94-.94.87.87,0,0,1,.2-.54.64.64,0,0,1,.34-.25c.3-.07.51.18.85.34a1.88,1.88,0,0,0,1.18.15,7,7,0,0,1,.9.25,5.69,5.69,0,0,1,.69.3,4.39,4.39,0,0,1,1.09.79,4,4,0,0,1,.84,1.19,3.78,3.78,0,0,1,.3,1A4.14,4.14,0,0,1,12.5,6.26Z"/><path class="cls-2" d="M3.89,5.11l-.27-.27.32-.23A.43.43,0,0,1,4,4.85.46.46,0,0,1,3.89,5.11Z"/><path class="cls-3" d="M6.93,7.55V9.93a4.58,4.58,0,0,0,4-.7A4.21,4.21,0,0,0,12.4,6.68,4.09,4.09,0,0,0,12,4,4.73,4.73,0,0,0,8.14,1.63a1,1,0,0,1-.59,0c-.24-.12-.25-.29-.5-.4a.78.78,0,0,0-.59,0,.79.79,0,0,0-.4.74,3.91,3.91,0,0,0-.94,1c-.34.49-.38.81-.74,1.24a2.88,2.88,0,0,1-.9.69c.88,1,1.52,1.09,1.94,1a8.39,8.39,0,0,1,1.78-.4,2.1,2.1,0,0,1,.65.1,1.82,1.82,0,0,1,.74.5"/><path class="cls-2" d="M6.11,3.07a.15.15,0,0,1,.15.15.16.16,0,0,1-.15.16A.16.16,0,0,1,6,3.22a.16.16,0,0,1,.16-.15Z"/><text class="cls-4" transform="translate(3.54 14.15)">dainty</text></svg>