<?xml version="1.0" encoding="iso-8859-1"?>
<!-- Generator: Adobe Illustrator 21.0.2, SVG Export Plug-In . SVG Version: 6.00 Build 0)  -->
<svg version="1.1" xmlns="http://www.w3.org/2000/svg" xmlns:xlink="http://www.w3.org/1999/xlink" x="0px" y="0px"
	 viewBox="0 0 64 64" fill="#5b39c9" style="enable-background:new 0 0 64 64;" xml:space="preserve">
<g id="_x32_5_rocket">
</g>
<g id="_x32_4_focus">
</g>
<g id="_x32_3_case">
</g>
<g id="_x32_2_ideas">
</g>
<g id="_x32_1_strategy_set">
</g>
<g id="_x32_0_analyzing">
</g>
<g id="_x31_9_working_time">
</g>
<g id="_x31_8_presentation">
</g>
<g id="_x31_7_target_set">
</g>
<g id="_x31_6_financial_report">
</g>
<g id="_x31_5_law">
</g>
<g id="_x31_4_list">
</g>
<g id="_x31_3_handshake">
</g>
<g id="_x31_2_agreement">
</g>
<g id="_x31_1_progress">
</g>
<g id="_x31_0_structure">
</g>
<g id="_x30_9_strategy">
</g>
<g id="_x30_8_connection">
</g>
<g id="_x30_7_profile">
</g>
<g id="_x30_6_lighthouse">
</g>
<g id="_x30_5_chart">
</g>
<g id="_x30_4_teamwork">
</g>
<g id="_x30_3_organization">
	<path d="M58.7473,53.2527c1.1368-1.1752,1.8406-2.7794,1.8406-4.5481c0-3.248-2.3681-5.9409-5.4512-6.4287v-7.3843
		c0-0.502-0.3757-0.8998-0.8581-0.9714c-0.0218-0.0172-0.0617-0.0286-0.1419-0.0286H33.002v-5.437h12.2949c0.5527,0,1-0.4478,1-1
		v-6.0938c0-3.9038-2.9668-6.6299-7.2158-6.6299h-1.718c1.7849-1.5356,2.9221-3.8172,2.9221-6.3652
		C40.2852,3.7529,36.5693,0,32.002,0c-2.7321,0-5.1522,1.3487-6.6618,3.4152c-0.0221,0.0235-0.037,0.0511-0.0568,0.0766
		c-0.9802,1.3743-1.5646,3.0547-1.5646,4.874c0,2.548,1.1372,4.8297,2.9221,6.3652h-1.7184c-0.001,0-0.002,0-0.0034,0
		c-4.3135,0.0137-7.2119,2.6782-7.2119,6.6299v6.0938c0,0.5522,0.4478,1,1,1H31.002v5.437H9.8662
		c-0.0745,0-0.1208,0.0117-0.151,0.0305c-0.4775,0.0756-0.849,0.4708-0.849,0.9695v7.3843
		c-3.0842,0.4877-5.4541,3.1806-5.4541,6.4287c0,1.769,0.7045,3.3736,1.8423,4.5488c-3.1075,0.1772-5.2534,2.2477-5.2534,5.1816V63
		c0,0.5522,0.4478,1,1,1h17.731c0.5522,0,1-0.4478,1-1v-4.5649c0-2.9422-2.1459-5.0125-5.2527-5.1824
		c1.1374-1.1752,1.8416-2.7794,1.8416-4.548c0-3.2482-2.3699-5.9411-5.4546-6.4288v-6.3842H31.002v6.3842
		c-3.0847,0.4877-5.4546,3.1806-5.4546,6.4288c0,1.769,0.7045,3.3736,1.8423,4.5488c-3.1074,0.1771-5.2535,2.2477-5.2535,5.1816V63
		c0,0.5522,0.4478,1,1,1h17.728c0.5527,0,1-0.4478,1-1v-4.5649c0-2.9421-2.1457-5.0123-5.2525-5.1824
		c1.1367-1.1752,1.8404-2.7794,1.8404-4.548c0-3.2479-2.368-5.9407-5.4502-6.4286v-6.3843h20.1348v6.3843
		c-3.0842,0.4877-5.4541,3.1806-5.4541,6.4287c0,1.769,0.7045,3.3736,1.8423,4.5488c-3.1071,0.1772-5.2534,2.2477-5.2534,5.1816V63
		c0,0.5522,0.4473,1,1,1H62.999c0.5527,0,1-0.4478,1-1v-4.5649C63.999,55.4932,61.8536,53.4232,58.7473,53.2527z M17.7319,58.4351
		V62H2.001v-3.5649c0-2.3628,1.8892-3.21,3.6572-3.2153h8.4194C15.7632,55.2197,17.7319,56.062,17.7319,58.4351z M14.3208,48.7046
		c0,2.4897-1.9985,4.5151-4.4546,4.5151s-4.4541-2.0254-4.4541-4.5151s1.998-4.5151,4.4541-4.5151S14.3208,46.2148,14.3208,48.7046z
		 M32.002,2c2.515,0,4.6832,1.508,5.6863,3.6753c-1.2059-0.287-2.3239-0.0694-3.3524,0.1353
		c-1.2568,0.2485-2.4448,0.4849-3.96-0.0039c-1.9742-0.6362-2.785-1.2562-3.1141-1.6065C28.4149,2.8554,30.11,2,32.002,2z
		 M25.7188,8.3657c0-0.8611,0.1715-1.6818,0.4787-2.4316c0.6889,0.575,1.7895,1.2039,3.5648,1.7758
		c2.0098,0.6489,3.6479,0.3237,4.9634,0.062c1.4012-0.2776,2.3715-0.4581,3.5462,0.3258c0.0037,0.0895,0.0134,0.1775,0.0134,0.2679
		c0,3.5098-2.8184,6.3652-6.2832,6.3652C28.5376,14.731,25.7188,11.8755,25.7188,8.3657z M39.8643,58.4351V62h-15.728v-3.5649
		c0-2.3628,1.8892-3.21,3.6572-3.2153H36.21C37.8955,55.2197,39.8643,56.062,39.8643,58.4351z M36.4521,48.7046
		c0,2.4897-1.9961,4.5151-4.4502,4.5151c-2.4561,0-4.4546-2.0254-4.4546-4.5151s1.9985-4.5151,4.4546-4.5151
		C34.4561,44.1895,36.4521,46.2148,36.4521,48.7046z M19.707,26.4546v-5.0938c0-3.4048,2.811-4.6221,5.2188-4.6299h6.0762v3.6401
		c0,0.5522,0.4478,1,1,1s1-0.4478,1-1V16.731h6.0791c2.4063,0,5.2158,1.2124,5.2158,4.6299v5.0938H19.707z M54.1367,44.1895
		c2.4541,0,4.4512,2.0254,4.4512,4.5151s-1.9971,4.5151-4.4512,4.5151c-2.4561,0-4.4541-2.0254-4.4541-4.5151
		S51.6807,44.1895,54.1367,44.1895z M61.999,62H46.2715v-3.5649c0-2.3628,1.8896-3.21,3.6572-3.2153h8.416
		c1.6855,0,3.6543,0.8423,3.6543,3.2153V62z"/>
</g>
<g id="_x30_2_target">
</g>
<g id="_x30_1_planning">
</g>
</svg>
