<?xml version="1.0" encoding="iso-8859-1"?>
<!-- Generator: Adobe Illustrator 21.0.2, SVG Export Plug-In . SVG Version: 6.00 Build 0)  -->
<svg version="1.1" xmlns="http://www.w3.org/2000/svg" xmlns:xlink="http://www.w3.org/1999/xlink" x="0px" y="0px"
	 viewBox="0 0 64 64" fill="#5b39c9" style="enable-background:new 0 0 64 64;" xml:space="preserve">
<g id="_x32_5_rocket">
</g>
<g id="_x32_4_focus">
</g>
<g id="_x32_3_case">
</g>
<g id="_x32_2_ideas">
</g>
<g id="_x32_1_strategy_set">
</g>
<g id="_x32_0_analyzing">
</g>
<g id="_x31_9_working_time">
</g>
<g id="_x31_8_presentation">
</g>
<g id="_x31_7_target_set">
</g>
<g id="_x31_6_financial_report">
</g>
<g id="_x31_5_law">
</g>
<g id="_x31_4_list">
</g>
<g id="_x31_3_handshake">
</g>
<g id="_x31_2_agreement">
</g>
<g id="_x31_1_progress">
</g>
<g id="_x31_0_structure">
</g>
<g id="_x30_9_strategy">
</g>
<g id="_x30_8_connection">
	<g>
		<path d="M36.7627,30.4028h-0.3708c1.3832-1.3249,2.2516-3.1926,2.2516-5.2651c0-0.2643-0.0159-0.5247-0.0433-0.7818
			c-0.0012-0.0133-0.0042-0.0256-0.0059-0.0389c-0.4055-3.6204-3.4534-6.4445-7.1451-6.4445c-2.3705,0-4.4706,1.1678-5.7827,2.958
			c-0.0143,0.0155-0.0237,0.0338-0.0371,0.0502c-0.8624,1.1979-1.3775,2.6662-1.3775,4.257c0,2.0725,0.8687,3.9402,2.2524,5.2651
			h-0.3687c-0.001,0-0.002,0-0.0029,0c-3.334,0.0098-5.6621,2.3892-5.6621,5.7866v5.1851c0,0.5522,0.4478,1,1,1h19.9531
			c0.5527,0,1-0.4478,1-1v-5.1851C42.4238,32.2139,39.4893,30.4028,36.7627,30.4028z M31.4492,19.8726
			c1.9702,0,3.6669,1.1306,4.5472,2.7731c-0.9254-0.1454-1.789,0.0138-2.5901,0.1732c-1.0503,0.208-2.041,0.4058-3.292,0.0024
			c-1.4772-0.4778-2.1645-0.9384-2.4825-1.228C28.5826,20.5431,29.9351,19.8726,31.4492,19.8726z M26.252,25.1377
			c0-0.6382,0.1296-1.2426,0.3359-1.8091c0.6111,0.462,1.5287,0.9487,2.9122,1.3961c1.7456,0.5635,3.1597,0.2817,4.2959,0.0557
			c1.1249-0.2233,1.911-0.375,2.8321,0.2011c0.0016,0.0532,0.0156,0.1028,0.0156,0.1563c0,2.9033-2.3301,5.2651-5.1943,5.2651
			C28.5835,30.4028,26.252,28.041,26.252,25.1377z M40.4238,40.3745H22.4707v-4.1851c0-2.7842,1.8945-3.7813,3.668-3.7866h4.3105
			v5.0693c0,0.5522,0.4478,1,1,1s1-0.4478,1-1v-5.0693h4.3135c1.6885,0,3.6611,0.9917,3.6611,3.7866V40.3745z"/>
		<path d="M63.6533,32.002c0-3.5573-2.8211-6.4551-6.3212-6.5474C54.9805,16.126,47.712,8.7759,38.485,6.3937
			C38.3986,2.8539,35.5268,0,32.002,0c-3.5273,0-6.401,2.8541-6.4874,6.3939C16.2905,8.7763,9.0227,16.1264,6.668,25.4547
			c-3.5008,0.0941-6.3214,2.9912-6.3214,6.5472c0,3.5536,2.8206,6.4493,6.3214,6.5434c2.3547,9.3283,9.6225,16.6783,18.8464,19.0607
			C25.601,61.1459,28.4747,64,32.002,64c3.5248,0,6.3966-2.8539,6.4831-6.3937c9.2269-2.3821,16.4954-9.7322,18.8471-19.0607
			C60.8322,38.4534,63.6533,35.5568,63.6533,32.002z M32.002,2c2.4766,0,4.4912,2.0439,4.4912,4.5562s-2.0146,4.5557-4.4912,4.5557
			c-2.479,0-4.4956-2.0435-4.4956-4.5557S29.5229,2,32.002,2z M2.3467,32.002c0-2.5122,2.0166-4.5562,4.4951-4.5562
			c2.4766,0,4.4917,2.0439,4.4917,4.5562c0,2.5103-2.0151,4.5522-4.4917,4.5522C4.3633,36.5542,2.3467,34.5122,2.3467,32.002z
			 M32.002,62c-2.479,0-4.4956-2.0439-4.4956-4.5562s2.0166-4.5557,4.4956-4.5557c2.4766,0,4.4912,2.0435,4.4912,4.5557
			S34.4785,62,32.002,62z M38.2289,55.6065c-0.7891-2.7224-3.2797-4.7183-6.2269-4.7183c-2.9492,0-5.4415,1.9959-6.2311,4.7184
			c-8.3275-2.2451-14.8903-8.8894-17.1053-17.3203c2.6938-0.7979,4.668-3.311,4.668-6.2844c0-2.9754-1.9742-5.4899-4.668-6.2881
			c2.215-8.4308,8.7778-15.0753,17.1053-17.3204c0.7896,2.7225,3.2819,4.7184,6.2311,4.7184c2.9472,0,5.4378-1.9959,6.2269-4.7183
			c8.3304,2.2448,14.8933,8.8893,17.1069,17.3207c-2.6949,0.7988-4.6697,3.3129-4.6697,6.2878c0,2.9729,1.9749,5.4857,4.6697,6.284
			C53.1221,46.7173,46.5593,53.3618,38.2289,55.6065z M57.1621,36.5542c-2.4795,0-4.4961-2.042-4.4961-4.5522
			c0-2.5122,2.0166-4.5562,4.4961-4.5562c2.4766,0,4.4912,2.0439,4.4912,4.5562C61.6533,34.5122,59.6387,36.5542,57.1621,36.5542z"
			/>
	</g>
</g>
<g id="_x30_7_profile">
</g>
<g id="_x30_6_lighthouse">
</g>
<g id="_x30_5_chart">
</g>
<g id="_x30_4_teamwork">
</g>
<g id="_x30_3_organization">
</g>
<g id="_x30_2_target">
</g>
<g id="_x30_1_planning">
</g>
</svg>
