<?xml version="1.0" encoding="iso-8859-1"?>
<!-- Generator: Adobe Illustrator 21.0.2, SVG Export Plug-In . SVG Version: 6.00 Build 0)  -->
<svg version="1.1" xmlns="http://www.w3.org/2000/svg" xmlns:xlink="http://www.w3.org/1999/xlink" x="0px" y="0px"
	 viewBox="0 0 64 64" fill="#5b39c9" style="enable-background:new 0 0 64 64;" xml:space="preserve">
<g id="_x32_5_rocket">
</g>
<g id="_x32_4_focus">
</g>
<g id="_x32_3_case">
</g>
<g id="_x32_2_ideas">
</g>
<g id="_x32_1_strategy_set">
</g>
<g id="_x32_0_analyzing">
	<g>
		<path d="M28.8721,45.3081H10.6904c-0.5527,0-1,0.4478-1,1s0.4473,1,1,1h18.1816c0.5527,0,1-0.4478,1-1
			S29.4248,45.3081,28.8721,45.3081z"/>
		<path d="M23.7051,52.7529H10.6904c-0.5527,0-1,0.4478-1,1s0.4473,1,1,1h13.0146c0.5527,0,1-0.4478,1-1
			S24.2578,52.7529,23.7051,52.7529z"/>
		<path d="M62.76,43.6c0-2.04-1.03-2.94-1.64-3.29c-0.85-0.5-1.95-0.56-2.92-0.2l-0.01-0.24c-0.03-2.68-1.9-3.89-3.64-3.89h-0.03
			c-0.68,0.01-1.35,0.2-1.93,0.54c-0.3-0.52-0.72-0.96-1.22-1.27V9.58c0-0.28-0.12-0.54-0.32-0.73l-2.0001-1.8472l-7.2881-6.7371
			c-0.0052-0.0048-0.0064,0.0018-0.0112-0.0018C41.5712,0.0892,41.3262,0,41.08,0H5.75C3.27,0,1.24,2.08,1.24,4.64v52.23
			c0,2.56,2.03,4.64,4.51,4.64H41.5v0.41c0,1.15,0.85,2.08,1.9,2.08h14.42c1.05,0,1.9-0.93,1.9-2.08v-2.58c0-0.52-0.17-1-0.47-1.35
			c2.46-2.12,3.51-6.35,3.51-8.43V43.6z M42.083,3.2871l2.4321,2.2471l3.0025,2.7754h-3.1494
			C42.8096,8.291,42.083,6.8853,42.083,5.9414V3.2871z M41.5,59.34v0.17H5.75c-1.38,0-2.51-1.19-2.51-2.64V4.64
			C3.24,3.19,4.37,2,5.75,2h34.333v3.9414c0,2.0762,1.6289,4.3364,4.2734,4.3682H49.37V34.64h-0.03c-0.61,0-1.19,0.15-1.7,0.41
			l-0.01-5.16c0-2.07-1.68-3.75-3.74-3.75c-2.07,0-3.75,1.68-3.75,3.75v17.83h-4.35c0,0,0,0-0.0099,0c-2.03,0-3.47,1.3-3.65,3.32
			c-0.17,1.84,0.84,3.97,2.82,4.33c0.06,0.01,0.12,0.01,0.18,0.01c5.04,0,5.72,1.05,6.33,1.98c0.15,0.23,0.31,0.45,0.48,0.66
			C41.66,58.37,41.5,58.83,41.5,59.34z M57.72,61.92c0,0.03,0,0.06-0.0099,0.08h-14.2c-0.01-0.02-0.01-0.05-0.01-0.08v-0.41v-2
			v-0.17c0-0.03,0-0.06,0.01-0.08h1.74h2.66h2.81H55.96h1.75c0.0099,0.02,0.0099,0.05,0.0099,0.08V61.92z M60.76,49.56
			c0,2.3-1.64,7.7-4.8,7.7h-4.61h-2h-4.1c-1.47,0-1.67-0.31-2.12-1c-1.02-1.56-2.32-2.86-7.9-2.88c-0.75-0.19-1.19-1.27-1.11-2.16
			c0.06-0.69,0.4-1.5,1.66-1.5h5.36c0.27,0,0.52-0.1,0.71-0.29s0.29-0.44,0.29-0.71V29.89c0-0.97,0.78-1.75,1.75-1.75
			c0.96,0,1.74,0.78,1.74,1.75l0.0053,4.2268l0.0034,7.6537c0,0.5522,0.4482,0.9995,1,0.9995c0.5527,0,1-0.4482,1-1.0005
			l-0.0016-3.7515c0.175-0.7972,0.8846-1.3781,1.703-1.3781h0.03c0.95,0.02,1.72,0.8,1.72,1.75l-0.0012,4.2902
			c0.001,0.5518,0.4482,0.9985,1,0.9985h0.001c0.5527-0.001,1-0.4492,0.999-1.0015l-0.0039-2.8271
			c0-0.0081,0.0051-0.8101,0.0051-0.8101c0.04-0.68,0.7599-1.05,1.45-1.06c0.41,0.02,1.63,0.12,1.65,1.91l-0.0056,4.9565
			c0.001,0.5513,0.505,1.0665,1.0558,1.0665c0.001,0,0.002,0,0.002,0c0.5527-0.0015,0.999-0.4502,0.998-1.0024L58.24,42.59
			c0-0.19,0.2-0.37,0.39-0.49c0.48-0.27,1.09-0.29,1.49-0.06c0.53,0.3,0.64,1.01,0.64,1.55V49.56z"/>
		<path d="M10.6074,40.2666h5.2754c0.5527,0,1-0.4478,1-1v-5.21c0-0.5522-0.4473-1-1-1h-5.2754c-0.5527,0-1,0.4478-1,1v5.21
			C9.6074,39.8188,10.0547,40.2666,10.6074,40.2666z M11.6074,35.0566h3.2754v3.21h-3.2754V35.0566z"/>
		<path d="M27.793,40.2666c0.5527,0,1-0.4478,1-1v-5.21c0-0.5522-0.4473-1-1-1h-5.2754c-0.5527,0-1,0.4478-1,1v5.21
			c0,0.5522,0.4473,1,1,1H27.793z M23.5176,35.0566h3.2754v3.21h-3.2754V35.0566z"/>
		<path d="M36.3027,25.2529c0-0.528-0.1375-1.0201-0.3606-1.462l5.2021-4.6479c0.4182,0.1949,0.8795,0.3116,1.3704,0.3116
			c1.8037,0,3.2705-1.4673,3.2705-3.2705c0-1.8037-1.4668-3.271-3.2705-3.271c-1.8018,0-3.2676,1.4673-3.2676,3.271
			c0,0.5795,0.1642,1.1163,0.4294,1.5889l-5.1401,4.5926c-0.4524-0.2369-0.959-0.3837-1.5042-0.3837
			c-0.8151,0-1.5523,0.3104-2.1258,0.8053l-6.6093-5.9077c0.2362-0.452,0.3826-0.9578,0.3826-1.5021
			c0-1.8018-1.4668-3.2676-3.2705-3.2676s-3.2715,1.4658-3.2715,3.2676c0,0.6458,0.1942,1.2446,0.5187,1.7522l-6.3268,5.6552
			c-0.5576-0.441-1.2526-0.7155-2.017-0.7155c-1.8008,0-3.2666,1.4673-3.2666,3.2705c0,1.8037,1.4658,3.271,3.2666,3.271
			c1.8037,0,3.2715-1.4673,3.2715-3.271c0-0.3049-0.0555-0.5945-0.134-0.8747l6.768-6.0495c0.3701,0.1456,0.77,0.2323,1.1912,0.2323
			c0.5282,0,1.0203-0.1377,1.4623-0.3609l6.9778,6.2371c-0.054,0.2352-0.0885,0.4775-0.0885,0.7288
			c0,1.8032,1.4678,3.2705,3.2715,3.2705S36.3027,27.0562,36.3027,25.2529z M42.5146,14.9131c0.7002,0,1.2705,0.5703,1.2705,1.271
			s-0.5703,1.2705-1.2705,1.2705c-0.6992,0-1.2676-0.5698-1.2676-1.2705S41.8154,14.9131,42.5146,14.9131z M10.3125,26.6108
			c-0.6982,0-1.2666-0.5703-1.2666-1.271s0.5684-1.2705,1.2666-1.2705c0.7012,0,1.2715,0.5698,1.2715,1.2705
			S11.0137,26.6108,10.3125,26.6108z M20.1377,15.3774c0-0.6987,0.5703-1.2676,1.2715-1.2676c0.7002,0,1.2705,0.5688,1.2705,1.2676
			c0,0.7007-0.5703,1.2705-1.2705,1.2705C20.708,16.6479,20.1377,16.0781,20.1377,15.3774z M31.7607,25.2529
			c0-0.7007,0.5703-1.271,1.2715-1.271c0.7002,0,1.2705,0.5703,1.2705,1.271s-0.5703,1.2705-1.2705,1.2705
			C32.3311,26.5234,31.7607,25.9536,31.7607,25.2529z"/>
	</g>
</g>
<g id="_x31_9_working_time">
</g>
<g id="_x31_8_presentation">
</g>
<g id="_x31_7_target_set">
</g>
<g id="_x31_6_financial_report">
</g>
<g id="_x31_5_law">
</g>
<g id="_x31_4_list">
</g>
<g id="_x31_3_handshake">
</g>
<g id="_x31_2_agreement">
</g>
<g id="_x31_1_progress">
</g>
<g id="_x31_0_structure">
</g>
<g id="_x30_9_strategy">
</g>
<g id="_x30_8_connection">
</g>
<g id="_x30_7_profile">
</g>
<g id="_x30_6_lighthouse">
</g>
<g id="_x30_5_chart">
</g>
<g id="_x30_4_teamwork">
</g>
<g id="_x30_3_organization">
</g>
<g id="_x30_2_target">
</g>
<g id="_x30_1_planning">
</g>
</svg>
