<?xml version="1.0" encoding="iso-8859-1"?>
<!-- Generator: Adobe Illustrator 21.0.2, SVG Export Plug-In . SVG Version: 6.00 Build 0)  -->
<svg version="1.1" xmlns="http://www.w3.org/2000/svg" xmlns:xlink="http://www.w3.org/1999/xlink" x="0px" y="0px"
	 viewBox="0 0 64 64" fill="#5b39c9" style="enable-background:new 0 0 64 64;" xml:space="preserve">
<g id="_x32_5_rocket">
</g>
<g id="_x32_4_focus">
</g>
<g id="_x32_3_case">
	<g>
		<path d="M61.0996,44.1177h-0.6758c-0.1035-0.291-0.2188-0.5796-0.3438-0.8638l0.4658-0.4658
			c0.5488-0.5459,0.8506-1.2744,0.8506-2.0522c0-0.7773-0.3018-1.5059-0.8486-2.0488l-2.0586-2.0596
			c-0.4212-0.4227-0.9521-0.6946-1.5293-0.7987V25.2734V12.6045c0-2.0298-1.6494-3.6812-3.6777-3.6812H40.7275V4.1748
			c0-2.2139-1.3721-3.9478-3.123-3.9478h-18.249c-1.7222,0-3.123,1.771-3.123,3.9478v4.7485H3.6812
			C1.6514,8.9233,0,10.5747,0,12.6045v12.6689v21.7993c0,2.2148,1.8018,4.0166,4.0166,4.0166h29.6298
			c0.4479,1.0244,1.4684,1.7437,2.6564,1.7437H36.79c0.127,0.3291,0.2666,0.6528,0.4199,0.9697l-0.3613,0.3599
			c-1.125,1.1299-1.125,2.9688,0.0029,4.1016l2.0635,2.0605c1.127,1.1279,2.9658,1.1279,4.0986,0l0.4688-0.4688
			c0.2822,0.124,0.5703,0.2378,0.8623,0.3413v0.6787c0,1.5972,1.2998,2.897,2.8975,2.897h2.9141
			c1.5996,0,2.9004-1.2998,2.9004-2.897v-0.7891c0.2588-0.0991,0.5156-0.208,0.7686-0.3252l0.5635,0.563
			c1.0898,1.0908,3.0068,1.0908,4.0986,0l2.0605-2.0605c0.5469-0.5474,0.8486-1.2759,0.8486-2.0518
			c0-0.7764-0.3018-1.5049-0.8486-2.0513l-0.5596-0.5605c0.1152-0.2505,0.2227-0.5068,0.3232-0.7676h0.7881
			c1.5996,0,2.9004-1.3013,2.9004-2.9004v-2.9146C64,45.4189,62.6992,44.1177,61.0996,44.1177z M18.2324,4.1748
			c0-1.1147,0.5928-1.9478,1.123-1.9478h18.249c0.5303,0,1.123,0.833,1.123,1.9478v4.7485H18.2324V4.1748z M2,12.6045
			c0-0.9268,0.7544-1.6812,1.6812-1.6812h13.5513h22.4951h13.5547c0.9248,0,1.6777,0.7544,1.6777,1.6812v11.6689h-9.873v-2.8301
			c0-0.5522-0.4473-1-1-1h-6.3984c-0.5527,0-1,0.4478-1,1v2.8301H19.396v-2.8301c0-0.5522-0.4478-1-1-1h-6.4019
			c-0.5522,0-1,0.4478-1,1v2.8301H2V12.6045z M38.6885,22.4434h4.3984v5.6455h-4.3984V22.4434z M12.9941,22.4434h4.4019v5.6455
			h-4.4019V22.4434z M2,47.0728V26.2734h8.9941v2.8154c0,0.5522,0.4478,1,1,1h6.4019c0.5522,0,1-0.4478,1-1v-2.8154h17.2925v2.8154
			c0,0.5522,0.4473,1,1,1h6.3984c0.5527,0,1-0.4478,1-1v-2.8154h9.873v9.9191c-0.2042,0.1218-0.399,0.2599-0.5703,0.432
			l-0.3604,0.3594c-0.3203-0.1548-0.6445-0.2949-0.9727-0.4199v-0.4893c0-1.5991-1.3008-2.9004-2.9004-2.9004h-2.9141
			c-1.5977,0-2.8975,1.3013-2.8975,2.9004v0.3784c-0.3623,0.1274-0.7197,0.2725-1.0693,0.4341l-0.2617-0.2612
			c-0.5469-0.5469-1.2754-0.8481-2.0508-0.8481c-0.001,0-0.0029,0-0.0039,0c-0.7754,0.001-1.502,0.3027-2.043,0.8477l-2.0654,2.061
			c-0.5459,0.5454-0.8457,1.2734-0.8457,2.0498s0.2998,1.5044,0.8457,2.0503l0.2646,0.2642
			c-0.1611,0.3481-0.3057,0.7046-0.4346,1.0669h-0.3779c-1.5996,0-2.9004,1.3013-2.9004,2.9004v2.0713H4.0166
			C2.9048,49.0894,2,48.1846,2,47.0728z M62,49.9326c0,0.4966-0.4043,0.9004-0.9004,0.9004h-1.4961
			c-0.4346,0-0.8193,0.2808-0.9521,0.6948c-0.2021,0.6313-0.458,1.2363-0.7598,1.7983c-0.209,0.3887-0.1387,0.8682,0.1738,1.1802
			l1.0684,1.0693c0.1699,0.1689,0.2627,0.395,0.2627,0.6367c0,0.2412-0.0928,0.4678-0.2627,0.6372l-2.0605,2.0605
			c-0.3359,0.3359-0.9346,0.3354-1.2705,0.0005l-1.0723-1.0728c-0.3135-0.313-0.7939-0.3833-1.1807-0.1733
			c-0.5791,0.311-1.1816,0.5664-1.793,0.7583c-0.417,0.1309-0.7002,0.5171-0.7002,0.9541v1.499c0,0.4946-0.4043,0.897-0.9004,0.897
			h-2.9141c-0.4951,0-0.8975-0.4023-0.8975-0.897v-1.4082c0-0.4458-0.2949-0.8379-0.7236-0.9609
			c-0.6563-0.189-1.293-0.4399-1.8926-0.7466c-0.1445-0.0737-0.2998-0.1094-0.4551-0.1094c-0.2588,0-0.5146,0.1006-0.707,0.293
			l-0.9648,0.9648c-0.3525,0.3506-0.9229,0.3525-1.2734,0.0015l-2.0615-2.0591c-0.3506-0.3521-0.3506-0.9253-0.0029-1.2744
			l0.8789-0.8755c0.3174-0.3169,0.3857-0.8066,0.166-1.1978c-0.3506-0.625-0.6387-1.2891-0.8564-1.9736
			c-0.1318-0.415-0.5176-0.6968-0.9531-0.6968h-1.1963c-0.4961,0-0.9004-0.4038-0.9004-0.9004v-2.9146
			c0-0.4966,0.4043-0.9004,0.9004-0.9004h1.1055c0.4453,0,0.8369-0.2939,0.9609-0.7217c0.208-0.7197,0.4922-1.4165,0.8428-2.0713
			c0.209-0.3887,0.1377-0.8682-0.1738-1.1802l-0.7734-0.7725c-0.168-0.168-0.2598-0.3936-0.2598-0.6357s0.0918-0.4673,0.2588-0.6348
			l2.0674-2.0635c0.167-0.1675,0.3906-0.2598,0.6309-0.2603h0.001c0.2412,0,0.4678,0.0933,0.6367,0.2622l0.7695,0.7695
			c0.3125,0.3125,0.792,0.3823,1.1787,0.1743c0.6611-0.3535,1.3574-0.6357,2.0703-0.8384c0.4297-0.1226,0.7266-0.5151,0.7266-0.9619
			v-1.1089c0-0.4883,0.4111-0.9004,0.8975-0.9004h2.9141c0.4961,0,0.9004,0.4038,0.9004,0.9004v1.2002
			c0,0.4375,0.2842,0.8242,0.7021,0.9546c0.6699,0.209,1.333,0.4956,1.9697,0.8521c0.3906,0.2183,0.8779,0.1514,1.1943-0.1646
			l0.8818-0.8789c0.167-0.1675,0.3916-0.2603,0.6328-0.2603s0.4668,0.0928,0.6357,0.2622l2.0625,2.063
			c0.168,0.1675,0.2607,0.3921,0.2607,0.6333s-0.0928,0.4663-0.2627,0.6353l-0.9668,0.9663
			c-0.3066,0.3071-0.3809,0.7769-0.1836,1.1631c0.3125,0.6099,0.5645,1.2466,0.751,1.8931c0.123,0.4287,0.5156,0.7236,0.9609,0.7236
			h1.4043c0.4961,0,0.9004,0.4038,0.9004,0.9004V49.9326z"/>
		<path d="M48.9268,41.3384c-1.9141-0.0596-3.7119,0.6299-5.0977,1.9453c-1.3838,1.3125-2.1797,3.0898-2.2402,5.0054
			c-0.1475,4.6606,3.3535,7.2114,6.8877,7.3228c0.0811,0.0024,0.1611,0.0039,0.2422,0.0039
			c3.4541-0.0005,6.9453-2.3232,7.0879-6.873c0.0615-1.916-0.6191-3.7412-1.916-5.1392
			C52.5908,42.2026,50.8281,41.3984,48.9268,41.3384z M48.5391,53.6128c-2.4619-0.0776-5.0615-1.7568-4.9521-5.2603
			c0.0449-1.3853,0.6191-2.6699,1.6182-3.6182c0.9551-0.9063,2.1885-1.3999,3.4902-1.3999c0.0547,0,0.1113,0.001,0.167,0.0029h0.001
			c1.3623,0.043,2.627,0.6206,3.5615,1.6265c0.9365,1.0093,1.4277,2.3286,1.3838,3.7153
			C53.6982,52.1787,51.0449,53.6958,48.5391,53.6128z"/>
	</g>
</g>
<g id="_x32_2_ideas">
</g>
<g id="_x32_1_strategy_set">
</g>
<g id="_x32_0_analyzing">
</g>
<g id="_x31_9_working_time">
</g>
<g id="_x31_8_presentation">
</g>
<g id="_x31_7_target_set">
</g>
<g id="_x31_6_financial_report">
</g>
<g id="_x31_5_law">
</g>
<g id="_x31_4_list">
</g>
<g id="_x31_3_handshake">
</g>
<g id="_x31_2_agreement">
</g>
<g id="_x31_1_progress">
</g>
<g id="_x31_0_structure">
</g>
<g id="_x30_9_strategy">
</g>
<g id="_x30_8_connection">
</g>
<g id="_x30_7_profile">
</g>
<g id="_x30_6_lighthouse">
</g>
<g id="_x30_5_chart">
</g>
<g id="_x30_4_teamwork">
</g>
<g id="_x30_3_organization">
</g>
<g id="_x30_2_target">
</g>
<g id="_x30_1_planning">
</g>
</svg>
