<?xml version="1.0" encoding="iso-8859-1"?>
<!-- Generator: Adobe Illustrator 21.0.2, SVG Export Plug-In . SVG Version: 6.00 Build 0)  -->
<svg version="1.1" xmlns="http://www.w3.org/2000/svg" xmlns:xlink="http://www.w3.org/1999/xlink" x="0px" y="0px"
     viewBox="0 0 64 64" fill="#5b39c9" style="enable-background:new 0 0 64 64;" xml:space="preserve">
<g id="_x32_5_rocket">
</g>
  <g id="_x32_4_focus">
</g>
  <g id="_x32_3_case">
</g>
  <g id="_x32_2_ideas">
</g>
  <g id="_x32_1_strategy_set">
</g>
  <g id="_x32_0_analyzing">
</g>
  <g id="_x31_9_working_time">
</g>
  <g id="_x31_8_presentation">
</g>
  <g id="_x31_7_target_set">
</g>
  <g id="_x31_6_financial_report">
</g>
  <g id="_x31_5_law">
</g>
  <g id="_x31_4_list">
</g>
  <g id="_x31_3_handshake">
</g>
  <g id="_x31_2_agreement">
	<g>
		<path d="M63.0826,32.2397l-8.5363-10.2002V9.5639c0-0.2788-0.1167-0.5449-0.3213-0.7343l-8.9035-8.2287
			c-0.0849-0.0784-0.1826-0.1346-0.2851-0.1786c-0.0317-0.0137-0.0642-0.0207-0.0972-0.0311
			c-0.077-0.0241-0.1544-0.0392-0.2349-0.0443c-0.0211-0.0013-0.0402-0.0116-0.0615-0.0116H10.7604
			c-2.4066,0-4.3646,2.0151-4.3646,4.492v20.8656L0.919,32.2397c-1.3984,1.6718-1.1757,4.1698,0.4961,5.5681l4.9808,4.1669v12.9355
			c0,2.4784,1.9579,4.4949,4.3646,4.4949h11.0469c0.4746,0.6558,1.1594,1.1572,1.9248,1.3613
			c0.2095,0.0557,0.4804,0.1035,0.7929,0.1035c0.7036,0,1.6191-0.2427,2.5165-1.1875l0.0219-0.023
			c1.0974,1.3856,2.263,2.5081,3.5492,3.3818c0.6172,0.418,1.3481,0.6235,2.0829,0.6235c0.9013,0,1.809-0.3091,2.5219-0.914
			c0.7509-0.6372,1.1621-1.5014,1.2094-2.454c1.147,0.1606,2.2604-0.2136,3.0721-0.8916h10.6861
			c2.4047,0,4.3612-2.0165,4.3612-4.4949v-11.716c0.0182,0.0002,0.036,0.0036,0.0542,0.0036c0.9594,0,1.935-0.3291,2.6977-0.9687
			l5.2884-4.4212c0.8071-0.6753,1.3032-1.6274,1.3974-2.6815C64.0777,34.0717,63.7579,33.0468,63.0826,32.2397z M45.6429,3.6212
			l5.0652,4.6815h-2.913c-1.4682-0.0186-2.1523-1.3417-2.1523-2.2304V3.6212z M8.3958,4.8272c0-1.374,1.061-2.4921,2.3647-2.4921
			H43.643v3.7372c0,2.0097,1.5781,4.1981,4.1395,4.2303h4.764v10.2183c-0.3115-0.1101-0.633-0.1959-0.9712-0.226
			c-1.0527-0.0957-2.0771,0.2256-2.8847,0.9013l-5.2889,4.4212c-0.9683,0.8114-1.5252,1.9656-1.5883,3.1071
			c-3.1136-0.295-9.9598-0.7651-12.7636,0.4552c-3.4327-1.672-5.8596-1.7612-7.2257-1.7117
			c-0.2179-0.6978-0.6232-1.3457-1.2233-1.8496c-0.0005-0.0005-0.001-0.001-0.002-0.0015l-5.2879-4.4207
			c-0.8071-0.6753-1.8344-0.9951-2.8861-0.9013c-1.0546,0.0937-2.0068,0.5898-2.682,1.3969l-1.3471,1.6104V4.8272z M46.968,46.661
			c-2.733-1.6974-6.9392-5.2333-9.383-8.4721l0.8805-0.048c0.5513-0.0303,0.9741-0.5014,0.9438-1.0532
			c-0.0303-0.5517-0.5044-0.9721-1.0532-0.9438l-7.3244,0.3994c-0.1626,0.0088-0.3208,0.0576-0.4604,0.1416l-3.5819,2.1532
			c-1.1567,0.4761-2.4125-0.2163-2.9242-1.1455c-0.7138-1.2949-0.0205-2.8202,1.8549-4.0794l3.7059-2.4897
			c1.2592-0.8457,6.7312-0.9799,12.8281-0.3262l9.4044,11.0855C50.4405,44.1298,49.3518,45.3977,46.968,46.661z M2.6983,36.2738
			c-0.3974-0.3325-0.6416-0.8027-0.6884-1.3251c-0.0464-0.522,0.1108-1.0283,0.4433-1.4257L11.277,22.975
			c0.3325-0.3974,0.8027-0.6416,1.3251-0.6884c0.0601-0.0054,0.1196-0.0078,0.1792-0.0078c0.4575,0,0.895,0.1572,1.2465,0.4516
			l5.2869,4.4198c0.8257,0.6933,0.9365,1.9277,0.2461,2.7518l-8.8273,10.5518c-0.3325,0.3974-0.8032,0.6416-1.3251,0.688
			c-0.522,0.042-1.0273-0.1128-1.4257-0.4468L2.6983,36.2738z M10.7604,57.4053c-1.3037,0-2.3647-1.1191-2.3647-2.495V43.0508
			c0.2721,0.0588,0.5491,0.0986,0.8325,0.0986c0.0615,0,0.124-0.0053,0.1862-0.0082l2.1562,3.4383
			c-1.0658,1.5171-0.7756,3.1363,0.0755,4.1482c0.6229,0.7404,1.4964,1.1442,2.3936,1.2133
			c0.018,0.8842,0.4356,1.7406,1.0852,2.3568c0.6435,0.6103,1.5043,1.0009,2.3822,1.0009c0.0629,0,0.1259-0.0145,0.1889-0.0186
			c0.0113,0.0651,0.0051,0.1285,0.0206,0.1938c0.1835,0.7763,0.6491,1.4598,1.2688,1.9311H10.7604z M16.9434,47.6827l-1.9936,2.1147
			c-0.6531,0.3684-1.3791,0.1119-1.7734-0.3572c-0.4834-0.5742-0.3935-1.3007,0.2461-1.9936l1.2666-1.372
			c0.5405-0.5859,1.1108-0.8325,1.6528-0.7065c0.459,0.106,0.8466,0.4756,0.9873,0.9428
			C17.429,46.6423,17.4391,47.1478,16.9434,47.6827z M18.3725,49.0822c0.0031-0.0031,0.0073-0.004,0.0103-0.0072
			c0.0104-0.011,0.0183-0.0229,0.0286-0.034l1.1091-1.1764c0.4619-0.4892,0.934-0.5039,1.247-0.4282
			c0.4775,0.1143,0.9033,0.5063,1.0351,0.9541c0.1216,0.4136-0.0093,0.8247-0.3901,1.2226l-0.484,0.5067
			c-0.1044,0.098-0.2045,0.2057-0.303,0.3172l-2.03,2.125c-0.0001,0.0001-0.0002,0.0001-0.0002,0.0002
			c-0.0002,0.0002-0.0004,0.0005-0.0007,0.0008l-0.3724,0.3898c-0.7431,0.7783-1.623-0.0127-1.7206-0.106
			c-0.1479-0.1401-0.853-0.875-0.2046-1.5629L18.3725,49.0822z M22.0022,55.524c-0.3364,0.3198-0.8574,0.6645-1.4213,0.4961
			c-0.4375-0.1304-0.8061-0.5346-0.9174-1.0053c-0.0866-0.3672,0.0052-0.6851,0.2622-0.95l2.4218-2.5352
			c0.3143-0.2787,0.7258-0.4955,1.2016-0.395c0.4844,0.102,0.9204,0.5176,1.06,1.0102c0.0923,0.3266,0.0918,0.8208-0.4355,1.3212
			L22.0022,55.524z M26.8663,56.9653l-1.2744,1.3393c-0.4468,0.4697-0.9008,0.644-1.3447,0.5293
			c-0.4868-0.1299-0.9487-0.6162-1.0742-1.1318c-0.1079-0.4414,0.0898-0.6216,0.1548-0.6806
			c0.002-0.0018,0.0027-0.0045,0.0047-0.0063c0.0154-0.0143,0.0306-0.0254,0.0461-0.04l2.1708-2.058
			c0.0156-0.0148,0.0278-0.0312,0.0431-0.0461c0.0023-0.0024,0.0054-0.0032,0.0076-0.0056c0.1909-0.21,0.4477-0.2798,0.7675-0.2085
			c0.4599,0.1045,0.8715,0.4751,1.0005,0.9008C27.5352,56.1089,27.1871,56.6275,26.8663,56.9653z M39.4249,54.4552
			c-0.1116-0.0836-0.2349-0.1384-0.3623-0.1697c-0.8969-0.4542-1.4864-0.9814-1.9892-1.798
			c-0.29-0.4702-0.9057-0.6172-1.3759-0.3271c-0.4702,0.2895-0.6167,0.9057-0.3271,1.3759c0.726,1.1787,1.6347,1.9863,2.9472,2.6195
			c0.0002,0.0001,0.0005,0.0001,0.0008,0.0002c0.5993,0.6024,0.4232,1.1307,0.1447,1.4763
			c-0.4883,0.6059-1.6664,1.083-2.7626,0.2475c-0.0046-0.0035-0.0104-0.0045-0.015-0.0079
			c-0.0045-0.0033-0.0063-0.0084-0.0109-0.0117c-0.6636-0.4731-1.9941-1.664-2.4735-2.3388
			c-0.3208-0.4497-0.9443-0.5552-1.3945-0.2363c-0.4502,0.3198-0.5561,0.9443-0.2363,1.3945
			c0.5918,0.833,1.8606,1.9823,2.6818,2.6132c0.3038,0.7972,0.2035,1.4816-0.3284,1.933c-0.6133,0.521-1.5551,0.5888-2.1884,0.1601
			c-1.1845-0.8042-2.2621-1.8689-3.2857-3.2038c1.1513-1.3196,1.0264-2.5652,0.8332-3.2042
			c-0.3384-1.1162-1.309-2.0077-2.473-2.2714c-0.0566-0.0129-0.1106-0.0073-0.1668-0.017c0.0242-0.3589-0.0063-0.7244-0.1096-1.0894
			c-0.3442-1.2158-1.354-2.1664-2.5727-2.4228c-0.0523-0.0111-0.1045-0.0129-0.1569-0.0214
			c0.0701-0.4398,0.0473-0.8896-0.0829-1.3311c-0.3349-1.1362-1.3115-2.0527-2.4882-2.3339
			c-0.6911-0.1644-1.3825-0.095-2.0117,0.1804c-0.3647-1.1287-1.2886-1.9894-2.4305-2.2521
			c-1.2446-0.2847-2.5443,0.1875-3.5712,1.2988l-0.2712,0.2937l-1.5733-2.5088c0.3281-0.2122,0.6355-0.4585,0.8929-0.7663
			l8.8268-10.5514c0.4291-0.5126,0.6873-1.106,0.8159-1.7192c1.0721-0.0358,2.7446,0.0278,5.1185,0.9926l-2.2241,1.4941
			c-3.3295,2.2358-3.4701,4.9295-2.4911,6.7053c1.102,1.9989,3.5345,2.871,5.5364,1.9867c0.0381-0.0166,0.0752-0.0361,0.1108-0.0576
			l3.4276-2.061l3.8474-0.2097c2.6049,3.9976,7.97,8.4485,11.0687,10.2784c0.0358,0.0281,0.0687,0.0596,0.1077,0.0825
			c0.3816,0.6763-0.2535,1.4674-0.394,1.6287c-0.5925,0.6798-1.6191,1.1568-2.5365,0.6952
			c-0.0295-0.0154-0.0463-0.0441-0.0781-0.0566c-1.5585-0.6118-2.2055-1.3974-2.7343-2.1493
			c-0.3174-0.4521-0.9419-0.561-1.393-0.2427c-0.4516,0.3174-0.5605,0.9414-0.2427,1.393c0.6636,0.9441,1.5225,1.9109,3.1894,2.664
			c0.5018,0.5038,0.326,1.245-0.0733,1.7421C41.6294,55.0006,40.6397,55.3678,39.4249,54.4552z M52.5464,54.9102
			c0,1.3759-1.059,2.495-2.3612,2.495h-9.4998c0.0217-0.1329,0.0419-0.2663,0.0446-0.4028
			c1.2358,0.0288,2.3075-0.5625,2.9794-1.3979c0.5938-0.7396,0.8519-1.6008,0.8026-2.4201
			c1.1932-0.0891,2.2917-0.7364,3.0131-1.5626c0.9306-1.0662,1.2168-2.3489,0.8417-3.4426c1.9401-1.105,3.1216-2.2818,4.1796-3.739
			V54.9102z M61.3034,36.2738l-5.2893,4.4222c-0.6534,0.5476-1.6219,0.6495-2.3084,0.2726l-9.8471-11.6073
			c-0.1968-0.7091,0.1389-1.6337,0.8269-2.2102l5.2884-4.4207c0.3974-0.3325,0.9067-0.4868,1.4238-0.4438
			c0.521,0.0469,0.9912,0.291,1.3237,0.6884l8.8273,10.5479c0.3325,0.3974,0.4897,0.9038,0.4433,1.4257
			C61.945,35.4711,61.7009,35.9413,61.3034,36.2738z"/>
    <path d="M21.7,10.9705h18.6707c0.5522,0,1-0.4477,1-1c0-0.5522-0.4477-1-1-1H21.7c-0.5522,0-1,0.4477-1,1
			C20.7,10.5228,21.1477,10.9705,21.7,10.9705z"/>
    <path d="M21.7,17.4385h3.2269c0.5522,0,1-0.4477,1-1c0-0.5522-0.4477-1-1-1H21.7c-0.5522,0-1,0.4477-1,1
			C20.7,16.9908,21.1477,17.4385,21.7,17.4385z"/>
    <path d="M32.6507,15.4386h-3.2269c-0.5522,0-1,0.4477-1,1c0,0.5522,0.4477,1,1,1h3.2269c0.5522,0,1-0.4477,1-1
			C33.6507,15.8864,33.2029,15.4386,32.6507,15.4386z"/>
    <path d="M40.3706,15.4386h-3.2264c-0.5522,0-1,0.4477-1,1c0,0.5522,0.4477,1,1,1h3.2264c0.5522,0,1-0.4477,1-1
			C41.3706,15.8864,40.9229,15.4386,40.3706,15.4386z"/>
	</g>
</g>
  <g id="_x31_1_progress">
</g>
  <g id="_x31_0_structure">
</g>
  <g id="_x30_9_strategy">
</g>
  <g id="_x30_8_connection">
</g>
  <g id="_x30_7_profile">
</g>
  <g id="_x30_6_lighthouse">
</g>
  <g id="_x30_5_chart">
</g>
  <g id="_x30_4_teamwork">
</g>
  <g id="_x30_3_organization">
</g>
  <g id="_x30_2_target">
</g>
  <g id="_x30_1_planning">
</g>
</svg>
