<?xml version="1.0" encoding="iso-8859-1"?>
<!-- Generator: Adobe Illustrator 21.0.2, SVG Export Plug-In . SVG Version: 6.00 Build 0)  -->
<svg version="1.1" xmlns="http://www.w3.org/2000/svg" xmlns:xlink="http://www.w3.org/1999/xlink" x="0px" y="0px"
	 viewBox="0 0 64 64" fill="#5b39c9" style="enable-background:new 0 0 64 64;" xml:space="preserve">
<g id="_x32_5_rocket">
</g>
<g id="_x32_4_focus">
</g>
<g id="_x32_3_case">
</g>
<g id="_x32_2_ideas">
</g>
<g id="_x32_1_strategy_set">
</g>
<g id="_x32_0_analyzing">
</g>
<g id="_x31_9_working_time">
</g>
<g id="_x31_8_presentation">
</g>
<g id="_x31_7_target_set">
</g>
<g id="_x31_6_financial_report">
</g>
<g id="_x31_5_law">
</g>
<g id="_x31_4_list">
</g>
<g id="_x31_3_handshake">
</g>
<g id="_x31_2_agreement">
</g>
<g id="_x31_1_progress">
</g>
<g id="_x31_0_structure">
</g>
<g id="_x30_9_strategy">
</g>
<g id="_x30_8_connection">
</g>
<g id="_x30_7_profile">
</g>
<g id="_x30_6_lighthouse">
</g>
<g id="_x30_5_chart">
</g>
<g id="_x30_4_teamwork">
	<g>
		<path d="M55.5889,12.4912h-0.4813c1.3759-1.3206,2.2391-3.1804,2.2391-5.2437C57.3467,3.2515,54.1279,0,50.1709,0
			s-7.1768,3.2515-7.1768,7.2476c0,2.0632,0.8636,3.9231,2.2397,5.2437h-1.7241c-2.2054,0.0068-4.132,0.7677-5.5069,2.1163
			c-1.3338-2.0483-3.6105-3.4019-6.1923-3.4019c-2.4918,0-4.6959,1.2639-6.046,3.1932c-1.3635-1.2137-3.2133-1.9006-5.2802-1.9075
			h-0.4823c1.3759-1.3206,2.2391-3.1804,2.2391-5.2437C22.2412,3.2515,19.0225,0,15.0654,0S7.8896,3.2515,7.8896,7.2476
			c0,2.0632,0.8632,3.9231,2.2391,5.2437H8.4033c-3.8174,0.0161-7.668,2.395-7.668,7.6729v10.5698
			c0,1.0415,0.8008,1.8892,1.7852,1.8892h2.5186v3.6294V53.291c0,0.5522,0.4473,1,1,1h8.4053h7.6113V63c0,0.5522,0.4473,1,1,1
			h8.7656h8.7617c0.5527,0,1-0.4478,1-1v-8.709h7.9697h8.4043c0.5527,0,1-0.4478,1-1V36.2524V32.623h2.5186
			c0.9863,0,1.7891-0.8477,1.7891-1.8892V20.1641C63.2646,14.8862,59.4121,12.5073,55.5889,12.4912z M44.9941,7.2476
			C44.9941,4.354,47.3164,2,50.1709,2c2.8535,0,5.1758,2.354,5.1758,5.2476c0,2.8911-2.3223,5.2437-5.1758,5.2437
			C47.3164,12.4912,44.9941,10.1387,44.9941,7.2476z M31.8105,13.2056c2.998,0,5.4365,2.5142,5.4365,5.6045
			c0,3.0884-2.4385,5.6011-5.4365,5.6011s-5.4365-2.5127-5.4365-5.6011C26.374,15.7197,28.8125,13.2056,31.8105,13.2056z
			 M44.0693,31.7124v9.8232H41.583V33.27c0-0.5522-0.4473-1-1-1s-1,0.4478-1,1v9.2656v3.3721h-7.7617h-7.7656v-3.3721V33.27
			c0-0.5522-0.4473-1-1-1s-1,0.4478-1,1v8.2656h-2.4863v-9.8232c0-3.8999,3.2109-5.293,5.9609-5.3013h5.2803v4.5547
			c0,0.5522,0.4473,1,1,1s1-0.4478,1-1v-4.5547h5.2979C40.8584,26.4194,44.0693,27.8125,44.0693,31.7124z M9.8896,7.2476
			C9.8896,4.354,12.2119,2,15.0654,2s5.1758,2.354,5.1758,5.2476c0,2.8911-2.3223,5.2437-5.1758,5.2437
			S9.8896,10.1387,9.8896,7.2476z M2.7354,30.623v-10.459c0-4.1694,3.0576-5.6616,5.6719-5.6729h5.6582v4.5547
			c0,0.5522,0.4473,1,1,1s1-0.4478,1-1v-4.5547h4.416c1.7722,0.0062,3.3184,0.648,4.3313,1.7704
			c-0.2789,0.7981-0.4387,1.6536-0.4387,2.5485c0,2.2178,0.9397,4.2103,2.4268,5.6011h-1.2734c-0.001,0-0.002,0-0.0029,0
			c-0.9332,0.0027-1.8666,0.1354-2.751,0.3949v-2.4486c0-0.5522-0.4473-1-1-1s-1,0.4478-1,1v3.3297
			c-1.878,1.1597-3.2041,3.1323-3.2041,6.0253v3.54h-3.125H7.0391V31.623v-9.2656c0-0.5522-0.4473-1-1-1s-1,0.4478-1,1v8.2656
			H2.7354z M7.0391,37.2524h6.4053V52.291H7.0391V37.2524z M15.4443,52.291V37.2524h2.125v4.4438
			c0,1.0142,0.8174,1.8394,1.8213,1.8394h2.665v3.3721v5.3833H15.4443z M24.0557,47.9077h6.7656V62h-6.7656V47.9077z M39.583,62
			h-6.7617V47.9077h6.7617V62z M41.583,46.9077v-3.3721h2.6689c1.002,0,1.8174-0.8252,1.8174-1.8394v-4.4438h2.4834V52.291H41.583
			V46.9077z M56.957,52.291h-6.4043V37.2524h6.4043V52.291z M61.2646,30.623H58.957v-8.2656c0-0.5522-0.4473-1-1-1s-1,0.4478-1,1
			v9.2656v3.6294h-7.4043h-3.4834v-3.54c0-2.8765-1.3104-4.8439-3.1719-6.0063v-3.3486c0-0.5522-0.4473-1-1-1s-1,0.4478-1,1v2.4576
			c-0.8946-0.2661-1.8405-0.4011-2.7861-0.4039h-1.291c1.4871-1.3907,2.4268-3.3833,2.4268-5.6011
			c0-0.773-0.115-1.5187-0.3256-2.222c0.9965-1.3275,2.6398-2.0905,4.5912-2.0968h5.6582v4.5547c0,0.5522,0.4473,1,1,1s1-0.4478,1-1
			v-4.5547h4.4141c2.6201,0.0112,5.6797,1.5034,5.6797,5.6729V30.623z"/>
		<path d="M31.8105,33.6382c-0.5527,0-1,0.4478-1,1v0.1567c0,0.5522,0.4473,1,1,1s1-0.4478,1-1v-0.1567
			C32.8105,34.0859,32.3633,33.6382,31.8105,33.6382z"/>
		<path d="M50.1709,21.7183c-0.5527,0-1,0.4478-1,1v0.1567c0,0.5522,0.4473,1,1,1s1-0.4478,1-1v-0.1567
			C51.1709,22.166,50.7236,21.7183,50.1709,21.7183z"/>
		<path d="M15.0654,23.875c0.5527,0,1-0.4478,1-1v-0.1567c0-0.5522-0.4473-1-1-1s-1,0.4478-1,1v0.1567
			C14.0654,23.4272,14.5127,23.875,15.0654,23.875z"/>
	</g>
</g>
<g id="_x30_3_organization">
</g>
<g id="_x30_2_target">
</g>
<g id="_x30_1_planning">
</g>
</svg>
