<svg xmlns="http://www.w3.org/2000/svg" xmlns:xlink="http://www.w3.org/1999/xlink" width="66" height="66" viewBox="0 0 66 66">
  <defs>
    <style>
      .cls-1 {
        fill: #f77ade;
      }

      .cls-2 {
        fill: #fff;
      }

      .cls-3 {
        filter: url(#Ellipse_137);
      }
    </style>
    <filter id="Ellipse_137" x="0" y="0" width="66" height="66" filterUnits="userSpaceOnUse">
      <feOffset dy="3" input="SourceAlpha"/>
      <feGaussianBlur stdDeviation="7" result="blur"/>
      <feFlood flood-color="#f77ade" flood-opacity="0.278"/>
      <feComposite operator="in" in2="blur"/>
      <feComposite in="SourceGraphic"/>
    </filter>
  </defs>
  <g id="Group_897" data-name="Group 897" transform="translate(-178 18)">
    <g class="cls-3" transform="matrix(1, 0, 0, 1, 178, -18)">
      <circle id="Ellipse_137-2" data-name="Ellipse 137" class="cls-1" cx="12" cy="12" r="12" transform="translate(21 18)"/>
    </g>
    <g id="tick" transform="translate(203 -61.998)">
      <g id="Group_795" data-name="Group 795" transform="translate(0 67.997)">
        <path id="Path_22530" data-name="Path 22530" class="cls-2" d="M16.1,68.237a.817.817,0,0,0-1.155,0L5.157,78.025,1.394,74.263A.817.817,0,0,0,.239,75.418l4.34,4.34a.817.817,0,0,0,1.155,0L16.1,69.392A.817.817,0,0,0,16.1,68.237Z" transform="translate(0 -67.997)"/>
      </g>
    </g>
  </g>
</svg>
