<svg xmlns="http://www.w3.org/2000/svg" xmlns:xlink="http://www.w3.org/1999/xlink" width="296" height="280" viewBox="0 0 296 280">
  <defs>
    <style>
      .cls-1 {
        fill: none;
      }

      .cls-2 {
        fill: #ceb8ff;
      }

      .cls-3 {
        fill: #ebebff;
      }

      .cls-4 {
        clip-path: url(#clip-path);
      }

      .cls-10, .cls-5 {
        fill: #fff;
      }

      .cls-6 {
        fill: #d1d1ff;
      }

      .cls-7 {
        opacity: 0.8;
      }

      .cls-8 {
        fill: #fff2e0;
        opacity: 0.7;
      }

      .cls-9 {
        fill: #ffa121;
      }

      .cls-10 {
        opacity: 0.4;
      }

      .cls-11 {
        fill: #5b39c9;
      }

      .cls-12, .cls-17 {
        fill: #2f1693;
      }

      .cls-13 {
        fill: #c5c5ff;
      }

      .cls-14 {
        fill: #ffbc96;
      }

      .cls-15 {
        fill: #d28572;
      }

      .cls-16 {
        fill: #381baf;
      }

      .cls-17 {
        opacity: 0.3;
      }

      .cls-18 {
        fill: #ff69fb;
        opacity: 0.2;
      }
    </style>
    <clipPath id="clip-path">
      <path id="Path_22623" data-name="Path 22623" class="cls-1" d="M990.783,761.79a10.538,10.538,0,0,0,10.537,10.537h117.041A10.538,10.538,0,0,0,1128.9,761.79V690.579H990.783Z" transform="translate(-990.783 -690.579)"/>
    </clipPath>
  </defs>
  <g id="Group_889" data-name="Group 889" transform="translate(-23.911 -30.21)">
    <g id="OBJECTS" transform="translate(23.911 30.21)">
      <g id="Group_888" data-name="Group 888">
        <g id="Group_850" data-name="Group 850">
          <path id="Path_22612" data-name="Path 22612" class="cls-2" d="M589.5,858.676l-.314-.329,1.977-1.886.314.329Zm3.948-3.783-.32-.325c.642-.632,1.286-1.285,1.915-1.939l.328.316C594.742,853.6,594.095,854.258,593.45,854.893Zm3.794-3.949-.337-.307c.6-.663,1.212-1.349,1.808-2.04l.345.3C598.461,849.589,597.85,850.278,597.244,850.944Zm3.58-4.143-.352-.289c.568-.692,1.142-1.409,1.7-2.128l.359.28C601.97,845.387,601.395,846.106,600.824,846.8Zm3.37-4.314-.365-.272c.534-.718,1.074-1.46,1.6-2.205l.371.263C605.272,841.021,604.731,841.766,604.194,842.487Zm3.169-4.463-.377-.255q.765-1.13,1.507-2.274l.382.247Q608.131,836.89,607.363,838.024Zm24.948-3.157a6.666,6.666,0,0,1-2.453-.467l.169-.422a6.217,6.217,0,0,0,2.285.435c.113-.011.2,0,.295-.007l.022.455C632.522,834.864,632.4,834.857,632.311,834.866Zm3.024-.778-.228-.394a4.945,4.945,0,0,0,1.816-1.834l.4.226A5.4,5.4,0,0,1,635.334,834.088Zm-24.995-.657-.387-.24q.718-1.159,1.416-2.332l.391.233Q611.061,832.268,610.34,833.431Zm17.21-.634a7.98,7.98,0,0,1-1.5-2.362l.42-.177a7.544,7.544,0,0,0,1.413,2.229Zm10.522-3.424-.455-.01v-.121a4.728,4.728,0,0,0-.4-1.933q-.1-.228-.226-.444l.4-.225q.133.234.245.481a5.184,5.184,0,0,1,.443,2.121Zm-24.755-.477-.349-.293a17.308,17.308,0,0,1,1.94-1.971l.3.344A16.875,16.875,0,0,0,613.317,828.9Zm12.03-1.157a11.071,11.071,0,0,1-.078-1.318,11.68,11.68,0,0,1,.093-1.464l.452.057a11.236,11.236,0,0,0-.089,1.407,10.571,10.571,0,0,0,.075,1.263Zm-7.969-2.356-.24-.387a18.754,18.754,0,0,1,2.452-1.276l.18.419A18.3,18.3,0,0,0,617.377,825.382Zm17.861-.47a10.013,10.013,0,0,0-2.327-1.3l.17-.422a10.47,10.47,0,0,1,2.432,1.356Zm-12.921-1.663-.12-.439a19.576,19.576,0,0,1,2.71-.535l.056.452A19.114,19.114,0,0,0,622.317,823.25Zm8.016-.378a16.522,16.522,0,0,0-2.677-.281l.011-.455a17.01,17.01,0,0,1,2.751.289Zm-3.892-.46-.429-.154a13.629,13.629,0,0,1,1.2-2.5l.388.238A13.148,13.148,0,0,0,626.441,822.412Zm2.784-4.553-.334-.31q.2-.214.408-.421a14.777,14.777,0,0,1,1.666-1.418l.269.367a14.274,14.274,0,0,0-1.615,1.374Q629.417,817.651,629.225,817.859Zm4.31-3.176-.2-.408a16.955,16.955,0,0,1,2.571-1.021l.133.435A16.573,16.573,0,0,0,633.535,814.683Zm5.137-1.672-.113-.441c.89-.228,1.776-.467,2.632-.71l.124.438C640.455,812.542,639.566,812.781,638.672,813.01Zm5.267-1.5-.137-.435c.878-.276,1.749-.565,2.586-.858l.15.43C645.7,810.946,644.822,811.236,643.939,811.514Zm5.171-1.809-.164-.425c.852-.33,1.7-.678,2.52-1.031l.181.418C650.821,809.023,649.968,809.372,649.11,809.7Zm5.031-2.173-.2-.41,2.457-1.193.2.409Zm4.916-2.389-.2-.409,2.457-1.195.2.41Zm4.914-2.389-.2-.41,2.457-1.195.2.41Zm4.914-2.389-.2-.41,2.457-1.194.2.41Zm4.914-2.389-.2-.409,2.458-1.195.2.41Z" transform="translate(-516.398 -694.94)"/>
          <path id="Path_22613" data-name="Path 22613" class="cls-3" d="M1007.627,257.856a2.275,2.275,0,0,0,.011.278h59.884a9.486,9.486,0,0,0-9.723-8.895,10.162,10.162,0,0,0-4.659,1.117,10.621,10.621,0,0,0-5.176-9.5c-5.1-2.958-11.78-.951-14.9,4.486a11.962,11.962,0,0,0-1.573,5.153,21.651,21.651,0,0,0-8.922-1.818C1014.315,248.683,1007.627,252.792,1007.627,257.856Z" transform="translate(-858.62 -239.497)"/>
          <path id="Path_22614" data-name="Path 22614" class="cls-2" d="M238.939,1038.461h-49.38l.006-.176a7.9,7.9,0,0,1,8.135-7.451,8.571,8.571,0,0,1,3.644.811,8.893,8.893,0,0,1,4.326-7.651,8.588,8.588,0,0,1,6.579-.833,9.627,9.627,0,0,1,5.863,4.571,9.917,9.917,0,0,1,1.292,4.052,17.981,17.981,0,0,1,7.158-1.405c6.841,0,12.406,3.447,12.406,7.684a2.085,2.085,0,0,1-.01.248Zm-49.025-.342h48.712v-.057c0-4.049-5.412-7.342-12.065-7.342a17.516,17.516,0,0,0-7.238,1.474l-.225.1-.016-.247a9.563,9.563,0,0,0-1.266-4.148,9.287,9.287,0,0,0-5.655-4.41,8.252,8.252,0,0,0-6.32.8,8.571,8.571,0,0,0-4.154,7.627l.005.285-.254-.13a8.211,8.211,0,0,0-3.738-.9A7.571,7.571,0,0,0,189.914,1038.119Z" transform="translate(-189.559 -880.168)"/>
        </g>
        <g id="Group_864" data-name="Group 864" transform="translate(145.841 28.127)">
          <g id="Group_854" data-name="Group 854" transform="translate(0.228 54.036)">
            <g id="Group_853" data-name="Group 853" class="cls-4">
              <path id="Path_22615" data-name="Path 22615" class="cls-5" d="M990.783,761.79a10.538,10.538,0,0,0,10.537,10.537h117.041A10.538,10.538,0,0,0,1128.9,761.79V690.579H990.783Z" transform="translate(-990.783 -690.579)"/>
              <path id="Path_22616" data-name="Path 22616" class="cls-6" d="M861.512,747.13a14.245,14.245,0,0,1,12.3-9.57,14.492,14.492,0,0,1,13.719,7.609,8.539,8.539,0,0,1,7.339,4.129,7.941,7.941,0,0,1-.256,8.2,11.59,11.59,0,0,1,8.276,6.066,10.874,10.874,0,0,1-.222,10.026,13.309,13.309,0,0,1,12.6.456,12.394,12.394,0,0,1,5.956,10.749A13.258,13.258,0,0,1,944,785.828a21.068,21.068,0,0,1,14.8-13.405,21.953,21.953,0,0,1,19.645,4.978c7.7,1.205,13.318,9.57,11.311,16.851a15.545,15.545,0,0,1,5.418,14.263,15.9,15.9,0,0,1-9.774,11.877l-132.545-.086-11.3-50.569Z" transform="translate(-868.74 -728.972)"/>
              <g id="Group_851" data-name="Group 851" class="cls-7" transform="translate(-28.626 25.334)">
                <path id="Path_22617" data-name="Path 22617" class="cls-5" d="M852.919,839.286a13.536,13.536,0,0,1,25.142-1.982,8.009,8.009,0,0,1,6.833,12.318,11.026,11.026,0,0,1,7.768,16.085A12.228,12.228,0,0,1,910.585,876.9a12.592,12.592,0,0,1,22,1.02,20.287,20.287,0,0,1,33.283-8.454c7.442,1.2,12.859,9.559,10.915,16.841a15.51,15.51,0,0,1-4.229,26.143l-128.057.019-10.877-50.559Z" transform="translate(-833.624 -829.668)"/>
              </g>
              <g id="Group_852" data-name="Group 852" transform="translate(-9.635 2.28)">
                <path id="Path_22618" data-name="Path 22618" class="cls-8" d="M1040,703.095c-38.361,36.075-65.564,45.8-99.835,49.281L937.888,788.8,973.862,801.1c31.42-.911,61.589-46.4,80.225-85.417L1040,703.095" transform="translate(-937.888 -703.095)"/>
                <path id="Path_22619" data-name="Path 22619" class="cls-9" d="M1408.108,705.669c-6.237,7.379-15.643,14.437-26.737,23.97l15.137-6.17a103.072,103.072,0,0,1-6.075,9.227c3.489-1.611,9.1-5.154,10.963-7.032,0,2.621-3.159,7.005-4.535,9.4,8.074-6.91,15.419-15.346,17.792-22.757l-6.545-6.639" transform="translate(-1300.593 -705.2)"/>
                <path id="Path_22620" data-name="Path 22620" class="cls-10" d="M1467.207,707.717c-3.689,4.891-9.211,9.6-15.737,15.954l8.833-4.191c-1.107,2.031-2.717,4.875-3.615,6.1a30.907,30.907,0,0,0,6.424-4.712c-.028,1.715-1.9,4.615-2.724,6.2,4.749-4.6,9.091-10.2,10.542-15.068l-3.724-4.276" transform="translate(-1357.924 -706.875)"/>
              </g>
              <path id="Path_22621" data-name="Path 22621" class="cls-6" d="M1197.787,828.613c.049,1.141,0,3.066-1.141,3.725-1.9,1.1-3.4-1.572-4.1-2.916-.833-1.6-.62-3.6,1.263-4.311C1196.3,824.166,1197.7,826.485,1197.787,828.613Z" transform="translate(-1155.42 -800.429)"/>
              <path id="Path_22622" data-name="Path 22622" class="cls-6" d="M1692.907,1018.721c.049,1.14,0,3.066-1.14,3.725-1.9,1.1-3.4-1.572-4.1-2.916-.833-1.6-.62-3.6,1.263-4.312C1691.422,1014.274,1692.816,1016.593,1692.907,1018.721Z" transform="translate(-1560.357 -955.91)"/>
              <circle id="Ellipse_147" data-name="Ellipse 147" class="cls-6" cx="1.594" cy="1.594" r="1.594" transform="translate(30.665 13.689)"/>
              <circle id="Ellipse_148" data-name="Ellipse 148" class="cls-6" cx="2.427" cy="2.427" r="2.427" transform="translate(110.06 42.954) rotate(-26.428)"/>
            </g>
          </g>
          <g id="Group_859" data-name="Group 859" transform="translate(0 26.219)">
            <path id="Path_22624" data-name="Path 22624" class="cls-2" d="M1117.339,771.532H1000.3a10.777,10.777,0,0,1-10.765-10.765V689.329H1128.1v71.438A10.777,10.777,0,0,1,1117.339,771.532Zm-127.35-81.748v70.983a10.321,10.321,0,0,0,10.31,10.31h117.04a10.321,10.321,0,0,0,10.31-10.31V689.785Z" transform="translate(-989.534 -661.74)"/>
            <g id="Group_855" data-name="Group 855">
              <path id="Path_22625" data-name="Path 22625" class="cls-5" d="M1118.361,539.112H1001.32a10.537,10.537,0,0,0-10.537,10.537V566.7H1128.9V549.649A10.536,10.536,0,0,0,1118.361,539.112Z" transform="translate(-990.556 -538.884)"/>
              <path id="Path_22626" data-name="Path 22626" class="cls-2" d="M1128.1,565.905H989.534V548.626a10.777,10.777,0,0,1,10.765-10.765h117.04a10.777,10.777,0,0,1,10.765,10.765Zm-138.115-.455h137.659V548.626a10.321,10.321,0,0,0-10.31-10.31H1000.3a10.321,10.321,0,0,0-10.31,10.31Z" transform="translate(-989.534 -537.861)"/>
            </g>
            <g id="Group_858" data-name="Group 858" transform="translate(7.33 5.852)">
              <circle id="Ellipse_149" data-name="Ellipse 149" class="cls-6" cx="5.777" cy="5.777" r="5.777" transform="matrix(0.199, -0.98, 0.98, 0.199, 0, 12.682)"/>
              <g id="Group_856" data-name="Group 856" transform="translate(15.657 0)">
                <circle id="Ellipse_150" data-name="Ellipse 150" class="cls-5" cx="5.777" cy="5.777" r="5.777" transform="translate(0 8.17) rotate(-45)"/>
                <path id="Path_22627" data-name="Path 22627" class="cls-2" d="M1133.627,593.889a6,6,0,1,1,6-6.005A6.011,6.011,0,0,1,1133.627,593.889Zm0-11.554a5.549,5.549,0,1,0,5.549,5.549A5.555,5.555,0,0,0,1133.627,582.334Z" transform="translate(-1125.457 -579.714)"/>
              </g>
              <g id="Group_857" data-name="Group 857" transform="translate(39.06 2.428)">
                <rect id="Rectangle_299" data-name="Rectangle 299" class="cls-5" width="34.03" height="11.028" rx="5.514" transform="translate(0.228 0.228)"/>
                <path id="Path_22628" data-name="Path 22628" class="cls-2" d="M1272.963,594.806h-23a5.742,5.742,0,1,1,0-11.484h23a5.742,5.742,0,1,1,0,11.484Zm-23-11.028a5.286,5.286,0,1,0,0,10.573h23a5.286,5.286,0,1,0,0-10.573Z" transform="translate(-1244.219 -583.322)"/>
              </g>
            </g>
          </g>
          <g id="Group_863" data-name="Group 863" transform="translate(90.895)">
            <g id="Group_860" data-name="Group 860" transform="translate(0.757 13.879)">
              <path id="Path_22629" data-name="Path 22629" class="cls-11" d="M1524.708,470.111c-9.223,8.074-25.132,2.509-30.075,8.956l14.126,11.186Z" transform="translate(-1494.284 -470.111)"/>
              <path id="Path_22630" data-name="Path 22630" class="cls-6" d="M1493.066,519.283h0a5.459,5.459,0,0,0,1,5.511l10.01,11.465,3.118-5.791Z" transform="translate(-1492.717 -510.327)"/>
            </g>
            <g id="Group_861" data-name="Group 861" transform="translate(31.216 30.433)">
              <path id="Path_22631" data-name="Path 22631" class="cls-11" d="M1702.91,561c-5.745,10.829,3.318,25.038-1.824,31.327L1686.96,581.14Z" transform="translate(-1682.038 -560.998)"/>
              <path id="Path_22632" data-name="Path 22632" class="cls-6" d="M1678.986,682.766h0a5.46,5.46,0,0,1-5.594.292l-13.454-7.115,4.922-4.363Z" transform="translate(-1659.938 -651.438)"/>
            </g>
            <path id="Path_22633" data-name="Path 22633" class="cls-12" d="M1757.457,393.916l-12.576,4.617,10.965,8.683Z" transform="translate(-1698.193 -393.916)"/>
            <path id="Path_22634" data-name="Path 22634" class="cls-13" d="M1577.909,427.947c-1.757,19.9-16.461,38.469-34.319,48.783l-16.274-12.873c6.829-21.485,19.546-36.859,39.628-44.592Z" transform="translate(-1520.257 -414.647)"/>
            <path id="Path_22635" data-name="Path 22635" class="cls-11" d="M1495.62,664.079l-7.059,4.888,20.191,15.989,3.142-8Z" transform="translate(-1488.561 -614.87)"/>
            <g id="Group_862" data-name="Group 862" transform="translate(33.574 13.452)">
              <circle id="Ellipse_151" data-name="Ellipse 151" class="cls-5" cx="7.553" cy="7.553" r="7.553" transform="translate(0 1.783) rotate(-6.78)"/>
              <path id="Path_22636" data-name="Path 22636" class="cls-2" d="M1695.451,495.081l-.048-.453a4.967,4.967,0,0,0,1.265-.307l.164.424A5.392,5.392,0,0,1,1695.451,495.081Zm-1.422-.036a5.334,5.334,0,0,1-1.363-.408l.188-.415a4.891,4.891,0,0,0,1.246.373Zm4.049-.985-.27-.366a4.952,4.952,0,0,0,.935-.906l.357.283A5.372,5.372,0,0,1,1698.078,494.06Zm-6.619-.174a5.374,5.374,0,0,1-.97-1.04l.371-.264a4.934,4.934,0,0,0,.889.952Zm8.2-1.672-.4-.21a4.9,4.9,0,0,0,.443-1.224l.445.1A5.364,5.364,0,0,1,1699.656,492.214Zm-9.83-.627a5.433,5.433,0,0,1-.309-1.388l.453-.04a4.969,4.969,0,0,0,.284,1.271Zm9.976-2.105a4.993,4.993,0,0,0-.237-1.281l.433-.141a5.4,5.4,0,0,1,.258,1.4Zm-9.774-.623-.448-.08a5.345,5.345,0,0,1,.434-1.355l.411.2A4.887,4.887,0,0,0,1690.028,488.859Zm8.975-1.831a4.928,4.928,0,0,0-.852-.985l.3-.341a5.388,5.388,0,0,1,.93,1.076Zm-7.87-.5-.346-.3a5.38,5.38,0,0,1,1.057-.951l.257.376A4.926,4.926,0,0,0,1691.134,486.527Zm5.939-1.213a4.9,4.9,0,0,0-1.231-.42l.088-.447a5.364,5.364,0,0,1,1.347.459Zm-3.808-.242-.149-.43a5.422,5.422,0,0,1,1.393-.284l.032.454A4.957,4.957,0,0,0,1693.265,485.072Z" transform="translate(-1686.488 -481.337)"/>
            </g>
            <rect id="Rectangle_300" data-name="Rectangle 300" class="cls-12" width="2.909" height="25.266" rx="1.455" transform="translate(19.113 48.36) rotate(38.375)"/>
          </g>
        </g>
        <g id="Group_883" data-name="Group 883" transform="translate(28.259 101.244)">
          <g id="Group_879" data-name="Group 879" transform="translate(6.573)">
            <g id="Group_867" data-name="Group 867" transform="translate(40.679 31.388)">
              <path id="Path_22638" data-name="Path 22638" class="cls-9" d="M613.6,981.244a21.585,21.585,0,0,0-7.935-11.394l-1.537-1.133,1.3,27,10.091-7.806Z" transform="translate(-604.123 -968.717)"/>
              <path id="Path_22639" data-name="Path 22639" class="cls-14" d="M651.882,1100.064l-2.242-4.39a4.456,4.456,0,0,0-2.779-2.268l-6.6-1.827L623.3,1080.745l-1.918-6.651-10.091,7.806.092,1.9a9.978,9.978,0,0,0,6.014,8.68l16.476,7.107,7.832.174c2.524.87,3.394,3.046,4.96,2.262.584-.292-1.7-4.046-1.7-4.046l3.785,4.177Z" transform="translate(-609.982 -1054.901)"/>
              <rect id="Rectangle_307" data-name="Rectangle 307" class="cls-15" width="3.426" height="0.522" transform="translate(10.897 28.287) rotate(-49.665)"/>
            </g>
            <g id="Group_869" data-name="Group 869" transform="translate(53.067 86.345)">
              <path id="Path_22640" data-name="Path 22640" class="cls-16" d="M672.133,1271.582l12.345-1.09c8.036-.709,15.027,5.78,15.418,14.314l2.79,60.8-17.03.531Z" transform="translate(-672.133 -1270.439)"/>
              <g id="Group_868" data-name="Group 868" transform="translate(14.893 73.441)">
                <path id="Path_22641" data-name="Path 22641" class="cls-12" d="M753.9,1675.29l.522,16.795h25.236l-12.444-10.355-.783-8.093Z" transform="translate(-753.898 -1673.637)"/>
                <rect id="Rectangle_308" data-name="Rectangle 308" class="cls-5" width="6.701" height="1.044" transform="matrix(0.792, -0.61, 0.61, 0.792, 7.687, 11.769)"/>
              </g>
            </g>
            <g id="Group_871" data-name="Group 871" transform="translate(4.138 79.031)">
              <g id="Group_870" data-name="Group 870" transform="translate(58.078 80.754)">
                <path id="Path_22642" data-name="Path 22642" class="cls-6" d="M722.366,1675.29l.522,16.795h25.236l-12.444-10.355-.783-8.093Z" transform="translate(-722.366 -1673.637)"/>
                <rect id="Rectangle_309" data-name="Rectangle 309" class="cls-5" width="6.701" height="1.044" transform="matrix(0.792, -0.61, 0.61, 0.792, 7.687, 11.769)"/>
              </g>
              <path id="Path_22643" data-name="Path 22643" class="cls-11" d="M480.385,1314.346H459.5l-14.886-45.8-2.083-6.412L412.771,1262a8.233,8.233,0,0,1-5.091-2.135,12.117,12.117,0,0,1-4.046-10.959l2.611-18.624,44.213,5.749a19.855,19.855,0,0,1,16.88,15.642Z" transform="translate(-403.511 -1230.285)"/>
              <path id="Path_22644" data-name="Path 22644" class="cls-12" d="M623.874,1405.141l-4.052,6.412-2.083-6.412Z" transform="translate(-578.719 -1373.292)"/>
            </g>
            <g id="Group_872" data-name="Group 872" transform="translate(0 29.822)">
              <path id="Path_22645" data-name="Path 22645" class="cls-9" d="M424.618,1005.954q-.321,1.292-.668,2.59l-1.566,6.4-20.624-.857-14.849-.616a6.379,6.379,0,0,1-5.984-7.675l6.923-33.316a12.647,12.647,0,0,1,11.194-10.615l16.943-1.744,5.482,1.567c5.352,2.871,5.357,8.077,5.613,11.487C428.205,988.092,426.821,997.13,424.618,1005.954Z" transform="translate(-380.791 -960.117)"/>
              <path id="Path_22646" data-name="Path 22646" class="cls-17" d="M448.524,1103.166c-.214.861,13.544,2.788,13.314,3.654l-1.566,6.4-20.624-.856c-7.205-5.435-9.9-17.261-12.531-32.079Z" transform="translate(-418.679 -1058.394)"/>
              <path id="Path_22647" data-name="Path 22647" class="cls-12" d="M521.438,1013.027a12.4,12.4,0,0,0,3.082,2.443,10.179,10.179,0,0,0,3.683,1.243,6.2,6.2,0,0,0,3.747-.551,3.852,3.852,0,0,0,2.013-3.077l.2.014a4.213,4.213,0,0,1-.519,1.987,3.957,3.957,0,0,1-1.474,1.474,6.441,6.441,0,0,1-4.037.667,10.049,10.049,0,0,1-3.837-1.375,10.835,10.835,0,0,1-3.017-2.694Z" transform="translate(-495.692 -1003.39)"/>
              <path id="Path_22648" data-name="Path 22648" class="cls-12" d="M630.618,1038.234l-.391-.028a89.679,89.679,0,0,0-1.13-19.189l.387-.058A90.044,90.044,0,0,1,630.618,1038.234Z" transform="translate(-583.87 -1008.242)"/>
            </g>
            <g id="Group_873" data-name="Group 873" transform="translate(62.39 47.878)">
              <rect id="Rectangle_310" data-name="Rectangle 310" class="cls-12" width="19.405" height="3.829" transform="translate(0 30.457)"/>
              <path id="Path_22649" data-name="Path 22649" class="cls-2" d="M839.225,1093.536H800.24l17.926-34.286h38.985Z" transform="translate(-786.23 -1059.25)"/>
            </g>
            <g id="Group_876" data-name="Group 876" transform="translate(8.651)">
              <path id="Path_22650" data-name="Path 22650" class="cls-12" d="M449.678,798.8c-4.569-4.5-13.184-2.611-13.053,4.96-9.4,2.48-9.92,12.792-6.135,18.078l3.263.261.718-3.851,1.893,3.916,9.137.587Z" transform="translate(-428.289 -796.393)"/>
              <path id="Path_22651" data-name="Path 22651" class="cls-14" d="M527.834,902.07v14.384c0,.131-.005.256-.016.381a4.828,4.828,0,0,1-6.02,4.3,9.711,9.711,0,0,1-7.284-9.481l.073-9.581Z" transform="translate(-498.809 -882.822)"/>
              <path id="Path_22652" data-name="Path 22652" class="cls-12" d="M545.442,929.975v8.166c0,.131-.005.256-.016.381-3.848-.632-8.3-5.086-9.382-9.936Z" transform="translate(-516.417 -904.508)"/>
              <path id="Path_22653" data-name="Path 22653" class="cls-14" d="M535.058,850.668a25.922,25.922,0,0,1-.82,3.425c-1.149,3.65-3.211,6.678-6.9,6.151-8.678-1.243-13.507-10.181-13.507-10.181l5.937-6.788,3.984-5.357,11.941,5.159A44.9,44.9,0,0,1,535.058,850.668Z" transform="translate(-498.248 -830.354)"/>
              <path id="Path_22654" data-name="Path 22654" class="cls-12" d="M501.38,818.826c3.808-.122,6.754-2.062,8.006-7.571,0,0,8.876,7.658,13.227,3.568,3.644-3.425-2.538-11.3-12.769-12.243a14.5,14.5,0,0,0-10.363,3.162c-4.959,3.973-5.432,13.215-.8,16.413Z" transform="translate(-483.232 -801.405)"/>
              <path id="Path_22655" data-name="Path 22655" class="cls-9" d="M502.932,810.875a4.068,4.068,0,0,1,.338-2.755,6.122,6.122,0,0,1,1.787-2.2,6.3,6.3,0,0,1,2.558-1.2,4.611,4.611,0,0,1,2.757.212,15.23,15.23,0,0,0-2.361.955,12.806,12.806,0,0,0-1.995,1.267,11.541,11.541,0,0,0-1.707,1.614A9.571,9.571,0,0,0,502.932,810.875Z" transform="translate(-489.244 -803.113)"/>
              <g id="Group_874" data-name="Group 874" transform="translate(12.916 13.597)">
                <ellipse id="Ellipse_152" data-name="Ellipse 152" class="cls-14" cx="2.97" cy="3.588" rx="2.97" ry="3.588" transform="translate(0 2.207) rotate(-21.816)"/>
                <path id="Path_22656" data-name="Path 22656" class="cls-12" d="M516.919,890.55a4.252,4.252,0,0,0-.116-1.792,4.873,4.873,0,0,0-.938-1.537l.128-.159a2.6,2.6,0,0,1,1.121,3.546Z" transform="translate(-512.829 -884.144)"/>
              </g>
              <g id="Group_875" data-name="Group 875" transform="translate(23.674 14.965)">
                <path id="Path_22657" data-name="Path 22657" class="cls-12" d="M592.033,891.255a.886.886,0,1,1-.882-.976A.932.932,0,0,1,592.033,891.255Z" transform="translate(-584.439 -888.143)"/>
                <path id="Path_22658" data-name="Path 22658" class="cls-12" d="M618.342,895.53a.789.789,0,1,1-.673-.958A.83.83,0,0,1,618.342,895.53Z" transform="translate(-606.118 -891.65)"/>
                <path id="Path_22659" data-name="Path 22659" class="cls-12" d="M583.564,879.215c.035.456-.694.5-1.769.531s-1.817.364-1.826.076.786-1.029,1.847-1.208C582.909,878.429,583.522,878.672,583.564,879.215Z" transform="translate(-576.014 -878.553)"/>
                <path id="Path_22660" data-name="Path 22660" class="cls-12" d="M618.523,882.077c-.079.449.457.565,1.252.7s1.307.543,1.347.258a1.93,1.93,0,0,0-1.231-1.384C619.1,881.362,618.618,881.542,618.523,882.077Z" transform="translate(-607.54 -880.975)"/>
                <path id="Path_22661" data-name="Path 22661" class="cls-12" d="M610.738,904.311a7.647,7.647,0,0,0,.662.687l.352.327a1.986,1.986,0,0,1,.371.416.75.75,0,0,1,.112.348.688.688,0,0,1-.087.37,1.287,1.287,0,0,1-.421.425,2.634,2.634,0,0,1-.976.354l-.076-.189a7.239,7.239,0,0,0,.778-.532,1.008,1.008,0,0,0,.243-.292c.041-.087.029-.116-.02-.218-.116-.19-.412-.444-.605-.708a2.952,2.952,0,0,1-.513-.889Z" transform="translate(-601.033 -899.619)"/>
                <path id="Path_22662" data-name="Path 22662" class="cls-12" d="M586.505,921.954a6.545,6.545,0,0,0,1.757,1.529,3.682,3.682,0,0,0,2.219.385l.054.2a2.743,2.743,0,0,1-1.262.238,2.886,2.886,0,0,1-1.259-.363,4.038,4.038,0,0,1-1.682-1.876Z" transform="translate(-581.219 -914.049)"/>
                <circle id="Ellipse_153" data-name="Ellipse 153" class="cls-18" cx="2.155" cy="2.155" r="2.155" transform="translate(0 3.042)"/>
                <path id="Path_22663" data-name="Path 22663" class="cls-18" d="M624.285,907.918a25.933,25.933,0,0,1-.82,3.425,2.154,2.154,0,0,1,.82-3.425Z" transform="translate(-611.148 -902.569)"/>
              </g>
            </g>
            <g id="Group_878" data-name="Group 878" transform="translate(8.438 42.139)">
              <g id="Group_877" data-name="Group 877" transform="translate(0 3.65)">
                <path id="Path_22664" data-name="Path 22664" class="cls-9" d="M439.561,1047.784l-12.444,5.917,3.9,9.251,13.047-6.017Z" transform="translate(-427.117 -1047.784)"/>
                <path id="Path_22665" data-name="Path 22665" class="cls-13" d="M745.981,1221.537c-.345-.173-.561-.288-.561-.288l.125-.245s.23.11.563.289Z" transform="translate(-687.443 -1189.452)"/>
                <path id="Path_22666" data-name="Path 22666" class="cls-14" d="M508.328,1122.245c-.4.794-3.483-.611-4.918-1.316,1.112.616,3.028,1.827,2.177,2.491-.684.527-2.2-.6-7.158-2.653.752.355,5.185,2.464,4.067,3.264-1.216.867-6.438-1.044-6.438-1.044l-4.527,2.433h-5.221l-18.786.12a13.684,13.684,0,0,1-3.483-.438,15.619,15.619,0,0,1-6.109-3.164,15.337,15.337,0,0,1-2.9-3.253,17.361,17.361,0,0,1-1.551-2.9l-4.955-11.737,13.048-6.02,6.808,13.82,22.451,4.877,6.265-1.566a6.585,6.585,0,0,1,4.438.955C504.433,1117.88,508.7,1121.488,508.328,1122.245Z" transform="translate(-444.63 -1088.873)"/>
              </g>
              <path id="Path_22667" data-name="Path 22667" class="cls-18" d="M493.592,1210.229a5.69,5.69,0,0,1-.339,1.942,15.621,15.621,0,0,1-6.109-3.164,15.334,15.334,0,0,1-2.9-3.253,5.745,5.745,0,0,1,9.346,4.475Z" transform="translate(-473.84 -1172.293)"/>
              <path id="Path_22668" data-name="Path 22668" class="cls-15" d="M680.626,1192.668a42.589,42.589,0,0,1,4.744-1.3,16.98,16.98,0,0,1,2.451-.349,7.393,7.393,0,0,1,1.26.033c.21.042.418.1.628.146.2.07.394.151.591.226a20.247,20.247,0,0,1,4.145,2.7c1.287,1.026,2.5,2.127,3.682,3.275l.054.053.012.067a.99.99,0,0,1-.124.706.844.844,0,0,1-.284.25.811.811,0,0,1-.326.113,2.69,2.69,0,0,1-1.173-.115,11.622,11.622,0,0,1-2.027-.851c-.639-.341-1.269-.7-1.88-1.08s-1.211-.78-1.816-1.171l.276-.441a32.437,32.437,0,0,1,3.1,2.053,8.3,8.3,0,0,1,1.4,1.287,1.85,1.85,0,0,1,.272.459.856.856,0,0,1,.062.318.611.611,0,0,1-.134.356.956.956,0,0,1-.53.3,3.087,3.087,0,0,1-.5.072l-.051.005-.056-.024-5.668-2.375.17-.4a19.743,19.743,0,0,1,2.591,1.4,3.528,3.528,0,0,1,1.127,1.049.613.613,0,0,1,.046.5.673.673,0,0,1-.337.346,1.883,1.883,0,0,1-.78.175,11,11,0,0,1-2.917-.449q-1.416-.374-2.789-.875l.069-.192c.916.307,1.848.577,2.787.8a10.763,10.763,0,0,0,2.83.371c.444-.018.974-.213.758-.506a3.3,3.3,0,0,0-1.01-.891,19.424,19.424,0,0,0-2.549-1.33l.169-.4,5.688,2.324-.107-.018a2.629,2.629,0,0,0,.409-.059.518.518,0,0,0,.267-.128c.079-.031-.027-.312-.206-.522a7.918,7.918,0,0,0-1.317-1.192,32.06,32.06,0,0,0-3.055-2l.276-.441c.6.384,1.183.8,1.794,1.164.6.38,1.219.732,1.843,1.069a11.166,11.166,0,0,0,1.927.821,2.274,2.274,0,0,0,.944.11l.1-.018a.568.568,0,0,0,.076-.039c.061-.018.079-.065.12-.1a.526.526,0,0,0,.056-.329l.066.119c-1.155-1.139-2.371-2.232-3.625-3.265a19.9,19.9,0,0,0-4.016-2.694l-.551-.219c-.188-.045-.375-.1-.564-.14a7.067,7.067,0,0,0-1.187-.045,17.119,17.119,0,0,0-2.408.292,42.383,42.383,0,0,0-4.739,1.187Z" transform="translate(-634.451 -1161.268)"/>
              <path id="Path_22669" data-name="Path 22669" class="cls-12" d="M448.243,1046.743l-.164-.356,12.875-5.94-5.362-12.549.36-.154,5.512,12.9Z" transform="translate(-444.261 -1027.744)"/>
            </g>
          </g>
          <g id="Group_880" data-name="Group 880" transform="translate(0 110.619)">
            <rect id="Rectangle_311" data-name="Rectangle 311" class="cls-12" width="0.683" height="58.825" transform="translate(20.152 5.482)"/>
            <rect id="Rectangle_312" data-name="Rectangle 312" class="cls-6" width="40.986" height="8.093" rx="4.046"/>
            <path id="Rectangle_313" data-name="Rectangle 313" class="cls-6" d="M6.753,0H20.919a6.753,6.753,0,0,1,6.753,6.753v0a0,0,0,0,1,0,0H0a0,0,0,0,1,0,0v0A6.753,6.753,0,0,1,6.753,0Z" transform="translate(6.657 61.384)"/>
          </g>
          <g id="Group_882" data-name="Group 882" transform="translate(38.071 82.164)">
            <g id="Group_881" data-name="Group 881" transform="translate(21.629 3.593)">
              <rect id="Rectangle_314" data-name="Rectangle 314" class="cls-12" width="0.683" height="109.269" transform="translate(0.012 0.364) rotate(-32.247)"/>
              <rect id="Rectangle_315" data-name="Rectangle 315" class="cls-12" width="109.269" height="0.683" transform="translate(0 92.408) rotate(-57.738)"/>
            </g>
            <rect id="Rectangle_316" data-name="Rectangle 316" class="cls-6" width="102.161" height="7.704"/>
          </g>
        </g>
        <g id="Group_885" data-name="Group 885" transform="translate(53.574 7.82)">
          <path id="Path_22670" data-name="Path 22670" class="cls-2" d="M504.874,381.382a21.35,21.35,0,1,1,21.35-21.35A21.374,21.374,0,0,1,504.874,381.382Zm0-42.244a20.894,20.894,0,1,0,20.894,20.894A20.918,20.918,0,0,0,504.874,339.137Z" transform="translate(-483.524 -328.436)"/>
          <g id="Group_884" data-name="Group 884" transform="translate(12.557)">
            <circle id="Ellipse_154" data-name="Ellipse 154" class="cls-3" cx="23.23" cy="23.23" r="23.23"/>
            <path id="Path_22671" data-name="Path 22671" class="cls-12" d="M622.221,364.639l-12.878-10.1.422-.538,12.44,9.753,6.937-5.874.442.521Z" transform="translate(-598.983 -340.968)"/>
          </g>
        </g>
        <g id="Group_887" data-name="Group 887" transform="translate(13.589 80.858)">
          <g id="Group_886" data-name="Group 886">
            <path id="Path_22672" data-name="Path 22672" class="cls-5" d="M280.65,685h-11.8a3.437,3.437,0,0,0-3.437,3.437v11.8a3.437,3.437,0,0,0,3.437,3.437h8.418l3.627,5.009v-5.021a3.435,3.435,0,0,0,3.188-3.425v-11.8A3.437,3.437,0,0,0,280.65,685Z" transform="translate(-265.189 -684.772)"/>
            <path id="Path_22673" data-name="Path 22673" class="cls-2" d="M280.1,708.359l-3.971-5.484h-8.3a3.669,3.669,0,0,1-3.665-3.665v-11.8a3.669,3.669,0,0,1,3.665-3.665h11.8a3.669,3.669,0,0,1,3.665,3.665v11.8a3.676,3.676,0,0,1-3.188,3.63Zm-12.273-24.154a3.213,3.213,0,0,0-3.209,3.209v11.8a3.213,3.213,0,0,0,3.209,3.209h8.534l3.283,4.534v-4.531l.211-.015a3.218,3.218,0,0,0,2.976-3.2v-11.8a3.213,3.213,0,0,0-3.209-3.209Z" transform="translate(-264.166 -683.75)"/>
          </g>
          <path id="Path_22674" data-name="Path 22674" class="cls-2" d="M294.138,715.948l-4.722-6.82,1.123-.778,3.475,5.019L299.248,704l1.193.667Z" transform="translate(-284.817 -700.315)"/>
        </g>
        <rect id="Rectangle_317" data-name="Rectangle 317" class="cls-12" width="279.984" height="0.683" transform="translate(9.188 279.317)"/>
      </g>
    </g>
  </g>
</svg>
