<svg id="Group_890" data-name="Group 890" xmlns="http://www.w3.org/2000/svg" xmlns:xlink="http://www.w3.org/1999/xlink" width="60" height="60" viewBox="0 0 60 60">
  <defs>
    <style>
      .cls-1 {
        fill: #fff;
        stroke: #707070;
      }

      .cls-2 {
        clip-path: url(#clip-path);
      }

      .cls-3 {
        fill: #ffdbf8;
      }

      .cls-4 {
        fill: none;
      }
    </style>
    <clipPath id="clip-path">
      <rect id="Rectangle_297" data-name="Rectangle 297" class="cls-1" width="20" height="40"/>
    </clipPath>
  </defs>
  <g id="Mask_Group_15" data-name="Mask Group 15" class="cls-2" transform="translate(50 40) rotate(90)">
    <circle id="Ellipse_146" data-name="Ellipse 146" class="cls-3" cx="20" cy="20" r="20" transform="translate(40 40) rotate(180)"/>
  </g>
  <rect id="Rectangle_318" data-name="Rectangle 318" class="cls-4" width="60" height="60"/>
  <path id="user_1_" data-name="user (1)" d="M44.193,30.47a22.483,22.483,0,0,0-5.735-3.59,1.875,1.875,0,1,0-1.523,3.427,18.752,18.752,0,0,1,4.782,2.979,7.477,7.477,0,0,1,2.533,5.62v3.469a1.877,1.877,0,0,1-1.875,1.875H5.625A1.877,1.877,0,0,1,3.75,42.375V38.907a7.477,7.477,0,0,1,2.533-5.62C8.177,31.622,13.7,27.75,24,27.75a13.891,13.891,0,1,0-8.451-2.879,26.067,26.067,0,0,0-11.741,5.6A11.227,11.227,0,0,0,0,38.907v3.469A5.631,5.631,0,0,0,5.625,48h36.75A5.631,5.631,0,0,0,48,42.375V38.907a11.227,11.227,0,0,0-3.808-8.436ZM13.875,13.875A10.125,10.125,0,1,1,24,24,10.137,10.137,0,0,1,13.875,13.875Zm0,0" transform="translate(6 6)"/>
</svg>
