<svg id="Group_18" data-name="Group 18" xmlns="http://www.w3.org/2000/svg" width="17.555" height="17.555" viewBox="0 0 17.555 17.555">
  <g id="Group_15" data-name="Group 15" transform="translate(0)">
    <g id="Group_12" data-name="Group 12">
      <circle id="Ellipse_1" data-name="Ellipse 1" cx="8.777" cy="8.777" r="8.777" fill="#ffd05d"/>
    </g>
    <g id="Group_13" data-name="Group 13" transform="translate(1.38 1.285)">
      <path id="Path_7" data-name="Path 7" d="M-391.38,257.8A8.737,8.737,0,0,1-390,262.525a8.778,8.778,0,0,1-8.778,8.778,8.737,8.737,0,0,1-4.593-1.3,8.771,8.771,0,0,0,7.4,4.05,8.778,8.778,0,0,0,8.778-8.778A8.772,8.772,0,0,0-391.38,257.8Z" transform="translate(403.37 -257.797)" fill="#fdc453"/>
    </g>
    <g id="Group_14" data-name="Group 14" transform="translate(0.586 0.648)">
      <path id="Path_8" data-name="Path 8" d="M-407.632,262.938a8.147,8.147,0,0,1,8.15-8.143,8.139,8.139,0,0,1,6.461,3.179,8.148,8.148,0,0,0-7.067-4.085,8.147,8.147,0,0,0-8.15,8.143,8.1,8.1,0,0,0,1.69,4.964A8.1,8.1,0,0,1-407.632,262.938Z" transform="translate(408.239 -253.889)" fill="#ffd77f"/>
    </g>
  </g>
  <g id="Group_16" data-name="Group 16" transform="translate(5.049 10.576)">
    <path id="Path_9" data-name="Path 9" d="M-380.905,314.716a3.753,3.753,0,0,0,3.728,3.327,3.753,3.753,0,0,0,3.728-3.327Z" transform="translate(380.905 -314.716)" fill="#695342"/>
    <path id="Path_10" data-name="Path 10" d="M-373.834,326.035a3.737,3.737,0,0,0,2.575,1.025,3.736,3.736,0,0,0,2.487-.944l-.034-.081A6.188,6.188,0,0,0-373.834,326.035Z" transform="translate(374.987 -323.732)" fill="#f06669"/>
  </g>
  <g id="Group_17" data-name="Group 17" transform="translate(2.14 4.661)">
    <path id="Path_11" data-name="Path 11" d="M-393.287,280.036s0-.009,0-.013a1.494,1.494,0,0,0-1.466-1.552,1.291,1.291,0,0,0-1.244.974h0a1.291,1.291,0,0,0-1.244-.974,1.494,1.494,0,0,0-1.467,1.552s0,.008,0,.013c0,.176,0,1.969,2.71,3.431h0C-393.286,282.006-393.282,280.213-393.287,280.036Z" transform="translate(398.708 -278.472)" fill="#e62728"/>
    <path id="Path_12" data-name="Path 12" d="M-345.2,280.036s0-.009,0-.013a1.494,1.494,0,0,0-1.467-1.552,1.291,1.291,0,0,0-1.244.974h0a1.291,1.291,0,0,0-1.244-.974,1.494,1.494,0,0,0-1.467,1.552s0,.008,0,.013c0,.176,0,1.969,2.71,3.431h0C-345.2,282.006-345.2,280.213-345.2,280.036Z" transform="translate(358.479 -278.472)" fill="#e62728"/>
  </g>
</svg>
