<?xml version="1.0" encoding="iso-8859-1"?>
<!-- Generator: Adobe Illustrator 21.0.2, SVG Export Plug-In . SVG Version: 6.00 Build 0)  -->
<svg version="1.1" xmlns="http://www.w3.org/2000/svg" xmlns:xlink="http://www.w3.org/1999/xlink" x="0px" y="0px"
     viewBox="0 0 64 64" fill="#5b39c9" style="enable-background:new 0 0 64 64;" xml:space="preserve">
<g id="graduation">
</g>
  <g id="design">
</g>
  <g id="study">
</g>
  <g id="zip">
</g>
  <g id="online_test">
</g>
  <g id="learnnig_suport">
</g>
  <g id="quis">
</g>
  <g id="idea">
	<g>
		<g>
			<path d="M31.998,7.3057c0.5527,0,1-0.4473,1-1V2c0-0.5527-0.4473-1-1-1s-1,0.4473-1,1v4.3057
				C30.998,6.8584,31.4453,7.3057,31.998,7.3057z"/>
      <path d="M10.208,27.1553H5.9023c-0.5527,0-1,0.4473-1,1s0.4473,1,1,1h4.3057c0.5527,0,1-0.4473,1-1
				S10.7607,27.1553,10.208,27.1553z"/>
      <path d="M15.6582,14.292c0.2852,0,0.5674-0.1211,0.7656-0.3555c0.3555-0.4219,0.3027-1.0527-0.1201-1.4092L13.0127,9.75
				c-0.4229-0.3574-1.0527-0.3018-1.4092,0.1201c-0.3555,0.4219-0.3027,1.0527,0.1201,1.4092l3.291,2.7773
				C15.2021,14.2148,15.4307,14.292,15.6582,14.292z"/>
      <path d="M31.9951,10.6875c-7.0225,0-13.1318,4.1738-15.9434,10.8926c-2.874,6.8672-2.5283,17.6641,6.9668,27.5029v6.1787
				c0,1.668,1.3574,3.0254,3.0254,3.0254h0.3213v1.3564c0,1.8506,1.5059,3.3564,3.3564,3.3564h4.5469
				c1.8525,0,3.3594-1.5059,3.3594-3.3564v-1.3564h0.3213c1.666,0,3.0215-1.3574,3.0215-3.0254V49.083
				c9.4961-9.8369,9.8418-20.6338,6.9688-27.501C45.1279,14.8623,39.0186,10.6875,31.9951,10.6875z M38.9707,49.6758v2.5615H25.0186
				v-2.5615H38.9707z M35.6279,59.6436c0,0.748-0.6094,1.3564-1.3594,1.3564h-4.5469c-0.748,0-1.3564-0.6084-1.3564-1.3564v-1.3564
				h7.2627V59.6436z M38.9707,55.2617c0,0.5557-0.4678,1.0254-1.0215,1.0254H26.0439c-0.5557,0-1.0254-0.4697-1.0254-1.0254v-1.0244
				h13.9521V55.2617z M39.5338,47.6758H32.998V37.1318h3.2646c0.5527,0,1-0.4473,1-1v-5.0234c0-0.5527-0.4473-1-1-1s-1,0.4473-1,1
				v4.0234h-6.5283v-4.0234c0-0.5527-0.4473-1-1-1s-1,0.4473-1,1v5.0234c0,0.5527,0.4473,1,1,1h3.2637v10.5439h-6.5425
				c-8.8051-9.1364-9.184-19.0494-6.5591-25.3242c2.4951-5.9609,7.8965-9.6641,14.0986-9.6641s11.6055,3.7041,14.0996,9.666
				C48.7196,28.6283,48.3398,38.5403,39.5338,47.6758z"/>
      <path d="M58.0977,27.1553h-4.3096c-0.5527,0-1,0.4473-1,1s0.4473,1,1,1h4.3096c0.5527,0,1-0.4473,1-1
				S58.6504,27.1553,58.0977,27.1553z"/>
      <path d="M50.9873,9.75l-3.291,2.7773c-0.4229,0.3564-0.4756,0.9873-0.1201,1.4092c0.1982,0.2344,0.4805,0.3555,0.7656,0.3555
				c0.2275,0,0.4561-0.0771,0.6436-0.2354l3.291-2.7773c0.4229-0.3564,0.4756-0.9873,0.1201-1.4092
				C52.04,9.4492,51.4102,9.3936,50.9873,9.75z"/>
		</g>
	</g>
</g>
  <g id="education">
</g>
  <g id="webinar">
</g>
  <g id="search">
</g>
  <g id="digital_libary">
</g>
  <g id="video_traning">
</g>
  <g id="online_coaching">
</g>
  <g id="formula">
</g>
  <g id="certificate">
</g>
  <g id="score">
</g>
  <g id="upload">
</g>
  <g id="sharing_ideas">
</g>
  <g id="group">
</g>
  <g id="chat">
</g>
  <g id="ebook">
</g>
  <g id="audio_book">
</g>
  <g id="smart_phone">
</g>
  <g id="list">
</g>
  <g id="reading_online">
</g>
  <g id="pdf">
</g>
  <g id="medal">
</g>
  <g id="download">
</g>
  <g id="tasklist">
</g>
</svg>
