<svg xmlns="http://www.w3.org/2000/svg" viewBox="0 0 64 64" fill="#5b39c9"><path d="M32 7.3c.6 0 1-.4 1-1V2a1 1 0 10-2 0v4.3c0 .6.4 1 1 1zM10.2 27.2H6a1 1 0 100 2h4.3a1 1 0 100-2zM15.7 14.3a1 1 0 00.6-1.8L13 9.7a1 1 0 10-1.3 1.6L15 14l.7.2zM32 10.7c-7 0-13.1 4.2-16 10.9-2.8 6.8-2.5 17.6 7 27.5v6.2a3 3 0 003 3h.4v1.3c0 1.9 1.5 3.4 3.3 3.4h4.6c1.8 0 3.3-1.5 3.3-3.4v-1.3h.3a3 3 0 003-3V49c9.6-9.9 10-20.7 7-27.5-2.8-6.7-8.9-11-15.9-11zm7 39v2.5H25v-2.5h14zm-3.4 10c0 .7-.6 1.3-1.3 1.3h-4.6c-.7 0-1.3-.6-1.3-1.4v-1.3h7.2v1.3zm3.4-4.4c0 .5-.5 1-1 1H26a1 1 0 01-1-1v-1h14v1zm.5-7.6H33V37h3.3c.5 0 1-.4 1-1v-5a1 1 0 10-2 0v4h-6.6v-4a1 1 0 10-2 0v5c0 .6.5 1 1 1H31v10.6h-6.5c-8.8-9.2-9.2-19-6.6-25.3 2.5-6 7.9-9.7 14-9.7s11.7 3.7 14.2 9.7c2.6 6.2 2.2 16.1-6.6 25.3zM58.1 27.2h-4.3a1 1 0 100 2H58a1 1 0 100-2zM51 9.8l-3.3 2.7a1 1 0 101.3 1.6l3.3-2.8A1 1 0 1051 9.7z"/></svg>