<svg xmlns="http://www.w3.org/2000/svg" viewBox="0 0 64 64" fill="#5b39c9"><path d="M63 22.3l-8.7-10.6a4 4 0 00-2.7-1.4c-1 0-2.1.3-3 1l-5.2 4.3c-1 .9-1.5 2-1.6 3.2-3.1-.3-10-.8-12.8.4a14.7 14.7 0 00-7.2-1.7 4 4 0 00-1.2-1.9l-5.3-4.4a4 4 0 00-2.9-.9c-1 .1-2 .6-2.7 1.4L1 22.3a4 4 0 00-.9 2.9c.1 1 .6 2 1.4 2.6l5.3 4.5a4 4 0 002.5.9h.2l2.2 3.4A3.3 3.3 0 0014 42c0 .9.5 1.7 1.1 2.3.7.6 1.5 1 2.4 1h.2v.2A3.4 3.4 0 0020 48a3.1 3.1 0 001.2 0v.2a3.6 3.6 0 002.5 2.6l.8.1c.7 0 1.6-.2 2.5-1.2a16 16 0 003.6 3.4 3.9 3.9 0 004.6-.3c.8-.7 1.2-1.5 1.2-2.5A4 4 0 0040 49c.4-.5.7-1.2.7-1.9 1.3 0 2.3-.5 3-1.4.6-.7.9-1.6.8-2.4 1.2 0 2.3-.7 3-1.5 1-1.1 1.2-2.4.9-3.5 2.5-1.4 3.7-3 5-5.1l1.2.1c1 0 2-.3 2.7-1l5.3-4.4a4 4 0 00.5-5.5zm-60.3 4A2 2 0 012 25c0-.5.1-1 .5-1.4L11.3 13a2 2 0 011.5-.7c.4 0 .9.2 1.2.5l5.3 4.4c.8.7 1 2 .3 2.7l-8.9 10.6c-.7.8-1.9 1-2.7.2l-5.3-4.4zm10.5 13.2c-.5-.6-.4-1.3.2-2l1.3-1.4c.5-.6 1.1-.8 1.6-.7.5.1.9.5 1 1 .1.3.1.8-.4 1.3l-2 2.1c-.6.4-1.3.1-1.7-.3zm3.3 3.4c-.1-.2-.9-.9-.2-1.6l2-2.2h.1l1.1-1.2c.5-.5 1-.5 1.3-.4.4 0 .9.5 1 1 .1.3 0 .7-.4 1.1l-.5.6-.3.3-2.4 2.5c-.7.8-1.6 0-1.7-.1zm4 3.2c-.4-.2-.7-.6-.8-1-.1-.4 0-.8.3-1l2.3-2.5c.4-.3.8-.5 1.2-.4.5 0 1 .5 1.1 1 .1.3.1.8-.4 1.3l-2.2 2c-.3.4-.9.7-1.4.6zm3.7 2.8c-.4-.2-.9-.7-1-1.2-.1-.4 0-.6.1-.6l2.2-2.2c.3-.2.5-.3.9-.2.4 0 .8.5 1 .9.1.5-.2 1-.5 1.4l-1.3 1.3c-.5.5-1 .7-1.4.6zM46 40.3c-.6.7-1.6 1.2-2.5.8l-.1-.1a5.4 5.4 0 01-2.7-2.2A1 1 0 1039 40c.5.6 1.3 1.8 3.2 2.6.5.5.4 1.3 0 1.8-.6.6-1.6 1-2.8 0a4.6 4.6 0 01-2.4-2 1 1 0 10-1.6 1.2c.7 1.1 1.6 2 3 2.6.5.6.3 1.1 0 1.5a2 2 0 01-2.7.2 14 14 0 01-2.5-2.3 1 1 0 10-1.6 1.1c.6.8 1.8 2 2.7 2.6.3.8.2 1.5-.4 2-.6.5-1.5.5-2.2.1-1.1-.8-2.2-1.9-3.3-3.2 1.2-1.3 1-2.6.9-3.2-.4-1.1-1.3-2-2.5-2.3h-.2v-1a3.4 3.4 0 00-2.6-2.5h-.2v-1.3c-.4-1.2-1.4-2.1-2.6-2.4-.7-.1-1.4 0-2 .2-.3-1.1-1.3-2-2.4-2.3-1.3-.2-2.6.2-3.6 1.3l-.3.3-1.5-2.5.9-.7L21 21.2c.4-.5.7-1 .8-1.7 1 0 2.8 0 5.1 1L24.8 22c-3.3 2.2-3.5 5-2.5 6.7a4.4 4.4 0 005.7 2l3.4-2.1 3.8-.3c2.6 4 8 8.5 11 10.3l.2.1c.4.7-.2 1.5-.4 1.6zm1-3.6a40 40 0 01-9.4-8.5h.9a1 1 0 00-.1-2l-7.4.4a1 1 0 00-.4.1L27 29c-1.2.4-2.4-.2-3-1.2-.6-1.3 0-2.8 2-4l3.6-2.5c1.3-.9 6.8-1 12.9-.4L51.9 32a11.6 11.6 0 01-5 4.8zm14.3-10.4L56 30.7c-.6.6-1.6.7-2.3.3l-9.8-11.6c-.2-.7.1-1.6.8-2.2l5.3-4.4a2 2 0 011.4-.5c.5 0 1 .3 1.3.7l8.8 10.6c.7.8.6 2-.2 2.7z"/></svg>