<?xml version="1.0" encoding="iso-8859-1"?>
<!-- Generator: Adobe Illustrator 21.0.2, SVG Export Plug-In . SVG Version: 6.00 Build 0)  -->
<svg version="1.1" xmlns="http://www.w3.org/2000/svg" xmlns:xlink="http://www.w3.org/1999/xlink" x="0px" y="0px"
     viewBox="0 0 64 64" fill="#5b39c9" style="enable-background:new 0 0 64 64;" xml:space="preserve">
<g id="_x32_5_rocket">
</g>
  <g id="_x32_4_focus">
</g>
  <g id="_x32_3_case">
</g>
  <g id="_x32_2_ideas">
</g>
  <g id="_x32_1_strategy_set">
</g>
  <g id="_x32_0_analyzing">
</g>
  <g id="_x31_9_working_time">
</g>
  <g id="_x31_8_presentation">
</g>
  <g id="_x31_7_target_set">
</g>
  <g id="_x31_6_financial_report">
</g>
  <g id="_x31_5_law">
</g>
  <g id="_x31_4_list">
</g>
  <g id="_x31_3_handshake">
	<path d="M63.0822,22.2703l-8.8249-10.549c-0.6758-0.8081-1.6289-1.3046-2.6825-1.3979c-1.0615-0.0918-2.079,0.228-2.8856,0.9028
		l-5.2899,4.4237c-0.9654,0.8105-1.5216,1.9635-1.5862,3.1038c-3.111-0.2952-9.9591-0.7663-12.7643,0.4579
		c-3.4324-1.6749-5.8587-1.7613-7.2264-1.7133c-0.2178-0.698-0.6233-1.346-1.2236-1.8493c-0.0005,0-0.001-0.0005-0.001-0.0005
		l-5.2884-4.4217c-0.8071-0.6758-1.8334-0.999-2.8861-0.9033c-1.0547,0.0937-2.0073,0.5903-2.682,1.3979l-8.822,10.548
		c-0.6762,0.8071-0.997,1.832-0.9033,2.8861c0.0937,1.0547,0.5903,2.0073,1.3979,2.682l5.2855,4.4227
		c0.7383,0.6172,1.6372,0.9179,2.5317,0.9179c0.0587,0,0.116-0.0161,0.1746-0.0186l2.1636,3.4518
		c-1.0648,1.5179-0.7748,3.1362,0.0759,4.1466c0.622,0.7395,1.4951,1.1433,2.3919,1.2124c0.0181,0.8847,0.4361,1.7416,1.0864,2.3583
		c0.643,0.6103,1.5043,1.0005,2.3818,1.0005c0.0631,0,0.1262-0.0145,0.1894-0.0186c0.0111,0.0641,0.0049,0.1266,0.0201,0.191
		c0.2734,1.163,1.1728,2.1303,2.2914,2.4648c0.228,0.0684,0.5322,0.1294,0.8886,0.1294c0.1018,0,0.209-0.0071,0.3188-0.0184
		c0.0087,0.0433,0.0046,0.0847,0.0151,0.1283c0.2993,1.2309,1.3051,2.2729,2.5024,2.5922c0.209,0.0557,0.4805,0.104,0.7934,0.104
		c0.7041,0,1.6196-0.2432,2.518-1.1889l0.0218-0.023c1.0991,1.3878,2.2651,2.5096,3.5484,3.3779
		c0.6181,0.4194,1.3501,0.6255,2.0864,0.6255c0.8989,0,1.8051-0.3076,2.516-0.9111c0.7519-0.6367,1.163-1.5019,1.2109-2.4555
		c1.413,0.1997,2.786-0.4082,3.5927-1.4091c0.4248-0.5273,0.6963-1.1879,0.7099-1.8852c1.2666,0.0347,2.3075-0.5605,2.9794-1.3959
		c0.5941-0.7393,0.8633-1.6029,0.8177-2.4236c1.1864-0.0935,2.2787-0.738,2.9966-1.5606c0.9323-1.0675,1.2183-2.3516,0.8418-3.4464
		c2.5212-1.4391,3.7709-2.9973,5.124-5.1345c0.3593,0.1037,0.7344,0.1574,1.113,0.1574c0.959,0,1.9335-0.3291,2.6981-0.9682
		l5.285-4.4227C64.256,26.4401,64.4796,23.9426,63.0822,22.2703z M2.6966,26.3029c-0.3974-0.332-0.6421-0.8027-0.6885-1.3242
		c-0.0464-0.5215,0.1113-1.0273,0.4448-1.4252l8.8229-10.5494c0.332-0.3974,0.8027-0.6421,1.3242-0.6885
		c0.0596-0.0054,0.1191-0.0078,0.1782-0.0078c0.4575,0,0.895,0.1572,1.247,0.4526l5.2894,4.4222
		c0.8242,0.6914,0.9331,1.9252,0.2436,2.7504l-8.8254,10.548c-0.6899,0.8257-1.9252,0.9355-2.7504,0.2451L2.6966,26.3029z
		 M13.1752,39.4704c-0.4834-0.5742-0.3926-1.3012,0.248-1.9955l1.2651-1.371c0.5425-0.5864,1.1152-0.8315,1.6533-0.7065
		c0.458,0.1055,0.8452,0.4751,0.9863,0.9423c0.1003,0.3323,0.1113,0.8409-0.3893,1.3777l-1.9912,2.1088
		C14.294,40.196,13.569,39.9385,13.1752,39.4704z M16.4993,42.8775c-0.1479-0.1406-0.854-0.8759-0.2046-1.5654l2.0795-2.2022
		c0.0022-0.0023,0.0052-0.0029,0.0074-0.0052c0.0073-0.0077,0.0128-0.0161,0.02-0.0238l1.1186-1.1847
		c0.4624-0.4897,0.9331-0.5014,1.246-0.4282c0.477,0.1138,0.9023,0.5058,1.0341,0.9531c0.1221,0.4141-0.0093,0.8261-0.3906,1.2255
		l-0.4877,0.51c-0.0976,0.0916-0.1909,0.1929-0.2834,0.2963l-2.4193,2.53C17.4763,43.7613,16.5974,42.9688,16.4993,42.8775z
		 M20.5788,46.0502c-0.4311-0.1294-0.8086-0.5429-0.9174-1.0063c-0.0894-0.3797,0.0097-0.7085,0.2898-0.9781l2.3926-2.5021
		c0.314-0.2785,0.7252-0.4951,1.2033-0.3967c0.4839,0.1016,0.9194,0.5166,1.0586,1.0088c0.0923,0.3262,0.0918,0.8203-0.4365,1.3212
		l-2.1684,2.0585C21.6647,45.875,21.1466,46.2197,20.5788,46.0502z M24.2461,48.8651c-0.4868-0.1299-0.9487-0.6167-1.0737-1.1323
		c-0.1069-0.4399,0.0903-0.6191,0.1553-0.6782c0.0049-0.0045,0.0065-0.0109,0.0113-0.0154c0.0127-0.0118,0.0253-0.0209,0.038-0.033
		l2.1684-2.0585c0.0153-0.0145,0.0272-0.0305,0.0421-0.045c0.0021-0.0023,0.0051-0.003,0.0072-0.0052
		c0.1948-0.2114,0.4551-0.2808,0.7739-0.209c0.4599,0.105,0.8711,0.4751,0.9995,0.9004c0.1655,0.5493-0.1821,1.0669-0.5039,1.4052
		l-1.2724,1.3418C25.145,48.806,24.6939,48.9832,24.2461,48.8651z M46.0164,40.3361c-0.584,0.6689-1.5856,1.1402-2.4906,0.7165
		c-0.0436-0.0252-0.0771-0.0618-0.1255-0.0807c-1.5546-0.6084-2.2021-1.394-2.7323-2.1464
		c-0.3174-0.4521-0.9404-0.5605-1.3935-0.2417c-0.4512,0.3179-0.5596,0.9419-0.2412,1.393
		c0.4517,0.6413,1.2779,1.7902,3.1823,2.6548c0.5118,0.5043,0.3347,1.2515-0.0672,1.7518
		c-0.5195,0.6474-1.5097,1.0136-2.7255,0.1001c-0.1122-0.0845-0.2366-0.1392-0.365-0.1704c-0.8914-0.4504-1.48-0.9765-1.9855-1.7944
		c-0.2891-0.4702-0.9052-0.6157-1.3759-0.3252c-0.4697,0.29-0.6152,0.9062-0.3252,1.3759c0.7283,1.1798,1.6362,1.9864,2.9443,2.6142
		c0.601,0.6039,0.4241,1.1328,0.1454,1.479c-0.4883,0.6069-1.6689,1.081-2.7616,0.2466c-0.0049-0.0038-0.0111-0.0048-0.0161-0.0085
		c-0.0046-0.0034-0.0066-0.0087-0.0112-0.012c-0.665-0.4736-1.995-1.6625-2.4706-2.3349c-0.3198-0.4512-0.9438-0.5581-1.394-0.2388
		c-0.4507,0.3188-0.5576,0.9428-0.2388,1.394c0.5887,0.8316,1.8582,1.9811,2.6817,2.6128c0.3039,0.7983,0.2036,1.484-0.3283,1.9349
		c-0.6123,0.519-1.5537,0.5859-2.1874,0.1553c-1.1828-0.8002-2.2608-1.8643-3.2864-3.202c1.1505-1.3172,1.0266-2.5612,0.8343-3.1991
		c-0.3364-1.1152-1.3056-2.0068-2.4696-2.2724c-0.0589-0.0133-0.1152-0.0078-0.1738-0.0176
		c0.0243-0.3589-0.0062-0.7243-0.1094-1.0893c-0.3437-1.2148-1.353-2.1655-2.5707-2.4213c-0.0525-0.0111-0.105-0.0129-0.1576-0.0212
		c0.0704-0.4407,0.0477-0.8913-0.0826-1.3337c-0.3354-1.1357-1.312-2.0517-2.4882-2.3324c-0.6903-0.1655-1.3814-0.0957-2.0102,0.18
		c-0.364-1.13-1.2877-1.9918-2.4305-2.2547c-1.2441-0.2876-2.5448,0.188-3.5707,1.2988l-0.273,0.2958l-1.5757-2.514
		c0.3256-0.2098,0.6346-0.4518,0.8961-0.7637l8.8264-10.5494c0.4286-0.513,0.6864-1.1065,0.815-1.7195
		c1.0728-0.0357,2.7466,0.0273,5.1208,0.9937l-2.224,1.4929c-3.3285,2.2358-3.4706,4.929-2.4936,6.7039
		c1.1015,2.0004,3.5341,2.8749,5.5394,1.9911c0.0386-0.0171,0.0762-0.0366,0.1123-0.0581l3.4262-2.0629l3.8483-0.2095
		c2.6006,3.9917,7.9485,8.432,11.0491,10.2672c0.0411,0.0339,0.0803,0.0701,0.1259,0.0967
		C46.7892,39.387,46.1571,40.1751,46.0164,40.3361z M46.9683,36.6914c-2.732-1.6964-6.938-5.2324-9.3818-8.4721l0.8774-0.0478
		c0.5508-0.0303,0.9736-0.5014,0.9433-1.0527c-0.0293-0.5522-0.5078-0.9721-1.0527-0.9443l-7.3225,0.3989
		c-0.1631,0.0088-0.3218,0.0576-0.4614,0.1416l-3.5795,2.1552c-1.1587,0.4741-2.4159-0.2183-2.9281-1.1484
		c-0.7124-1.2944-0.0186-2.8192,1.8569-4.079l3.7059-2.4877c1.2592-0.8481,6.7317-0.9829,12.8252-0.3286L51.857,31.913
		C50.4419,34.1558,49.3536,35.4234,46.9683,36.6914z M61.301,26.3034l-5.285,4.4227c-0.6576,0.5495-1.6318,0.6529-2.3139,0.2702
		l-9.8454-11.6046c-0.1946-0.7091,0.1413-1.6332,0.8268-2.209l5.2899-4.4227c0.3974-0.333,0.9082-0.4917,1.4248-0.4443
		c0.5215,0.0464,0.9922,0.291,1.3251,0.6889l8.8249,10.5485C62.2385,24.3786,62.1271,25.6125,61.301,26.3034z"/>
</g>
  <g id="_x31_2_agreement">
</g>
  <g id="_x31_1_progress">
</g>
  <g id="_x31_0_structure">
</g>
  <g id="_x30_9_strategy">
</g>
  <g id="_x30_8_connection">
</g>
  <g id="_x30_7_profile">
</g>
  <g id="_x30_6_lighthouse">
</g>
  <g id="_x30_5_chart">
</g>
  <g id="_x30_4_teamwork">
</g>
  <g id="_x30_3_organization">
</g>
  <g id="_x30_2_target">
</g>
  <g id="_x30_1_planning">
</g>
</svg>
