<?xml version="1.0" encoding="iso-8859-1"?>
<!-- Generator: Adobe Illustrator 21.0.2, SVG Export Plug-In . SVG Version: 6.00 Build 0)  -->
<svg version="1.1" xmlns="http://www.w3.org/2000/svg" xmlns:xlink="http://www.w3.org/1999/xlink" x="0px" y="0px"
     viewBox="0 0 64 64" fill="#5b39c9" style="enable-background:new 0 0 64 64;" xml:space="preserve">
<g id="Exam">
</g>
  <g id="online_learning">
</g>
  <g id="Upload">
</g>
  <g id="Creative_idea">
</g>
  <g id="Tablet">
</g>
  <g id="wifi_router">
</g>
  <g id="email">
</g>
  <g id="Online_Library">
</g>
  <g id="Task">
</g>
  <g id="Ebook">
</g>
  <g id="Folder">
</g>
  <g id="Pdf">
</g>
  <g id="Test">
</g>
  <g id="Podcast">
</g>
  <g id="Download_file">
</g>
  <g id="Certificate">
</g>
  <g id="Graduation">
</g>
  <g id="Computer">
</g>
  <g id="Website">
	<g>
		<path d="M60.0195,48.5098V4c0-1.6543-1.3457-3-3-3H6.9805c-1.6543,0-3,1.3457-3,3v44.5098c0,1.6543,1.3457,3,3,3h32.6612
			l1.1913,6.1094c0.0703,0.3628,0.3359,0.6572,0.6895,0.7651c0.3516,0.1089,0.7383,0.0127,0.999-0.2495l2.3945-2.394l6.9658,6.9663
			C52.0771,62.9023,52.333,63,52.5889,63s0.5117-0.0977,0.707-0.293l6.0244-6.0239c0.3906-0.3906,0.3906-1.0234,0-1.4141
			l-3.7587-3.7593h1.4579C58.6738,51.5098,60.0195,50.1641,60.0195,48.5098z M6.9805,3h50.0391c0.5518,0,1,0.4487,1,1v6.3174H5.9805
			V4C5.9805,3.4487,6.4287,3,6.9805,3z M52.5889,60.5859l-6.9658-6.9663c-0.1953-0.1953-0.4512-0.293-0.707-0.293
			s-0.5117,0.0977-0.707,0.293l-1.7725,1.7725l-2.3184-11.8877l11.8867,2.3188l-1.7715,1.772c-0.3906,0.3906-0.3906,1.0234,0,1.4141
			l6.9658,6.9668L52.5889,60.5859z M52.3545,48.3022l2.3936-2.3936c0.2617-0.2612,0.3574-0.6455,0.249-0.999
			c-0.1074-0.3535-0.4014-0.6187-0.7646-0.6895l-15.1885-2.9629c-0.3271-0.0664-0.6641,0.0391-0.8984,0.2744
			c-0.2354,0.2354-0.3379,0.5718-0.2744,0.8984l1.3806,7.0796H6.9805c-0.5518,0-1-0.4487-1-1V12.3174h52.0391v36.1924
			c0,0.5513-0.4482,1-1,1h-3.4577L52.3545,48.3022z"/>
    <path d="M9.3379,7.6934c0.5527,0,1-0.4478,1-1s-0.4473-1-1-1H9.2734c-0.5527,0-0.9678,0.4478-0.9678,1
			S8.7852,7.6934,9.3379,7.6934z"/>
    <path d="M13.4658,7.6934c0.5527,0,1-0.4478,1-1s-0.4473-1-1-1h-0.0645c-0.5527,0-0.9678,0.4478-0.9678,1
			S12.9131,7.6934,13.4658,7.6934z"/>
    <path d="M17.5938,7.6934c0.5527,0,1-0.4478,1-1s-0.4473-1-1-1h-0.0645c-0.5527,0-0.9678,0.4478-0.9678,1
			S17.041,7.6934,17.5938,7.6934z"/>
    <path d="M54.748,7.6934c0.5527,0,1-0.4478,1-1s-0.4473-1-1-1h-0.0645c-0.5527,0-0.9678,0.4478-0.9678,1
			S54.1953,7.6934,54.748,7.6934z"/>
    <path d="M25.2061,7.6934h23.4873c0.5527,0,1-0.4478,1-1s-0.4473-1-1-1H25.2061c-0.5527,0-1,0.4478-1,1
			S24.6533,7.6934,25.2061,7.6934z"/>
    <path d="M23.2764,24.9824c-0.5391-0.124-1.0742,0.2139-1.1973,0.7524l-0.8564,3.7437l-0.8779-1.8315
			c-0.166-0.3472-0.5166-0.5679-0.9014-0.5679s-0.7354,0.2207-0.9014,0.5679l-0.8779,1.8315l-0.8564-3.7437
			c-0.123-0.5386-0.6602-0.8765-1.1973-0.7524c-0.5381,0.1235-0.875,0.6597-0.752,1.1978l1.4941,6.5366
			c0.0947,0.4146,0.4414,0.7241,0.8633,0.771c0.4453,0.0522,0.8301-0.1782,1.0127-0.5615l1.2148-2.5337l1.2148,2.5337
			c0.167,0.3496,0.5195,0.5679,0.9014,0.5679c0.0361,0,0.0732-0.002,0.1113-0.0063c0.4219-0.0469,0.7686-0.3564,0.8633-0.771
			l1.4941-6.5366C24.1514,25.6421,23.8145,25.106,23.2764,24.9824z"/>
    <path d="M34.6289,24.9824c-0.54-0.124-1.0752,0.2139-1.1973,0.7524l-0.8564,3.7437l-0.8779-1.8315
			c-0.332-0.6943-1.4707-0.6943-1.8027,0l-0.8779,1.8315l-0.8564-3.7437c-0.1221-0.5386-0.6611-0.8765-1.1973-0.7524
			c-0.5381,0.1235-0.875,0.6597-0.752,1.1978l1.4941,6.5366c0.0947,0.4146,0.4414,0.7241,0.8633,0.771
			c0.4404,0.0522,0.8301-0.1782,1.0127-0.5615l1.2148-2.5337l1.2148,2.5337c0.167,0.3496,0.5195,0.5679,0.9014,0.5679
			c0.0361,0,0.0732-0.002,0.1113-0.0063c0.4219-0.0469,0.7686-0.3564,0.8633-0.771l1.4941-6.5366
			C35.5039,25.6421,35.167,25.106,34.6289,24.9824z"/>
    <path d="M45.9814,24.9824c-0.5371-0.124-1.0752,0.2139-1.1973,0.7524l-0.8564,3.7437l-0.8779-1.8315
			c-0.166-0.3472-0.5166-0.5679-0.9014-0.5679s-0.7354,0.2207-0.9014,0.5679l-0.8779,1.8315l-0.8564-3.7437
			c-0.1221-0.5386-0.6611-0.8765-1.1973-0.7524c-0.5381,0.1235-0.875,0.6597-0.752,1.1978l1.4941,6.5366
			c0.0947,0.4146,0.4414,0.7241,0.8633,0.771c0.4404,0.0522,0.8301-0.1782,1.0127-0.5615l1.2148-2.5337l1.2148,2.5337
			c0.167,0.3496,0.5195,0.5679,0.9014,0.5679c0.0361,0,0.0732-0.002,0.1113-0.0063c0.4219-0.0469,0.7686-0.3564,0.8633-0.771
			l1.4941-6.5366C46.8564,25.6421,46.5195,25.106,45.9814,24.9824z"/>
    <path d="M48.167,31.4941h-0.083c-0.5527,0-0.958,0.4478-0.958,1s0.4883,1,1.041,1s1-0.4478,1-1S48.7197,31.4941,48.167,31.4941z"
    />
	</g>
</g>
  <g id="Cloud">
</g>
  <g id="Online_class">
</g>
  <g id="lecturer">
</g>
  <g id="webcam">
</g>
  <g id="mouse">
</g>
  <g id="trophy">
</g>
  <g id="video_conference">
</g>
  <g id="Chat">
</g>
  <g id="Design_course">
</g>
  <g id="Video_tutorial">
</g>
  <g id="online_meeting_1_">
</g>
</svg>
