<svg xmlns="http://www.w3.org/2000/svg" viewBox="0 0 64 64" fill="#5b39c9"><path d="M60 48.5V4a3 3 0 00-3-3H7a3 3 0 00-3 3v44.5a3 3 0 003 3h32.6l1.2 6.1a1 1 0 001.7.5l2.4-2.4 7 7a1 1 0 001.4 0l6-6c.4-.4.4-1 0-1.4l-3.7-3.8H57a3 3 0 003-3zM7 3h50c.6 0 1 .4 1 1v6.3H6V4c0-.6.4-1 1-1zm45.6 57.6l-7-7a1 1 0 00-1.4 0l-1.8 1.8-2.3-11.9L52 45.8l-1.8 1.8a1 1 0 000 1.4l7 7-4.6 4.6zm-.2-12.3l2.3-2.4a1 1 0 00-.5-1.7l-15.2-3a1 1 0 00-1.2 1.2l1.5 7.1H7a1 1 0 01-1-1V12.3h52v36.2c0 .6-.4 1-1 1h-3.4l-1.2-1.2z"/><path d="M9.3 7.7a1 1 0 100-2c-.6 0-1 .4-1 1s.5 1 1 1zM13.5 7.7a1 1 0 100-2h-.1c-.6 0-1 .4-1 1s.5 1 1 1zM17.6 7.7a1 1 0 100-2c-.6 0-1 .4-1 1s.4 1 1 1zM54.7 7.7a1 1 0 100-2c-.6 0-1 .4-1 1s.5 1 1 1zM25.2 7.7h23.5a1 1 0 100-2H25.2a1 1 0 100 2zM23.3 25a1 1 0 00-1.2.7l-.9 3.8-.9-1.9a1 1 0 00-1.8 0l-.8 1.9-.9-3.8a1 1 0 10-2 .5l1.6 6.5c0 .4.4.7.8.8a1 1 0 001-.6l1.2-2.5 1.3 2.5a1 1 0 001.8-.2l1.5-6.5a1 1 0 00-.7-1.2zM34.6 25a1 1 0 00-1.2.7l-.8 3.8-.9-1.9c-.3-.6-1.5-.6-1.8 0l-.9 1.9-.8-3.8a1 1 0 10-2 .5l1.5 6.5a1 1 0 001.9.2l1.2-2.5 1.2 2.5a1 1 0 001.9-.2l1.5-6.5a1 1 0 00-.8-1.2zM46 25a1 1 0 00-1.2.7l-.9 3.8-.9-1.9a1 1 0 00-1.8 0l-.8 1.9-.9-3.8a1 1 0 10-2 .5l1.6 6.5a1 1 0 001.8.2l1.2-2.5 1.3 2.5a1 1 0 001.8-.2l1.5-6.5A1 1 0 0046 25zM48.2 31.5H48c-.6 0-1 .4-1 1s.5 1 1 1 1-.5 1-1-.4-1-1-1z"/></svg>