<svg xmlns="http://www.w3.org/2000/svg" viewBox="0 0 64 64" fill="#5b39c9"><path d="M42 28.7V22a1 1 0 10-2 0v7l.2.6.1.1 6 6a1 1 0 001.4 0c.4-.4.4-1 0-1.5l-5.6-5.6z"/><path d="M64 28.9A23 23 0 0041 6c-8.2 0-15.8 4.4-19.9 11.7a11.2 11.2 0 00-15 10.6c0 3.8 2 7.1 5 9.2H8.5c-4.3 0-8.6 2.7-8.6 8.8v8.5c0 .5.4 1 1 1h14.2l1.2 1.6c.2.3.5.4.8.4.3 0 .6 0 .8-.3l1.5-1.7h14.2c.5 0 1-.5 1-1v-3.6a24.1 24.1 0 0020.6-3.6A22 22 0 0064 29.3v-.4zM17.3 19c4 0 7.3 2.5 8.6 6a9 9 0 00-5.2 0c-1.8.4-3.5.7-5.7 0-3.4-1-4.5-2.1-4.8-2.6a9 9 0 017.1-3.4zm-9.1 9.2c0-1.4.3-2.8 1-4 .8.8 2.3 1.8 5.1 2.7 2.7 1 4.9.5 6.7.1 2-.4 3.6-.7 5.4.6v.6c0 5.1-4 9.3-9 9.3-5.1 0-9.2-4.2-9.2-9.3zm10.4 11.3v2.1H16v-2.1h2.5zm-5.3 13.9l.3.4H2v-7.5c0-5 3.6-6.8 6.6-6.8h5.5v3.2l-1 10c0 .2 0 .5.2.7zm5 .7l-1 1.2-2.2-2.8 1-8.9h2.6l1 8.9-1.3 1.6zm14.4-.3H21.3l.3-.4c.2-.2.3-.5.2-.8l-1.2-9.9v-3.2H26c3 0 6.7 1.8 6.7 6.8v7.5zM54 46a22 22 0 01-12 4v-2.8a1 1 0 10-2 0v2.8c-1.8 0-3.6-.4-5.3-.9v-2.8c0-6.1-4.4-8.8-8.7-8.8h-2.4A11.3 11.3 0 0028.4 27c-.4-3.6-2.5-6.7-5.4-8.5 3.5-6.2 10-10.2 17-10.5v2.8a1 1 0 102 0V8a21 21 0 0120 19.7h-2.8a1 1 0 100 2H62a19.6 19.6 0 01-8 16.3z"/></svg>