<svg xmlns="http://www.w3.org/2000/svg" viewBox="0 0 64 64" fill="#5b39c9"><path d="M24.9 30.2h.1c1 0 1.7-.4 2.3-1a1 1 0 10-1.5-1.3l-.8.3c-.4 0-.8-.2-1-.4a1 1 0 00-1.5 1.4c.7.6 1.5 1 2.4 1zM29 22.9c.3-.3.7-.4 1.1-.4.3 0 .7.1.8.3a1 1 0 101.5-1.3c-.5-.6-1.3-1-2.2-1-1 0-1.9.3-2.5 1a1 1 0 101.4 1.4zM20.2 22.8a1 1 0 001.4 0c.4-.3.4-1 0-1.3-.5-.6-1.3-1-2.1-1-1 0-1.9.3-2.5 1a1 1 0 001.3 1.4c.3-.3.7-.4 1-.4.4 0 .7.1.9.3zM45.3 26.6c-.6 0-1 .4-1 1s.4 1 1 1 1-.5 1-1-.5-1-1-1zM50.5 26.6c-.6 0-1 .4-1 1s.5 1 1 1 1-.5 1-1-.4-1-1-1zM55.8 26.6c-.6 0-1 .4-1 1s.4 1 1 1 1-.5 1-1-.5-1-1-1z"/><path d="M59.3 20A11.5 11.5 0 0043 18.8 28.6 28.6 0 0036.6 6C33.5 2.6 29.6 1 24.8 1 17.4 1 11.7 5.3 8.4 13.6 4.9 22.3 5 33.6 6.5 35c1 .8 2.5 1.6 4.2 2.3C2 41.4 2 48.4 2 53.3V62c0 .6.4 1 1 1h43.7c.5 0 1-.4 1-1v-8.7c0-4.8 0-11.6-8-15.6l3.2-1.7a11.4 11.4 0 0015 .2A11.4 11.4 0 0059.4 20zM10.7 61v-4.9a1 1 0 10-2 0V61H4v-7.7C4 47.8 4 41 14.8 38L12 43c-.2.5-.1 1 .2 1.3l3.2 3.1-2.3 5.8c-.1.4 0 .9.3 1.1L22 61H10.7zm4.6-7.8l2.2-5.7a1 1 0 00-.2-1L14 43.4l2.5-4.4 6.3 20.2-7.6-6zm3.5-19c1.8 1.4 3.8 2.3 6 2.3 1.9 0 3.9-1 5.7-2.3l1.3 2.3-1.6 5H19.4l-1.5-5 .9-2.2zm-4.9-12.8v-3.9c3-.7 3.7-1.6 4.9-3.4l1-1.4a33.2 33.2 0 0016 5v3.7c0 5-6 13-11 13-2 0-4-1-5.8-2.4-3-2.7-5-7-5-10.6zm6.2 22h9.5l-4.8 15.2-4.7-15.2zM33 39l2.4 4.5-3.1 3a1 1 0 00-.3 1.1l2.3 5.7-7.7 6L33.1 39zm12.6 14.3V61h-5.1v-4.9a1 1 0 10-2 0V61H27.7l8.5-6.6c.3-.3.5-.7.3-1.1l-2.3-5.8 3.2-3.2c.3-.3.4-.7.2-1.1L34.8 38c.7.1 1.3.4 1.9.6 9 3.3 9 9.5 9 14.7zM37 36.6c-1-.4-2.2-.7-3.5-1l-1.4-2.8c3.2-3.1 5.6-7.7 5.6-11.4v-4.7c0-.5-.4-1-1-1a32 32 0 01-16.6-5.2 1 1 0 00-1.3.2L17.1 13c-1 1.6-1.4 2.1-4.4 2.7a1 1 0 00-.8 1v4.7c0 4 2.1 8.4 5.3 11.5L16 35.6l-2.5.7c-2.4-.8-4.7-1.8-5.7-2.6-.8-1.6-1-14 4-22.8 3-5.2 7.4-7.9 13-7.9 4 0 7.5 1.4 10.2 4.3 3.3 3.5 5.2 8.5 6.2 13.3a11.4 11.4 0 00-2.2 8l-2.6 3.6a1 1 0 000 1c.1.4.4.6.8.6H41l.5.7c-1.3.7-3 1.6-4.5 2zm23-8.4a9.4 9.4 0 01-3.3 6.5 9.4 9.4 0 01-12.2 0 8.8 8.8 0 01-2-2.3 1 1 0 00-.9-.5h-2.3l1.7-2.4.2-.7a9.4 9.4 0 013.2-8.6 9.5 9.5 0 0115.6 8z"/></svg>