<svg xmlns="http://www.w3.org/2000/svg" viewBox="0 0 64 64" fill="#5b39c9"><path d="M56.1 19.5H2a1 1 0 110-2h54.1a1 1 0 110 2zM10.1 14.5a3.2 3.2 0 110-6.4 3.2 3.2 0 010 6.4zm0-4.4a1.2 1.2 0 100 2.4 1.2 1.2 0 000-2.4zM18.6 14.5a3.2 3.2 0 110-6.4 3.2 3.2 0 010 6.4zm0-4.4a1.2 1.2 0 100 2.4 1.2 1.2 0 000-2.4zM48 14.5H31.1a3.2 3.2 0 010-6.4h17a3.2 3.2 0 010 6.4zM31.1 10a1.2 1.2 0 000 2.4h17a1.2 1.2 0 000-2.4H31zM37.6 34.5a1 1 0 01-1-1v-2.2a7.6 7.6 0 00-15.2 0v2.2a1 1 0 11-2 0v-2.2a9.6 9.6 0 0119.2 0v2.2c0 .5-.4 1-1 1z"/><path d="M32.6 33.2a1 1 0 01-1-1v-1.5a2.6 2.6 0 00-5.2 0v1.5a1 1 0 11-2 0v-1.5a4.6 4.6 0 019.2 0v1.5c0 .6-.5 1-1 1z"/><path d="M39 48H19.2c-1.3 0-2.3-1-2.3-2.2v-11c0-1.3 1-2.3 2.3-2.3H39c1.2 0 2.2 1 2.2 2.2v11.1c0 1.3-1 2.3-2.2 2.3zM19.2 34.6c-.2 0-.3 0-.3.2v11.1c0 .2.1.3.3.3H39c.1 0 .2-.1.2-.3v-11c0-.2 0-.3-.2-.3H19.2z"/><path d="M29 43a1 1 0 01-1-1v-3.5a1 1 0 112 0V42c0 .6-.4 1-1 1zM53.7 60.9a3 3 0 01-1.5-.5c-2.1-1.3-4-3.5-5.6-6.4a17.2 17.2 0 01-2.1-8.2c0-1.6.6-2 1.7-2.6a17.6 17.6 0 0115 0c1.2.6 1.8 1 1.8 2.6 0 2.7-.7 5.5-2.2 8.2-1.6 3-3.4 5-5.6 6.4a3 3 0 01-1.5.5zm0-17.4c-2.3 0-4.7.5-6.6 1.5l-.6.3v.6c0 2.3.6 4.8 1.9 7.2a14 14 0 005.3 5.8s.2 0 .5-.3c1.8-1 3.5-3 4.9-5.5a15.2 15.2 0 001.8-7.8l-.5-.3c-2-1-4.3-1.5-6.7-1.5z"/><path d="M47.6 54.6H6a5.1 5.1 0 01-5.1-5V8.1c0-2.8 2.3-5 5.1-5h46c2.8 0 5 2.2 5 5v34.5a1 1 0 11-2 0V8.2c0-1.7-1.4-3-3-3H6a3.1 3.1 0 00-3.1 3v41.3c0 1.7 1.4 3.1 3.1 3.1h41.5a1 1 0 110 2z"/><path d="M53.3 53.6a1 1 0 01-.7-.3l-1.8-1.7a1 1 0 111.4-1.4l1 1 3.2-3.2a1 1 0 011.4 1.4L54 53.3a1 1 0 01-.7.3z"/></svg>