<?xml version="1.0" encoding="iso-8859-1"?>
<!-- Generator: Adobe Illustrator 21.0.2, SVG Export Plug-In . SVG Version: 6.00 Build 0)  -->
<svg version="1.1" xmlns="http://www.w3.org/2000/svg" xmlns:xlink="http://www.w3.org/1999/xlink" x="0px" y="0px"
     viewBox="0 0 64 64" fill="#5b39c9" style="enable-background:new 0 0 64 64;" xml:space="preserve">
<g id="_x32_5_network">
</g>
  <g id="_x32_4_webcam">
</g>
  <g id="_x32_3_VGA">
</g>
  <g id="_x32_2_setting">
</g>
  <g id="_x32_1_computer_fan">
</g>
  <g id="_x32_0_micro_sd">
</g>
  <g id="_x31_9_virus">
</g>
  <g id="_x31_8_laptop">
</g>
  <g id="_x31_7_mouse">
</g>
  <g id="_x31_6_mainboard">
</g>
  <g id="_x31_5_RAM">
</g>
  <g id="_x31_4_security">
	<g>
		<g>
			<path d="M56.1406,19.5278H2c-0.5527,0-1-0.4478-1-1s0.4473-1,1-1h54.1406c0.5527,0,1,0.4478,1,1S56.6934,19.5278,56.1406,19.5278
				z"/>
		</g>
    <g>
			<path d="M10.1143,14.4932c-1.75,0-3.1729-1.4233-3.1729-3.1733s1.4229-3.1733,3.1729-3.1733s3.1738,1.4233,3.1738,3.1733
				S11.8643,14.4932,10.1143,14.4932z M10.1143,10.1465c-0.6465,0-1.1729,0.5264-1.1729,1.1733s0.5264,1.1733,1.1729,1.1733
				c0.6475,0,1.1738-0.5264,1.1738-1.1733S10.7617,10.1465,10.1143,10.1465z"/>
		</g>
    <g>
			<path d="M18.5645,14.4932c-1.75,0-3.1729-1.4233-3.1729-3.1733s1.4229-3.1733,3.1729-3.1733s3.1738,1.4233,3.1738,3.1733
				S20.3145,14.4932,18.5645,14.4932z M18.5645,10.1465c-0.6465,0-1.1729,0.5264-1.1729,1.1733s0.5264,1.1733,1.1729,1.1733
				c0.6475,0,1.1738-0.5264,1.1738-1.1733S19.2119,10.1465,18.5645,10.1465z"/>
		</g>
    <g>
			<path d="M48.0254,14.4932H31.1182c-1.75,0-3.1729-1.4233-3.1729-3.1733s1.4229-3.1733,3.1729-3.1733h16.9072
				c1.75,0,3.1738,1.4233,3.1738,3.1733S49.7754,14.4932,48.0254,14.4932z M31.1182,10.1465c-0.6465,0-1.1729,0.5264-1.1729,1.1733
				s0.5264,1.1733,1.1729,1.1733h16.9072c0.6475,0,1.1738-0.5264,1.1738-1.1733s-0.5264-1.1733-1.1738-1.1733H31.1182z"/>
		</g>
    <g>
			<path d="M37.6279,34.4707c-0.5527,0-1-0.4478-1-1v-2.2144c0-4.2007-3.418-7.6182-7.6182-7.6182s-7.6172,3.4175-7.6172,7.6182
				v2.2144c0,0.5522-0.4473,1-1,1s-1-0.4478-1-1v-2.2144c0-5.3037,4.3145-9.6182,9.6172-9.6182
				c5.3037,0,9.6182,4.3145,9.6182,9.6182v2.2144C38.6279,34.0229,38.1807,34.4707,37.6279,34.4707z"/>
		</g>
    <g>
			<path d="M32.5967,33.2285c-0.5527,0-1-0.4478-1-1v-1.4854c0-1.4263-1.1602-2.5869-2.5869-2.5869
				c-1.4258,0-2.5859,1.1606-2.5859,2.5869v1.4854c0,0.5522-0.4473,1-1,1s-1-0.4478-1-1v-1.4854
				c0-2.5293,2.0576-4.5869,4.5859-4.5869c2.5293,0,4.5869,2.0576,4.5869,4.5869v1.4854
				C33.5967,32.7808,33.1494,33.2285,32.5967,33.2285z"/>
		</g>
    <g>
			<path d="M38.9795,48.0894H19.1602c-1.248,0-2.2627-1.0151-2.2627-2.2632V34.7339c0-1.248,1.0146-2.2632,2.2627-2.2632h19.8193
				c1.248,0,2.2637,1.0151,2.2637,2.2632v11.0923C41.2432,47.0742,40.2275,48.0894,38.9795,48.0894z M19.1602,34.4707
				c-0.1426,0-0.2627,0.1206-0.2627,0.2632v11.0923c0,0.1426,0.1201,0.2632,0.2627,0.2632h19.8193
				c0.1426,0,0.2637-0.1206,0.2637-0.2632V34.7339c0-0.1426-0.1211-0.2632-0.2637-0.2632H19.1602z"/>
		</g>
    <g>
			<path d="M29.0723,43.0103c-0.5527,0-1-0.4478-1-1v-3.5493c0-0.5522,0.4473-1,1-1s1,0.4478,1,1v3.5493
				C30.0723,42.5625,29.625,43.0103,29.0723,43.0103z"/>
		</g>
    <g>
			<path d="M53.7266,60.8916c-0.4482,0-0.8955-0.1772-1.4854-0.5313c-2.1465-1.2808-4.0303-3.4121-5.5996-6.3359
				c-1.4551-2.7114-2.2109-5.5425-2.1865-8.187c0.0156-1.6514,0.6338-2.0513,1.7246-2.6167
				c4.373-2.2656,10.7227-2.2651,15.0957-0.0005c1.0908,0.5659,1.709,0.9658,1.7246,2.6167
				c0.0215,2.6514-0.7344,5.4819-2.1865,8.187c-1.5713,2.9263-3.4561,5.0586-5.6025,6.3379
				C54.6211,60.7148,54.1738,60.8911,53.7266,60.8916z M53.7275,43.5044c-2.3545,0-4.707,0.4971-6.6279,1.4922
				c-0.2275,0.1177-0.54,0.2793-0.6025,0.3506c0.001,0.0034-0.0381,0.1069-0.042,0.5093c-0.0215,2.3091,0.6523,4.8062,1.9482,7.2222
				c1.3965,2.6006,3.0332,4.4731,4.8643,5.5654c0.001,0.0005,0.002,0.001,0.0029,0.0015c0.3262,0.1958,0.4365,0.2368,0.4736,0.2441
				c0.002-0.0073,0.1133-0.0483,0.4414-0.2446c1.832-1.0923,3.4688-2.9648,4.8662-5.5669c1.293-2.4102,1.9668-4.9082,1.9482-7.2231
				c-0.0039-0.4009-0.043-0.5044-0.0508-0.521c-0.0537-0.0581-0.3662-0.2197-0.5938-0.3379
				C58.4355,44.002,56.0811,43.5044,53.7275,43.5044z"/>
		</g>
    <g>
			<path d="M47.5566,54.6162H6.1035C3.2891,54.6162,1,52.3252,1,49.5093V8.2158c0-2.8145,2.2891-5.104,5.1035-5.104h45.9336
				c2.8145,0,5.1035,2.2896,5.1035,5.104v34.4619c0,0.5522-0.4473,1-1,1s-1-0.4478-1-1V8.2158c0-1.7114-1.3926-3.104-3.1035-3.104
				H6.1035C4.3926,5.1118,3,6.5044,3,8.2158v41.2935c0,1.7134,1.3926,3.1069,3.1035,3.1069h41.4531c0.5527,0,1,0.4478,1,1
				S48.1094,54.6162,47.5566,54.6162z"/>
		</g>
    <g>
			<path d="M53.2617,53.5928c-0.251,0-0.502-0.0938-0.6963-0.2827l-1.7559-1.7046c-0.3965-0.3843-0.4063-1.0176-0.0215-1.4141
				c0.3848-0.396,1.0176-0.4058,1.4141-0.0205l1.04,1.0093l3.1406-3.2217c0.3857-0.3945,1.0195-0.4023,1.4141-0.0181
				c0.3955,0.3857,0.4033,1.019,0.0176,1.4146l-3.8369,3.936C53.7822,53.4917,53.5215,53.5928,53.2617,53.5928z"/>
		</g>
	</g>
</g>
  <g id="_x31_3_usb_cable">
</g>
  <g id="_x31_2_flashdisk">
</g>
  <g id="_x31_1_speaker">
</g>
  <g id="_x31_0_software">
</g>
  <g id="_x30_9_folder">
</g>
  <g id="_x30_8_keyboard">
</g>
  <g id="_x30_7_search">
</g>
  <g id="_x30_6_chip">
</g>
  <g id="_x30_5_printer">
</g>
  <g id="_x30_4_hardisk">
</g>
  <g id="_x30_3_disc">
</g>
  <g id="_x30_2_cpu">
</g>
  <g id="_x30_1_monitor">
</g>
</svg>
