<svg xmlns="http://www.w3.org/2000/svg" xmlns:xlink="http://www.w3.org/1999/xlink" width="60" height="60" viewBox="0 0 60 60">
  <defs>
    <style>
      .cls-1 {
        fill: #fff;
        stroke: #707070;
      }

      .cls-2 {
        clip-path: url(#clip-path);
      }

      .cls-3 {
        fill: #ffdbf8;
      }
    </style>
    <clipPath id="clip-path">
      <rect id="Rectangle_297" data-name="Rectangle 297" class="cls-1" width="20" height="40"/>
    </clipPath>
  </defs>
  <g id="Group_891" data-name="Group 891" transform="translate(-5230 -2842)">
    <g id="Mask_Group_15" data-name="Mask Group 15" class="cls-2" transform="translate(5240 2862) rotate(-90)">
      <circle id="Ellipse_146" data-name="Ellipse 146" class="cls-3" cx="20" cy="20" r="20" transform="translate(40 40) rotate(180)"/>
    </g>
    <g id="shop" transform="translate(5230 2842)">
      <g id="Group_893" data-name="Group 893">
        <g id="Group_892" data-name="Group 892">
          <path id="Path_22675" data-name="Path 22675" d="M59,54H53V32.886A4.875,4.875,0,0,0,54,33a5.006,5.006,0,0,0,5-5,.99.99,0,0,0-.024-.217l-2-9A1,1,0,0,0,56,18H53V15a1,1,0,0,0-1-1H44V12h2a1,1,0,0,0,1-1V1a1,1,0,0,0-1-1H14a1,1,0,0,0-1,1V11a1,1,0,0,0,1,1h2v2H8a1,1,0,0,0-1,1v3H4a1,1,0,0,0-.976.783l-2,9A.99.99,0,0,0,1,28a5.006,5.006,0,0,0,5,5,4.875,4.875,0,0,0,1-.114V54H1a1,1,0,0,0-1,1v4a1,1,0,0,0,1,1H59a1,1,0,0,0,1-1V55A1,1,0,0,0,59,54ZM55.2,20,57,28.1a3,3,0,0,1-5.906.629A2.634,2.634,0,0,1,51,28a1.011,1.011,0,0,0-.006-.11L50.117,20ZM46,38H36a1,1,0,0,0-1,1V54H9V31.964a4.977,4.977,0,0,0,1-.984,4.972,4.972,0,0,0,8,0,4.972,4.972,0,0,0,8,0,4.972,4.972,0,0,0,8,0,4.972,4.972,0,0,0,8,0,4.973,4.973,0,0,0,8,0,4.948,4.948,0,0,0,1,.981V54H47V39A1,1,0,0,0,46,38Zm-1,2V54H37V40ZM11,28.052,11.9,20h5.988l-.877,7.89A.985.985,0,0,0,17,28a2.7,2.7,0,0,1-.1.753,3,3,0,0,1-5.808-.024A2.6,2.6,0,0,1,11,28.052Zm8,0L19.9,20H25v8a2.7,2.7,0,0,1-.1.753,3,3,0,0,1-5.808-.024A2.6,2.6,0,0,1,19,28.052ZM27,28V20h6v8a2.7,2.7,0,0,1-.1.753,3,3,0,0,1-5.808-.024A2.634,2.634,0,0,1,27,28Zm8,0V20h5.1l.9,8.052a2.711,2.711,0,0,1-.1.7,3,3,0,0,1-5.808-.024A2.631,2.631,0,0,1,35,28Zm7.117-8H48.1l.9,8.052a2.711,2.711,0,0,1-.1.7,3,3,0,0,1-5.808-.024A2.634,2.634,0,0,1,43,28a1.01,1.01,0,0,0-.006-.11ZM15,10V2H45v8Zm27,2v2H18V12ZM9,16H51v2H9ZM6,31a3,3,0,0,1-3-2.9L4.8,20H9.881L9,27.89A1.01,1.01,0,0,0,9,28a2.713,2.713,0,0,1-.1.751A3.009,3.009,0,0,1,6,31ZM58,58H2V56H58Z"/>
        </g>
      </g>
      <g id="Group_895" data-name="Group 895" transform="translate(13.002 38.004)">
        <g id="Group_894" data-name="Group 894">
          <path id="Path_22676" data-name="Path 22676" d="M120.993,304H105a1,1,0,0,0-1,1v10a1,1,0,0,0,1,1h15.994a1,1,0,0,0,1-1V305A1,1,0,0,0,120.993,304Zm-1,10H106v-8h13.994Z" transform="translate(-104 -304)"/>
        </g>
      </g>
    </g>
  </g>
</svg>
