<svg id="Group_846" data-name="Group 846" xmlns="http://www.w3.org/2000/svg" xmlns:xlink="http://www.w3.org/1999/xlink" width="60" height="60" viewBox="0 0 60 60">
  <defs>
    <style>
      .cls-1 {
        fill: #fff;
        stroke: #707070;
      }

      .cls-2 {
        clip-path: url(#clip-path);
      }

      .cls-3 {
        fill: #ffdbf8;
      }
    </style>
    <clipPath id="clip-path">
      <rect id="Rectangle_192" data-name="Rectangle 192" class="cls-1" width="20" height="40" transform="translate(-0.203)"/>
    </clipPath>
  </defs>
  <g id="Mask_Group_10" data-name="Mask Group 10" class="cls-2" transform="translate(49 40.203) rotate(90)">
    <circle id="Ellipse_125" data-name="Ellipse 125" class="cls-3" cx="20" cy="20" r="20" transform="translate(39.797 40) rotate(180)"/>
  </g>
  <g id="vector">
    <g id="Group_834" data-name="Group 834" transform="translate(49.524 11.722)">
      <g id="Group_833" data-name="Group 833">
        <path id="Path_22606" data-name="Path 22606" d="M423.164,100a1.164,1.164,0,1,0,1.164,1.164A1.164,1.164,0,0,0,423.164,100Z" transform="translate(-422 -100)"/>
      </g>
    </g>
    <g id="Group_836" data-name="Group 836" transform="translate(8.148 11.722)">
      <g id="Group_835" data-name="Group 835">
        <path id="Path_22607" data-name="Path 22607" d="M71.164,100a1.164,1.164,0,1,0,1.164,1.164A1.164,1.164,0,0,0,71.164,100Z" transform="translate(-70 -100)"/>
      </g>
    </g>
    <g id="Group_838" data-name="Group 838" transform="translate(52.126 15.647)">
      <g id="Group_837" data-name="Group 837">
        <path id="Path_22608" data-name="Path 22608" d="M451.066,143.266h-1.392a26.44,26.44,0,0,0-3.136-9.51,1.164,1.164,0,0,0-2.034,1.133,24.122,24.122,0,0,1,2.823,8.378h-.917a1.164,1.164,0,0,0-1.164,1.164v4.656a1.164,1.164,0,0,0,1.164,1.164h4.656a1.164,1.164,0,0,0,1.164-1.164V144.43A1.164,1.164,0,0,0,451.066,143.266Zm-1.164,4.656h-2.328v-2.328H449.9Z" transform="translate(-444.357 -133.158)"/>
      </g>
    </g>
    <g id="Group_840" data-name="Group 840" transform="translate(17.196 12.044)">
      <g id="Group_839" data-name="Group 839">
        <path id="Path_22609" data-name="Path 22609" d="M171.605,122.421c0-.018,0-.036,0-.054s-.005-.049-.009-.073,0-.03-.007-.045-.012-.056-.02-.084c0-.011-.005-.021-.008-.032-.01-.035-.022-.069-.036-.1l0-.011a1.147,1.147,0,0,0-.054-.113l-11.64-21.3a1.164,1.164,0,0,0-2.043,0l-11.639,21.3a1.154,1.154,0,0,0-.054.113l0,.011c-.014.033-.026.068-.036.1,0,.01-.005.021-.008.032-.007.028-.014.056-.02.084s0,.03-.007.045-.007.049-.009.073,0,.036,0,.054,0,.029,0,.044,0,.015,0,.023,0,.036,0,.055,0,.046.006.069,0,.032.007.048.009.05.015.075.007.028.011.041.016.053.025.078c0,.007,0,.015.007.022l4.2,11.124a3.492,3.492,0,0,0,.383,6.423v6.369a1.164,1.164,0,0,0,1.164,1.164h13.968a1.164,1.164,0,0,0,1.164-1.164v-6.367a3.492,3.492,0,0,0,.383-6.423l4.2-11.125c0-.007,0-.015.007-.022.009-.026.017-.052.025-.078s.007-.028.011-.041.011-.049.015-.075.005-.032.007-.048,0-.046.006-.069,0-.036,0-.055,0-.015,0-.023S171.606,122.435,171.605,122.421Zm-12.8-1.12a1.164,1.164,0,1,1-1.164,1.164A1.165,1.165,0,0,1,158.8,121.3Zm5.82,24.327h-11.64v-5.005h11.64Zm1.987-7.674a1.156,1.156,0,0,1-.823.341H151.82a1.164,1.164,0,0,1,0-2.328h13.971a1.163,1.163,0,0,1,.819,1.986Zm-1.628-4.315H152.625l-3.777-10.01h2.973a1.164,1.164,0,0,0,0-2.328h-2.693l8.513-15.579v13.452a3.492,3.492,0,1,0,2.328,0V105.721l8.513,15.579h-2.693a1.164,1.164,0,0,0,0,2.328h2.973Z" transform="translate(-146 -100)"/>
      </g>
    </g>
    <g id="Group_842" data-name="Group 842" transform="translate(0 15.647)">
      <g id="Group_841" data-name="Group 841">
        <path id="Path_22610" data-name="Path 22610" d="M7.275,133.3a1.164,1.164,0,0,0-1.583.451,26.44,26.44,0,0,0-3.136,9.51H1.164A1.164,1.164,0,0,0,0,144.43v4.656a1.164,1.164,0,0,0,1.164,1.164H5.82a1.164,1.164,0,0,0,1.164-1.164V144.43a1.164,1.164,0,0,0-1.164-1.164H4.9a24.126,24.126,0,0,1,2.823-8.378A1.164,1.164,0,0,0,7.275,133.3Zm-2.62,14.617H2.328v-2.328H4.656Z" transform="translate(0 -133.157)"/>
      </g>
    </g>
    <g id="Group_844" data-name="Group 844">
      <g id="Group_843" data-name="Group 843">
        <path id="Path_22611" data-name="Path 22611" d="M56.484,0A3.52,3.52,0,0,0,53.17,2.328H33.516V1.164A1.168,1.168,0,0,0,32.344,0H27.656a1.168,1.168,0,0,0-1.172,1.164V2.328H6.83A3.519,3.519,0,0,0,0,3.492,3.519,3.519,0,0,0,6.83,4.656H18.611a25.981,25.981,0,0,0-6.678,3.967,1.158,1.158,0,0,0-.141,1.64,1.177,1.177,0,0,0,1.651.14A26.515,26.515,0,0,1,26.484,4.9V5.82a1.168,1.168,0,0,0,1.172,1.164h4.687A1.168,1.168,0,0,0,33.516,5.82V4.9a26.516,26.516,0,0,1,13.041,5.5,1.177,1.177,0,0,0,1.651-.14,1.158,1.158,0,0,0-.141-1.64,25.981,25.981,0,0,0-6.678-3.967H53.17A3.519,3.519,0,0,0,60,3.492,3.508,3.508,0,0,0,56.484,0ZM3.516,4.656A1.164,1.164,0,1,1,4.687,3.492,1.169,1.169,0,0,1,3.516,4.656ZM31.172,3.492V4.656H28.828V2.328h2.344ZM56.484,4.656a1.164,1.164,0,1,1,1.172-1.164A1.169,1.169,0,0,1,56.484,4.656Z"/>
      </g>
    </g>
  </g>
</svg>
